# Blender 4.3.2
# www.blender.org
o Cube.001
v -0.293490 0.000000 -1.287927
v -0.293490 2.811029 -1.287927
v 0.755611 0.000000 -3.895852
v 0.755611 2.811029 -3.895852
v 2.314435 0.000000 -0.238826
v 2.314435 2.811029 -0.238826
v 3.363536 0.000000 -2.846750
v 3.363536 2.811029 -2.846750
vn -0.9277 -0.0000 -0.3732
vn 0.3732 -0.0000 -0.9277
vn 0.9277 -0.0000 0.3732
vn -0.3732 -0.0000 0.9277
vn -0.0000 -1.0000 -0.0000
vn -0.0000 1.0000 -0.0000
vt 0.625000 0.000000
vt 0.375000 0.250000
vt 0.375000 0.000000
vt 0.625000 0.250000
vt 0.375000 0.500000
vt 0.625000 0.500000
vt 0.375000 0.750000
vt 0.625000 0.750000
vt 0.375000 1.000000
vt 0.125000 0.750000
vt 0.125000 0.500000
vt 0.875000 0.500000
vt 0.625000 1.000000
vt 0.875000 0.750000
s 0
f 2/1/1 3/2/1 1/3/1
f 4/4/2 7/5/2 3/2/2
f 8/6/3 5/7/3 7/5/3
f 6/8/4 1/9/4 5/7/4
f 7/5/5 1/10/5 3/11/5
f 4/12/6 6/8/6 8/6/6
f 2/1/1 4/4/1 3/2/1
f 4/4/2 8/6/2 7/5/2
f 8/6/3 6/8/3 5/7/3
f 6/8/4 2/13/4 1/9/4
f 7/5/5 5/7/5 1/10/5
f 4/12/6 2/14/6 6/8/6
