# Blender 4.3.2
# www.blender.org
o Cube.002
v -2.593385 0.000000 -3.979753
v -3.465122 0.000000 -6.652197
v -2.593385 5.457202 -3.979753
v 0.079060 0.000000 -4.851490
v -0.792677 0.000000 -7.523933
v 0.079060 5.457202 -4.851490
v -0.792677 5.457202 -7.523933
v -3.465122 5.457202 -6.652197
vn -0.0000 -1.0000 -0.0000
vn -0.9507 -0.0000 0.3101
vn 0.3101 -0.0000 0.9507
vn 0.9507 -0.0000 -0.3101
vn -0.0000 1.0000 -0.0000
vn -0.3101 -0.0000 -0.9507
vt 0.125000 0.500000
vt 0.375000 0.750000
vt 0.125000 0.750000
vt 0.625000 0.000000
vt 0.375000 0.250000
vt 0.375000 0.000000
vt 0.625000 0.750000
vt 0.375000 1.000000
vt 0.625000 0.500000
vt 0.375000 0.500000
vt 0.875000 0.500000
vt 0.625000 0.250000
vt 0.625000 1.000000
vt 0.875000 0.750000
s 0
f 2/1/1 4/2/1 1/3/1
f 3/4/2 2/5/2 1/6/2
f 6/7/3 1/8/3 4/2/3
f 7/9/4 4/2/4 5/10/4
f 8/11/5 6/7/5 7/9/5
f 8/12/6 5/10/6 2/5/6
f 2/1/1 5/10/1 4/2/1
f 3/4/2 8/12/2 2/5/2
f 6/7/3 3/13/3 1/8/3
f 7/9/4 6/7/4 4/2/4
f 8/11/5 3/14/5 6/7/5
f 8/12/6 7/9/6 5/10/6
