# Blender 4.3.2
# www.blender.org
o Plane
v -4.833401 0.000000 1.200001
v 4.833401 0.000000 1.200001
v -4.833401 -0.000009 -9.199999
v 4.833401 -0.000009 -9.199999
v -4.833401 9.723790 1.199990
v 4.833401 9.723790 1.199990
v -4.833401 9.723782 -9.200010
v 4.833401 9.723782 -9.200010
v -2.508044 9.723786 -6.698269
v -2.508044 9.723789 -1.301735
v 2.508044 9.723786 -6.698269
v 2.508044 9.723789 -1.301735
vn -0.0000 -0.0000 1.0000
vn -0.0000 -0.0000 -1.0000
vn -0.0000 1.0000 -0.0000
vn -0.0000 -1.0000 -0.0000
vt 1.000000 1.000000
vt 0.000000 -0.000000
vt 1.000000 0.000000
vt 0.000000 1.000000
vt 0.486313 0.947390
vt 0.874824 1.000000
vt 0.437412 1.000000
vt 0.437412 0.529412
vt 0.825923 0.582022
vt 0.486313 0.582022
vt 0.874824 0.529412
vt 0.825923 0.947390
s 1
f 8/1/1 3/2/1 4/3/1
f 2/2/2 5/1/2 6/4/2
f 3/4/3 2/3/3 4/1/3
f 11/5/4 7/6/4 8/7/4
f 6/8/4 10/9/4 12/10/4
f 5/11/4 9/12/4 10/9/4
f 11/5/4 6/8/4 12/10/4
f 8/1/1 7/4/1 3/2/1
f 2/2/2 1/3/2 5/1/2
f 3/4/3 1/2/3 2/3/3
f 11/5/4 9/12/4 7/6/4
f 6/8/4 5/11/4 10/9/4
f 5/11/4 7/6/4 9/12/4
f 11/5/4 8/7/4 6/8/4
