# Blender 4.3.2
# www.blender.org
o car_base_together
v -0.448816 1.269204 0.625191
v 0.681339 1.183682 0.697774
v 0.742796 0.984755 0.824429
v 0.303557 0.722098 0.935854
v 1.541824 0.440181 0.874732
v 2.116028 0.695452 0.921258
v 0.322767 0.267866 0.722843
v 0.859252 0.560993 0.902439
v 0.306090 0.539508 0.919107
v 2.252255 0.450672 0.825763
v 2.312167 0.789805 0.890089
v 0.280702 0.883027 0.859620
v 0.311137 0.663849 0.938150
v 0.317410 0.460427 0.875428
v -0.972311 0.274515 0.726204
v -1.052724 0.585437 0.945473
v -1.047343 0.674128 0.939007
v -1.029628 0.500374 0.900281
v -2.116580 0.595031 0.966301
v -2.553539 0.771717 0.868476
v -2.168387 0.336291 0.805094
v 1.503689 0.585264 0.896716
v 0.748003 0.295320 0.723819
v 1.619885 0.294257 0.710616
v -1.427988 0.566245 0.912984
v -0.977080 0.265722 0.700844
v -0.897600 0.918196 0.865667
v -2.050792 0.835206 0.676791
v -2.647158 0.725129 0.642874
v -1.020746 0.903534 0.585249
v -2.729202 0.741584 0.018008
v -2.066404 0.837281 -0.004790
v -2.648630 0.566034 0.880493
v 1.469257 0.973775 0.620442
v -0.899389 0.917727 0.859334
v -2.605930 0.693920 0.429674
v -2.537343 0.305860 0.354005
v -2.393611 0.439181 0.854835
v -2.634793 0.520707 0.872463
v -2.602550 0.477725 0.404187
v -2.581565 0.382708 0.444478
v -2.578387 0.405946 0.824255
v -2.573408 0.377459 0.586946
v -2.699581 0.400663 -0.011364
v -2.120308 0.570811 0.912110
v 0.277458 0.877696 0.864717
v -2.650001 0.700371 0.713598
v -2.636046 0.669289 0.510235
v -2.653642 0.553877 0.530819
v -2.645256 0.570393 0.681601
v -2.635224 0.691336 0.878895
v -2.587582 0.481965 0.428652
v -2.602130 0.606269 0.451115
v -2.682436 0.586962 0.029131
v 2.194096 0.383241 0.765198
v 2.325778 0.717273 0.658205
v 2.244601 0.855851 0.656520
v 2.219409 0.461245 -0.004789
v 2.314418 0.706872 0.878762
v 2.122599 0.683311 0.899232
v 2.098569 0.460053 0.835087
v 2.242375 0.447915 0.807601
v 2.326813 0.540516 0.898829
v 2.183179 0.579397 0.919357
v 2.348954 0.613298 0.912051
v -2.586346 0.590790 0.749350
v 2.369530 0.640954 0.226900
v 2.249980 0.458722 0.241039
v 2.337162 0.571305 0.284678
v 2.317300 0.704241 0.244210
v 2.277433 0.605186 -0.004790
v 0.537903 1.305106 0.566441
v 0.310058 0.267607 0.700828
v 0.740058 0.187598 0.627847
v -1.332388 0.269884 0.720713
v 0.743597 0.276417 0.731349
v -1.334584 0.235201 0.705732
v 0.733330 0.196347 0.669630
v -2.137664 0.524472 0.920264
v -1.511405 0.621090 0.932681
v -2.175968 0.261997 0.732723
v -2.169105 0.336860 0.817406
v -1.316106 0.315767 0.690636
v -2.180903 0.305700 0.721574
v -2.047662 0.651983 0.887669
v -1.497952 0.649377 0.885818
v -1.326818 0.279096 0.724217
v 0.752338 0.460703 0.816853
v 0.850978 0.628115 0.883935
v 1.497609 0.547772 0.885232
v -1.451415 0.612699 0.884395
v -1.350294 0.455250 0.824208
v -2.140034 0.553633 0.887575
v 0.785366 0.215948 -0.007230
v 2.155303 0.449685 0.709584
v -2.510077 0.295293 0.755217
v -2.661442 0.304995 -0.035437
v -2.426746 0.361578 0.641737
v -2.490517 0.319153 -0.308909
v -0.894368 0.905425 0.856831
v -0.593632 1.257905 -0.004790
v -0.581829 1.251660 0.274837
v -0.906243 0.905453 0.838818
v -1.014121 0.898580 0.535155
v -1.069402 0.900165 -0.034069
v -0.863214 0.900112 0.867094
v 0.744356 0.967649 0.811069
v 0.269776 0.884646 0.858817
v -0.856699 0.910413 0.856256
v 0.275377 0.879322 0.857929
v 0.326609 1.227900 0.649766
v 0.316623 1.226386 0.653387
v 0.924999 1.238731 0.022415
v 0.954759 1.215956 0.551612
v 1.262951 1.061885 0.748107
v 1.449241 0.989250 -0.004790
v 0.936113 1.239414 0.109345
v 0.987525 1.189813 0.591138
v 1.325484 1.037778 0.702375
v 1.440131 0.997008 0.644388
v -0.602620 1.187459 0.652298
v -1.314771 0.204848 0.622800
v -0.550779 1.240460 0.562862
v -0.586196 1.269476 -0.005023
v -0.462412 1.240437 0.642114
v -0.852510 0.916316 0.855628
v 0.328571 1.222126 0.649418
v -0.551473 1.237099 0.598836
v -0.894870 0.917346 0.834290
v -1.071856 0.913995 0.033684
v -1.011225 0.911441 0.535909
v 0.691267 1.159703 0.697909
v 0.273832 0.884482 0.859154
v 0.762601 0.993833 0.813245
v -1.347645 0.266708 0.396070
v -2.237590 0.348243 0.674751
v -2.007225 0.617021 0.590692
v -1.615736 0.654822 0.593498
v -2.113934 0.360854 0.380695
v 1.608535 0.406661 0.511843
v 1.156576 0.625969 0.594678
v 0.781514 0.178074 0.419894
v -2.178024 0.348430 -0.391028
v -0.706735 1.070379 0.739346
v -0.557064 1.270792 0.558738
v -2.156810 0.599376 0.930443
v -1.390856 0.497022 0.896363
v 1.625652 0.332559 0.750223
v 1.432788 0.616611 0.920384
v 0.876163 0.623321 0.926278
v 0.732691 0.268494 0.709701
v 0.739446 0.496571 0.878298
v 1.562562 0.425075 0.875713
v 0.886379 0.657421 0.872500
v 1.443891 0.654518 0.873193
v 0.932381 1.242475 -0.004055
v 1.170354 1.107800 0.680298
v 1.350027 1.034965 0.709478
v 1.442971 1.004935 -0.004790
v 0.948150 1.224200 0.443450
v 1.155208 1.109646 0.662504
v -0.473644 1.236304 0.636460
v 0.705090 1.164026 0.693451
v 1.013189 1.190379 0.594731
v 1.441434 0.993782 0.644038
v -0.466708 1.254278 -0.646983
v 0.703615 1.160357 -0.720979
v 0.742425 0.985053 -0.834183
v 0.301956 0.711960 -0.949071
v 1.541824 0.440183 -0.884314
v 2.300497 0.729167 -0.910403
v 0.333896 0.270242 -0.732671
v 0.859253 0.560992 -0.912020
v 0.304076 0.519710 -0.922191
v 2.250568 0.452035 -0.838471
v 2.254245 0.835915 -0.878523
v 0.277673 0.880574 -0.868977
v 0.316869 0.672173 -0.948372
v 0.316549 0.456348 -0.881628
v -0.972311 0.274514 -0.735783
v -1.052719 0.585435 -0.955055
v -1.039037 0.706535 -0.944360
v -1.031045 0.510671 -0.917045
v -2.116579 0.595030 -0.975881
v -2.553535 0.771717 -0.878057
v -2.168387 0.336290 -0.814674
v 1.503687 0.585264 -0.906298
v 0.748003 0.295319 -0.733399
v 1.619887 0.293942 -0.719904
v -1.427991 0.566247 -0.922566
v 0.310076 0.266996 -0.710418
v -0.977074 0.266305 -0.710434
v -0.897600 0.918197 -0.875248
v -2.050800 0.835205 -0.686373
v -2.647158 0.725128 -0.652455
v -1.020746 0.903532 -0.594826
v -1.092016 0.901346 -0.004791
v -2.648630 0.566033 -0.890073
v 2.255366 0.853871 -0.666493
v -0.904944 0.917424 -0.869249
v -2.605930 0.693919 -0.439254
v -2.566230 0.337076 -0.376154
v -2.393609 0.439190 -0.864418
v -2.634793 0.520703 -0.882041
v -2.602550 0.477727 -0.413770
v -2.579913 0.389010 -0.453659
v -2.578387 0.405945 -0.833835
v -2.566821 0.374152 -0.638452
v -1.334694 0.281960 -0.730532
v -2.120310 0.570808 -0.921691
v 0.277458 0.877696 -0.874297
v -2.650001 0.700370 -0.723178
v -2.636047 0.669290 -0.519815
v -2.653643 0.553876 -0.540400
v -2.645256 0.570391 -0.691181
v -2.635224 0.691335 -0.888476
v -2.698128 0.706400 -0.036746
v -2.699627 0.453909 0.005477
v -2.587581 0.481965 -0.438233
v -2.602130 0.606269 -0.460696
v -2.691890 0.584093 -0.036121
v 2.191099 0.382397 -0.774877
v 2.324500 0.714849 -0.667672
v 2.314418 0.706873 -0.888342
v 2.122599 0.683309 -0.908813
v 2.098569 0.460057 -0.844669
v 2.244075 0.448786 -0.816704
v 2.326813 0.540516 -0.908408
v 2.183179 0.579396 -0.928936
v 2.348537 0.613298 -0.921794
v -2.586346 0.590790 -0.758930
v 2.337202 0.570144 -0.294155
v 2.358967 0.662566 -0.231246
v 2.251475 0.461008 -0.248271
v -0.372070 1.305370 -0.610891
v 0.740058 0.187597 -0.637428
v 0.744400 0.276744 -0.740779
v -1.335229 0.244114 -0.720600
v 0.733627 0.193861 -0.676975
v -2.137664 0.524467 -0.929843
v -1.511411 0.621090 -0.942262
v -2.180292 0.269792 -0.747394
v -2.169106 0.336858 -0.826986
v -1.316105 0.315767 -0.700217
v -2.180903 0.305699 -0.731154
v -2.047662 0.651983 -0.897250
v -1.497950 0.649376 -0.895398
v -1.326818 0.279095 -0.733797
v 0.752337 0.460703 -0.826433
v 0.850978 0.628115 -0.893516
v 1.497607 0.547773 -0.894813
v -1.451419 0.612698 -0.893976
v -1.350296 0.455256 -0.833793
v -2.140036 0.553631 -0.897155
v 2.155114 0.449562 -0.719262
v 1.640895 0.366792 -0.679886
v 1.641645 0.366413 0.669585
v -2.498955 0.308713 -0.769346
v -1.079065 0.242493 -0.014128
v -0.894367 0.905424 -0.866411
v -0.581829 1.251660 -0.284417
v -0.906243 0.905453 -0.848398
v -1.005260 0.898399 -0.567840
v -0.863211 0.900110 -0.876676
v 0.744356 0.967646 -0.820650
v 0.270108 0.884809 -0.867781
v -0.856591 0.910419 -0.865595
v 0.275377 0.879321 -0.867509
v 0.326601 1.227900 -0.659346
v 0.316623 1.226386 -0.662968
v 0.974360 1.208117 -0.632403
v 1.298853 1.044315 -0.770242
v 1.456169 0.979800 -0.665424
v 0.952464 1.222902 -0.473983
v 1.325485 1.037777 -0.711956
v 1.438795 0.993152 -0.653717
v 1.048399 1.169935 -0.632489
v -0.602618 1.187462 -0.661876
v -1.325211 0.200839 -0.637610
v -0.550779 1.240459 -0.572445
v -0.467775 1.240010 -0.651369
v -0.854756 0.916031 -0.866369
v 0.328571 1.222126 -0.658998
v -0.551998 1.235606 -0.617350
v -0.609227 1.262070 -0.004792
v -0.895179 0.911681 -0.845114
v -1.021462 0.911499 -0.512965
v 0.691267 1.159703 -0.707490
v 0.273831 0.884481 -0.868734
v 0.762601 0.993832 -0.822826
v 1.054383 0.288759 0.164985
v -1.344273 0.266171 -0.412165
v -2.007224 0.617021 -0.600273
v -1.615736 0.654822 -0.603079
v 1.024517 0.623682 -0.615503
v 1.617413 0.409291 -0.539973
v 0.745061 0.169358 -0.506448
v 0.943585 0.280756 -0.427092
v -0.706734 1.070379 -0.748927
v -0.565794 1.282561 -0.563293
v -2.156810 0.599375 -0.940023
v -1.390855 0.497021 -0.905943
v 1.625652 0.332554 -0.759797
v 1.433545 0.615890 -0.929882
v 0.877245 0.624703 -0.936017
v 0.732691 0.268497 -0.719284
v 0.739444 0.496568 -0.887877
v 1.562562 0.425076 -0.885293
v 0.886553 0.657880 -0.882561
v 1.443889 0.654517 -0.882771
v 0.931599 1.235330 -0.354870
v 1.026454 1.183602 -0.622997
v 1.350024 1.034966 -0.719059
v 1.155211 1.109645 -0.672087
v 1.217409 1.088350 -0.701735
v 0.960627 1.218098 -0.494741
v -0.473645 1.236304 -0.646041
v 0.705086 1.164026 -0.703031
v 1.441434 0.993782 -0.653617
v -2.669256 0.460219 -0.040617
vn -0.1211 0.9673 0.2230
vn 0.0704 0.9428 0.3259
vn -0.1938 0.9784 -0.0722
vn -0.1643 0.9473 0.2750
vn 0.0781 0.7255 0.6838
vn 0.6851 0.3929 0.6134
vn 0.5366 0.8430 0.0361
vn 0.0832 0.7264 0.6823
vn 0.0096 0.1662 0.9861
vn 0.0201 0.4539 0.8908
vn 0.2109 0.9441 0.2534
vn 0.1370 0.9903 -0.0234
vn 0.0283 -0.4269 0.9038
vn -0.3633 -0.9006 -0.2386
vn 0.6345 -0.5293 0.5633
vn 0.0883 -0.0295 0.9957
vn 0.0209 -0.2933 0.9558
vn 0.0183 -0.2655 0.9639
vn -0.0300 -0.1669 0.9855
vn -0.3204 0.7899 0.5229
vn 0.0997 -0.1630 0.9816
vn -0.0067 -0.7928 0.6094
vn -0.0065 -0.6855 0.7281
vn -0.0100 -0.6943 0.7196
vn -0.3930 0.7864 0.4766
vn -0.0590 0.8083 0.5858
vn -0.1100 0.9933 0.0344
vn -0.1144 0.9934 -0.0001
vn -0.7912 0.6105 -0.0359
vn -0.8562 0.5167 0.0008
vn -0.0657 0.9978 -0.0000
vn -0.0039 -0.6502 0.7598
vn -0.0002 -0.4941 0.8694
vn 0.0042 -0.4210 0.9070
vn 0.0034 0.0019 1.0000
vn 0.0074 -0.0012 1.0000
vn 0.0036 0.3119 0.9501
vn 0.0097 0.3385 0.9409
vn 0.0116 -0.7041 0.7100
vn 0.0376 -0.6110 0.7907
vn -0.0163 0.4135 0.9104
vn -0.9667 -0.2545 -0.0270
vn -0.9704 -0.1339 -0.2009
vn -0.9588 0.1464 -0.2434
vn -0.9786 -0.1640 0.1241
vn -0.9752 -0.2101 0.0699
vn -0.6949 -0.5182 0.4985
vn -0.6304 -0.5415 0.5561
vn -0.9634 -0.1088 0.2451
vn -0.0070 -0.5997 0.8002
vn 0.7594 -0.6117 0.2216
vn 0.0417 -0.3481 0.9365
vn -0.9667 0.1937 0.1673
vn -0.7353 0.3258 0.5943
vn -0.9870 -0.1360 0.0859
vn -0.7545 -0.2341 0.6131
vn -0.8909 -0.4539 -0.0175
vn -0.8934 -0.4484 0.0274
vn 0.0259 -0.9830 -0.1818
vn 0.9079 0.4192 0.0025
vn 0.6232 -0.5285 -0.5765
vn 0.8450 -0.5243 -0.1057
vn 0.8494 -0.5225 -0.0739
vn 0.5942 -0.5407 0.5954
vn 0.4811 -0.7975 0.3641
vn -0.1668 -0.5394 0.8254
vn -0.1945 -0.1905 0.9622
vn -0.2214 0.0930 0.9707
vn 0.7277 0.0600 0.6833
vn 0.6469 0.4657 0.6039
vn 0.9960 0.0374 -0.0807
vn 0.9838 0.1564 0.0878
vn 0.7700 0.6380 0.0103
vn 0.8098 -0.5862 -0.0240
vn -0.3672 -0.8712 0.3257
vn 0.2170 -0.9558 -0.1985
vn -0.9951 -0.0965 -0.0206
vn -0.6259 -0.7797 -0.0194
vn -0.3958 -0.8874 0.2363
vn 0.5043 -0.7673 0.3963
vn -0.4597 -0.7626 -0.4552
vn -0.8390 -0.5381 0.0806
vn -0.3221 -0.7591 -0.5657
vn -0.3192 -0.8747 -0.3646
vn 0.2586 -0.9524 0.1612
vn 0.1518 -0.9882 -0.0220
vn 0.4944 -0.8407 -0.2211
vn 0.4857 -0.7913 -0.3714
vn 0.9958 0.0912 -0.0080
vn 0.9966 0.0802 -0.0211
vn 0.4224 0.9064 0.0075
vn 0.3854 0.9209 0.0583
vn 0.4048 0.9133 0.0448
vn -0.0723 -0.9974 0.0037
vn 0.2647 -0.9506 0.1623
vn -0.3973 -0.9163 0.0510
vn 0.0126 0.5394 0.8419
vn -0.0125 0.5313 0.8471
vn 0.0109 0.5369 0.8436
vn -0.0146 0.5340 0.8453
vn -0.5886 0.7973 0.1339
vn -0.5840 0.7835 0.2122
vn -0.5848 0.8013 0.1258
vn -0.5921 0.8059 0.0011
vn -0.6006 0.7995 0.0109
vn -0.0274 0.5479 0.8361
vn 0.1666 -0.9758 -0.1417
vn 0.1620 -0.9542 0.2514
vn -0.7376 -0.0537 0.6731
vn 0.0280 -0.8572 0.5142
vn 0.7222 -0.5373 0.4356
vn 0.4021 -0.8390 0.3667
vn -0.2508 -0.8837 0.3953
vn -0.4772 -0.8669 0.1440
vn 0.6029 -0.7951 -0.0662
vn 0.3529 -0.8741 0.3338
vn -0.7484 -0.5210 0.4104
vn 0.0039 0.0419 0.9991
vn -0.4523 -0.6737 -0.5844
vn -0.8789 -0.4545 -0.1445
vn -0.4324 -0.6485 -0.6264
vn 0.2737 -0.8337 -0.4797
vn 0.4247 -0.7946 -0.4338
vn -0.9630 -0.1277 -0.2371
vn -0.9453 -0.0177 -0.3258
vn 0.4593 0.8575 -0.2319
vn -0.1516 -0.7778 -0.6100
vn 0.5088 0.7208 -0.4707
vn -0.8245 -0.0934 0.5581
vn 0.0858 0.8827 -0.4620
vn 0.0498 0.6402 -0.7666
vn 0.0142 0.1429 -0.9896
vn 0.0594 0.3820 -0.9223
vn 0.2606 -0.9524 -0.1580
vn -0.3530 -0.9045 0.2393
vn 0.6893 0.0901 -0.7188
vn 0.0220 -0.1310 -0.9911
vn 0.0221 -0.2939 -0.9556
vn -0.0300 -0.1670 -0.9855
vn -0.3204 0.7899 -0.5229
vn -0.0590 0.8083 -0.5858
vn 0.0983 -0.1642 -0.9815
vn -0.7306 0.3310 -0.5972
vn 0.0512 0.7384 -0.6724
vn 0.0425 -0.4126 -0.9099
vn -0.0090 -0.7312 -0.6821
vn -0.0094 -0.7949 -0.6067
vn -0.7918 0.6097 0.0347
vn -0.1100 0.9933 -0.0344
vn 0.1553 0.9631 0.2197
vn 0.5947 0.8035 -0.0267
vn 0.0063 -0.4967 -0.8679
vn -0.0045 -0.6485 -0.7612
vn -0.0054 -0.3904 -0.9206
vn 0.0061 0.3345 -0.9424
vn 0.0116 0.0136 -0.9998
vn -0.0015 0.0572 -0.9984
vn 0.0456 -0.6195 -0.7837
vn 0.0376 -0.3766 -0.9256
vn -0.0158 0.4093 -0.9123
vn 0.4822 0.6865 -0.5442
vn -0.6947 -0.5227 -0.4941
vn -0.6343 -0.5423 -0.5510
vn -0.9693 -0.2352 -0.0717
vn 0.7592 -0.6121 -0.2211
vn -0.0204 -0.6048 -0.7961
vn -0.8584 -0.5099 -0.0565
vn -0.3806 -0.8278 -0.4123
vn -0.6885 -0.7156 -0.1182
vn 0.0158 -0.6982 -0.7157
vn -0.8967 -0.4425 0.0033
vn -0.9280 -0.2350 -0.2891
vn -0.7929 0.5488 -0.2647
vn -0.9756 -0.2194 -0.0031
vn 0.5949 -0.5394 -0.5960
vn 0.4868 -0.7969 -0.3579
vn -0.1665 -0.5412 -0.8243
vn 0.6512 0.4661 -0.5989
vn -0.2216 0.0933 -0.9707
vn -0.1949 -0.1909 -0.9621
vn 0.7276 0.0615 -0.6833
vn -0.9671 0.1901 -0.1692
vn -0.8053 0.5822 0.1121
vn -0.9588 0.1460 0.2436
vn -0.9895 -0.1175 -0.0845
vn 0.8624 -0.4920 0.1191
vn 0.8850 -0.4404 0.1508
vn 0.5835 -0.7193 -0.3771
vn 0.9899 -0.1156 0.0825
vn 0.8530 0.2482 0.4591
vn 0.9843 -0.0336 0.1731
vn -0.3342 -0.7544 0.5650
vn -0.4619 -0.7625 0.4530
vn 0.0075 -0.6643 0.7474
vn -0.3373 -0.8672 0.3663
vn -0.4726 -0.7765 -0.4167
vn -0.4985 -0.7453 0.4427
vn -0.4240 -0.8674 -0.2604
vn 0.4091 0.9105 -0.0598
vn 0.4215 0.9061 -0.0361
vn 0.4064 0.9088 -0.0943
vn -0.0671 0.9977 0.0104
vn -0.0149 0.5341 -0.8453
vn -0.0274 0.5479 -0.8361
vn -0.0127 0.5318 -0.8468
vn 0.2290 -0.9726 -0.0404
vn -0.8012 -0.1940 -0.5661
vn -0.4132 -0.9103 -0.0239
vn 0.1440 -0.9895 -0.0136
vn -0.4348 -0.8970 -0.0797
vn 0.1685 -0.8503 -0.4986
vn 0.4226 -0.8628 -0.2775
vn -0.4772 -0.8669 -0.1440
vn -0.2531 -0.8791 -0.4040
vn 0.6286 -0.7772 0.0302
vn 0.3265 -0.8852 -0.3315
vn -0.7505 -0.5043 -0.4272
vn -0.0044 -0.0050 -1.0000
vn -0.4499 -0.6728 0.5872
vn -0.8780 -0.4562 0.1450
vn -0.8835 -0.4566 0.1049
vn -0.4422 -0.6422 0.6261
vn 0.2754 -0.8359 0.4748
vn 0.4198 -0.7979 0.4326
vn -0.0056 -0.6238 0.7815
vn 0.8285 0.2778 0.4862
vn -0.9457 -0.0175 0.3246
vn -0.9632 -0.1268 0.2369
vn -0.8402 -0.5362 -0.0810
vn 0.4368 0.8876 0.1464
vn 0.3208 0.8963 -0.3063
vn 0.4274 0.3649 0.8272
vn 0.4515 0.8919 -0.0269
vn 0.4401 0.8977 -0.0193
vn -0.6756 -0.0934 0.7313
vn -0.4028 0.7887 0.4645
vn 0.1603 0.9597 -0.2309
vn 0.0001 -0.6707 0.7417
vn -0.0748 -0.4172 0.9057
vn -0.0671 0.9977 -0.0104
vn -0.8035 0.5855 -0.1080
vn 0.9899 -0.1155 -0.0825
vn 0.9843 -0.0343 -0.1729
vn 0.8531 0.2467 -0.4598
vn 0.0074 -0.6639 -0.7477
vn 0.6767 0.7363 -0.0040
vn 0.3794 0.9194 0.1038
vn -0.1446 0.9895 0.0014
vn -0.0125 0.5672 0.8235
vn -0.4697 -0.8825 0.0232
vn 0.0016 -0.6119 0.7910
vn 0.0040 -0.6107 0.7918
vn 0.0024 -0.6107 0.7919
vn 0.7037 -0.6529 -0.2803
vn -0.8835 -0.4566 -0.1049
vn -0.0056 -0.6238 -0.7815
vn 0.8285 0.2774 -0.4864
vn 0.3172 0.9077 0.2747
vn -0.0244 -0.6548 -0.7554
vn -0.4190 0.7923 -0.4436
vn -0.4035 0.7875 -0.4658
vn -0.2638 0.9178 -0.2968
vn 0.0797 0.9692 -0.2331
vn -0.0004 -0.6701 -0.7423
vn 0.0114 0.3579 -0.9337
vn -0.9685 -0.1470 0.2010
vn -0.9723 -0.1875 -0.1394
vn -0.0748 -0.4172 -0.9057
vn -0.9580 -0.1294 -0.2558
vn -0.7494 -0.2229 -0.6234
vn 0.0034 -0.6102 -0.7923
vn 0.0019 -0.6102 -0.7923
vn 0.4592 -0.8627 -0.2118
vn 0.4196 0.9074 -0.0245
vn 0.3733 -0.9133 -0.1630
vn 0.0134 0.5417 -0.8404
vn 0.0114 0.5387 -0.8424
vn -0.5911 0.7960 -0.1306
vn -0.5829 0.8016 -0.1330
vn -0.5869 0.7784 -0.2227
vn -0.0125 0.5672 -0.8235
vn 0.3581 -0.8367 -0.4144
vn 0.7301 -0.5273 -0.4346
vn 0.7043 -0.6516 0.2818
vn -0.0329 -0.5912 0.8059
vt 0.111382 0.096673
vt 0.104450 0.270451
vt 0.074548 0.160341
vt 0.100927 0.085406
vt 0.138574 0.304264
vt 0.194945 0.597090
vt 0.161324 0.595910
vt 0.139755 0.420054
vt 0.232677 0.245433
vt 0.174697 0.317527
vt 0.099756 0.362129
vt 0.019129 0.348995
vt 0.275466 0.484425
vt 0.308448 0.496123
vt 0.273390 0.600948
vt 0.220888 0.575438
vt 0.270097 0.344346
vt 0.260381 0.462919
vt 0.426916 0.696043
vt 0.709730 0.786965
vt 0.643583 0.720131
vt 0.513062 0.683041
vt 0.487129 0.620329
vt 0.414704 0.623231
vt 0.137121 0.044401
vt 0.398126 0.761303
vt 0.619895 0.807159
vt 0.475772 0.125991
vt 0.615993 0.029289
vt 0.624622 0.134663
vt 0.486260 0.004139
vt 0.478700 0.340540
vt 0.252438 0.807856
vt 0.503401 0.847936
vt 0.253846 0.855211
vt 0.502931 0.885387
vt 0.253871 0.887476
vt 0.257670 0.934155
vt 0.504625 0.930582
vt 0.320805 0.239099
vt 0.324832 0.319693
vt 0.202288 0.240963
vt 0.206282 0.655193
vt 0.245446 0.671763
vt 0.239732 0.724801
vt 0.383640 0.984701
vt 0.395049 0.940312
vt 0.525397 0.984978
vt 0.527956 0.939500
vt 0.256303 0.970061
vt 0.681420 0.671762
vt 0.646690 0.707024
vt 0.263520 0.245402
vt 0.329958 0.725419
vt 0.377544 0.749312
vt 0.286490 0.737395
vt 0.382810 0.720358
vt 0.109605 0.032201
vt 0.045032 0.010048
vt 0.105509 0.006579
vt 0.013194 0.743526
vt 0.201577 0.722768
vt 0.842281 0.399465
vt 0.863669 0.414924
vt 0.832936 0.440653
vt 0.633079 0.199345
vt 0.642435 0.015284
vt 0.637840 0.017013
vt 0.680633 0.120778
vt 0.749144 0.145702
vt 0.734518 0.393397
vt 0.683592 0.391590
vt 0.682917 0.457094
vt 0.743832 0.441073
vt 0.778039 0.486550
vt 0.768484 0.402963
vt 0.813250 0.407625
vt 0.784543 0.115768
vt 0.789476 0.115811
vt 0.808955 0.123544
vt 0.753601 0.052382
vt 0.848339 0.882694
vt 0.849855 0.908508
vt 0.846391 0.889272
vt 0.863918 0.504684
vt 0.839546 0.507660
vt 0.765511 0.887624
vt 0.764072 0.890456
vt 0.614976 0.890113
vt 0.618850 0.617604
vt 0.635059 0.639289
vt 0.619117 0.640102
vt 0.550621 0.883771
vt 0.512039 0.884872
vt 0.509662 0.881158
vt 0.858852 0.936791
vt 0.850057 0.913736
vt 0.827241 0.882320
vt 0.831210 0.888241
vt 0.715785 0.525749
vt 0.753824 0.496347
vt 0.715805 0.525746
vt 0.945731 0.840067
vt 0.933726 0.669936
vt 0.946189 0.712516
vt 0.949731 0.164927
vt 0.930792 0.255724
vt 0.839578 0.271338
vt 0.743756 0.926931
vt 0.610762 0.899689
vt 0.767166 0.906822
vt 0.196953 0.001528
vt 0.198475 0.209628
vt 0.139032 0.074452
vt 0.135342 0.216298
vt 0.528076 0.378413
vt 0.580467 0.391537
vt 0.537274 0.469616
vt 0.437612 0.470785
vt 0.444027 0.370563
vt 0.174015 0.294489
vt 0.825949 0.905649
vt 0.820367 0.905996
vt 0.554286 0.896887
vt 0.583451 0.892066
vt 0.613482 0.876836
vt 0.605877 0.872426
vt 0.788229 0.892740
vt 0.774901 0.872014
vt 0.824171 0.872698
vt 0.814542 0.892872
vt 0.767046 0.876456
vt 0.731408 0.755450
vt 0.743859 0.691254
vt 0.835454 0.344608
vt 0.863523 0.369565
vt 0.865518 0.396769
vt 0.207909 0.689269
vt 0.319243 0.620635
vt 0.352696 0.635447
vt 0.320539 0.634771
vt 0.254942 0.620935
vt 0.252387 0.639943
vt 0.654977 0.616640
vt 0.656510 0.638261
vt 0.245698 0.990878
vt 0.193915 0.996488
vt 0.150141 0.991352
vt 0.322205 0.532835
vt 0.550162 0.531967
vt 0.539277 0.560461
vt 0.225269 0.020950
vt 0.262546 0.006569
vt 0.263161 0.233038
vt 0.106029 0.361947
vt 0.144050 0.427775
vt 0.234078 0.244922
vt 0.175384 0.317826
vt 0.273301 0.600582
vt 0.289701 0.590767
vt 0.308435 0.496112
vt 0.201632 0.600607
vt 0.260380 0.462919
vt 0.270097 0.344346
vt 0.770902 0.553585
vt 0.842373 0.841928
vt 0.837970 0.529303
vt 0.780193 0.771389
vt 0.823862 0.850700
vt 0.139570 0.309248
vt 0.275466 0.484425
vt 0.699089 0.536448
vt 0.752070 0.638648
vt 0.868338 0.836739
vt 0.868631 0.753678
vt 0.341361 0.029290
vt 0.332732 0.134660
vt 0.135234 0.457718
vt 0.161612 0.596859
vt 0.502839 0.846824
vt 0.252427 0.807856
vt 0.256538 0.858219
vt 0.256853 0.932399
vt 0.500317 0.887134
vt 0.256014 0.891564
vt 0.324833 0.319693
vt 0.267042 0.245381
vt 0.202288 0.240963
vt 0.189460 0.589711
vt 0.525397 0.984978
vt 0.527956 0.939500
vt 0.395655 0.940530
vt 0.766905 0.773598
vt 0.729363 0.805848
vt 0.926469 0.359985
vt 0.879324 0.312560
vt 0.904510 0.474941
vt 0.320421 0.239161
vt 0.243794 0.945764
vt 0.007060 0.810671
vt 0.248430 0.809309
vt 0.201576 0.722769
vt 0.021993 0.734075
vt 0.029541 0.628079
vt 0.156229 0.624276
vt 0.014268 0.621659
vt 0.690569 0.495074
vt 0.691186 0.525417
vt 0.734524 0.393387
vt 0.683322 0.390697
vt 0.682921 0.457095
vt 0.813250 0.407625
vt 0.778039 0.486550
vt 0.743832 0.441072
vt 0.768468 0.403184
vt 0.170026 0.617877
vt 0.906980 0.656360
vt 0.903879 0.698987
vt 0.892871 0.656125
vt 0.057834 0.387967
vt 0.005482 0.405148
vt 0.053996 0.442629
vt 0.682292 0.120616
vt 0.748620 0.145567
vt 0.944740 0.669247
vt 0.933707 0.669936
vt 0.946189 0.712516
vt 0.515012 0.639721
vt 0.541520 0.638124
vt 0.504358 0.636340
vt 0.619116 0.640102
vt 0.618850 0.617604
vt 0.546641 0.621994
vt 0.512044 0.884861
vt 0.550627 0.883771
vt 0.509681 0.881099
vt 0.548458 0.886961
vt 0.548514 0.886976
vt 0.866130 0.475464
vt 0.927019 0.648234
vt 0.849178 0.883600
vt 0.007549 0.781439
vt 0.248357 0.781498
vt 0.945731 0.840066
vt 0.934034 0.874873
vt 0.923100 0.018444
vt 0.839609 0.013211
vt 0.862274 0.002435
vt 0.354131 0.356020
vt 0.135342 0.216298
vt 0.174015 0.294490
vt 0.198475 0.209628
vt 0.590333 0.916719
vt 0.552190 0.898005
vt 0.766745 0.906679
vt 0.612320 0.927026
vt 0.558929 0.873560
vt 0.590113 0.892971
vt 0.605877 0.872426
vt 0.774901 0.872014
vt 0.788229 0.892740
vt 0.824171 0.872698
vt 0.814542 0.892872
vt 0.767046 0.876455
vt 0.863669 0.414924
vt 0.840510 0.379831
vt 0.833321 0.439874
vt 0.207909 0.689269
vt 0.206282 0.655192
vt 0.239732 0.724801
vt 0.286490 0.737395
vt 0.319243 0.620635
vt 0.352696 0.635447
vt 0.366861 0.624017
vt 0.320441 0.634420
vt 0.255004 0.620854
vt 0.252362 0.639880
vt 0.556659 0.616638
vt 0.509990 0.617982
vt 0.654976 0.616640
vt 0.635060 0.639289
vt 0.245698 0.990879
vt 0.211402 0.989219
vt 0.156046 0.991346
vt 0.085546 0.990141
vt 0.001974 0.990350
vt 0.120075 0.992845
vt 0.550163 0.531967
vt 0.320343 0.579652
vt 0.539277 0.560462
vt 0.018786 0.680512
vt 0.953601 0.252429
vt 0.966784 0.001740
vt 0.985041 0.253521
vt 0.972335 0.001721
vt 0.985044 0.252431
vt 0.953604 0.253404
vt 0.289700 0.590768
vt 0.719736 0.769093
vt 0.166218 0.003707
vt 0.702784 0.812516
vt 0.134219 0.466492
vt 0.500893 0.801701
vt 0.603230 0.954575
vt 0.924977 0.381261
vt 0.887643 0.480851
vt 0.880088 0.310678
vt 0.037112 0.685291
vt 0.095837 0.635556
vt 0.099040 0.695030
vt 0.412524 0.793102
vt 0.306611 0.673960
vt 0.319991 0.588500
vt 0.212020 0.231187
vt 0.677160 0.525914
vt 0.708962 0.495007
vt 0.692571 0.525694
vt 0.169767 0.617347
vt 0.892870 0.810838
vt 0.907776 0.790356
vt 0.901569 0.741934
vt 0.906980 0.829769
vt 0.906980 0.656360
vt 0.892871 0.656126
vt 0.903879 0.698988
vt 0.057833 0.387968
vt 0.053996 0.442629
vt 0.005482 0.405148
vt 0.944740 0.669247
vt 0.515012 0.639721
vt 0.504358 0.636340
vt 0.541520 0.638124
vt 0.546641 0.621994
vt 0.697316 0.654469
vt 0.943437 0.875389
vt 0.029328 0.493399
vt 0.862274 0.282081
vt 0.603224 0.356020
vt 0.002752 0.078953
vt 0.147410 0.284985
vt 0.558929 0.873560
vt 0.948544 0.667648
vt 0.955874 0.309285
vt 0.966779 0.665202
vt 0.860236 0.338599
vt 0.234259 0.627686
vt 0.366859 0.624017
vt 0.556659 0.616638
vt 0.509990 0.617982
vt 0.198834 0.989048
vt 0.018786 0.680512
vt 0.741045 0.868439
vt 0.691266 0.608509
vt 0.166218 0.003707
vt 0.137121 0.044401
vt 0.121408 0.098887
vt 0.100158 0.085352
vt 0.500893 0.801697
vt 0.504696 0.930596
vt 0.245446 0.671763
vt 0.383641 0.984701
vt 0.603230 0.954576
vt 0.329958 0.725419
vt 0.377544 0.749312
vt 0.382810 0.720358
vt 0.109605 0.032201
vt 0.105509 0.006580
vt 0.045032 0.010048
vt 0.099039 0.695029
vt 0.095837 0.635555
vt 0.037112 0.685292
vt 0.868716 0.545831
vt 0.306611 0.673960
vt 0.809456 0.861414
vt 0.989778 0.649878
vt 0.989226 0.437548
vt 0.987080 0.601950
vt 0.212020 0.231187
vt 0.263161 0.233038
vt 0.225269 0.020949
vt 0.663691 0.010509
vt 0.663692 0.009650
vt 0.901569 0.741933
vt 0.907776 0.790356
vt 0.892870 0.810839
vt 0.906980 0.829770
vt 0.944578 0.875452
vt 0.955397 0.308413
vt 0.948545 0.667647
vt 0.965470 0.667186
vt 0.711028 0.820531
vt 0.827420 0.882516
vt 0.012549 0.945372
vt 0.943516 0.048929
vt 0.613776 0.899180
vt 0.765011 0.889854
vt 0.614976 0.890113
vt 0.196564 0.004481
vt 0.139358 0.073686
vt 0.352782 0.377750
vt 0.337058 0.468722
vt 0.295323 0.391516
vt 0.147410 0.284985
vt 0.599808 0.905445
vt 0.613482 0.876836
vt 0.860236 0.338600
vt 0.835292 0.343612
vt 0.863523 0.369565
vt 0.865518 0.396770
vt 0.234260 0.627684
vt 0.193916 0.996488
vt 0.262546 0.006569
vt 0.968106 0.304713
vt 0.970556 0.304713
s 1
f 1/1/1 72/2/2 235/3/3
f 1/1/1 235/3/3 145/4/4
f 72/2/2 1/1/1 2/5/5
f 11/6/6 57/7/7 115/8/8
f 4/9/9 11/6/6 3/10/10
f 72/2/2 2/5/5 115/8/8
f 11/6/6 115/8/8 3/10/10
f 114/11/11 113/12/12 72/2/2
f 5/13/13 24/14/14 10/15/15
f 6/16/16 8/17/17 22/18/18
f 16/19/19 20/20/20 19/21/21
f 114/11/11 72/2/2 115/8/8
f 25/22/22 75/23/23 15/24/24
f 6/16/16 22/18/18 5/13/13
f 1/1/1 145/4/4 144/25/25
f 27/26/26 28/27/27 20/20/20
f 32/28/28 29/29/29 28/30/27
f 29/29/29 32/28/28 31/31/30
f 28/30/27 197/32/31 32/28/28
f 19/21/21 25/22/22 16/19/19
f 26/33/32 14/34/33 18/35/34
f 14/34/33 13/36/35 17/37/36
f 35/38/37 13/36/35 12/39/38
f 7/40/39 23/41/40 8/17/17
f 3/10/10 46/42/41 4/9/9
f 4/9/9 8/17/17 6/16/16
f 6/16/16 11/6/6 4/9/9
f 52/43/42 49/44/43 48/45/44
f 40/46/45 41/47/46 39/48/47
f 42/49/48 39/48/47 41/47/46
f 41/47/46 40/46/45 44/50/49
f 21/51/50 45/52/51 19/21/21
f 4/9/9 9/53/52 8/17/17
f 47/54/53 20/55/20 29/56/29
f 51/57/54 20/55/20 47/54/53
f 51/58/54 50/59/55 33/60/56
f 31/61/30 36/62/57 29/56/29
f 43/63/58 52/64/42 37/65/59
f 58/66/60 10/67/15 175/68/61
f 68/69/62 69/70/63 63/71/64
f 62/72/65 63/71/64 61/73/66
f 64/74/67 60/75/68 61/73/66
f 63/71/64 64/74/67 61/73/66
f 60/75/68 65/76/69 59/77/70
f 67/78/71 233/79/72 70/80/73
f 68/69/62 67/78/71 69/70/63
f 71/81/74 233/79/72 67/78/71
f 96/82/75 37/83/59 98/84/76
f 218/85/77 37/65/59 52/64/42
f 218/85/77 97/86/78 37/65/59
f 75/87/23 122/88/79 74/89/80
f 86/90/81 147/91/82 80/92/83
f 24/93/14 95/94/84 55/95/85
f 97/96/78 99/97/86 98/84/76
f 81/98/87 96/82/75 136/99/88
f 56/100/89 58/101/60 223/102/90
f 15/103/24 74/104/80 7/105/39
f 117/106/91 118/107/92 120/108/93
f 122/88/79 259/109/94 142/110/95
f 135/111/96 259/109/94 122/88/79
f 74/89/80 122/88/79 142/110/95
f 126/112/97 133/113/98 125/114/99
f 127/115/100 125/114/99 133/113/98
f 131/116/101 129/117/102 128/118/103
f 285/119/104 130/120/105 131/116/101
f 134/121/106 127/115/100 133/113/98
f 143/122/107 135/111/96 139/123/108
f 140/124/109 141/125/110 142/110/95
f 88/126/111 142/110/95 89/127/112
f 74/89/80 142/110/95 88/126/111
f 138/128/113 91/129/114 93/130/115
f 137/131/116 138/128/113 93/130/115
f 81/98/87 136/99/88 93/130/115
f 138/128/113 92/132/117 91/129/114
f 19/21/21 33/133/56 96/134/75
f 43/63/58 96/135/75 50/136/55
f 49/137/43 43/63/58 50/136/55
f 136/99/88 139/123/108 137/131/116
f 36/62/57 53/138/118 52/43/42
f 36/62/57 48/45/44 29/56/29
f 155/139/119 153/140/120 149/141/121
f 154/142/122 149/141/121 150/143/123
f 83/144/124 147/91/82 86/90/81
f 83/144/124 87/145/125 147/91/82
f 158/146/126 161/147/127 164/148/128
f 54/149/129 53/150/118 36/151/57
f 52/152/42 53/153/118 54/154/129
f 235/3/3 72/2/2 271/155/130
f 272/156/131 169/157/132 168/158/133
f 175/159/61 222/160/134 189/161/135
f 171/162/136 187/163/137 169/157/132
f 173/164/138 169/157/132 187/163/137
f 181/165/139 185/166/140 193/167/141
f 185/166/140 184/168/142 216/169/143
f 167/170/144 271/155/130 272/156/131
f 187/163/137 171/162/136 170/171/145
f 181/165/139 180/172/146 190/173/147
f 185/166/140 195/174/148 194/175/149
f 195/176/148 32/28/28 194/177/149
f 272/156/131 273/178/150 199/179/151
f 179/180/152 192/181/153 183/182/154
f 200/183/155 178/184/156 182/185/157
f 188/186/158 174/187/159 173/164/138
f 211/188/160 168/158/133 169/157/132
f 169/157/132 176/189/161 171/162/136
f 204/190/162 207/191/163 206/192/164
f 210/193/165 186/194/166 184/168/142
f 190/173/147 210/193/165 184/168/142
f 208/195/167 258/196/168 202/197/169
f 172/198/170 174/187/159 188/186/158
f 178/184/156 183/182/154 182/185/157
f 273/199/150 57/200/7 199/201/151
f 31/61/30 201/202/171 217/203/172
f 320/204/173 219/205/174 218/206/77
f 218/206/77 217/203/172 320/204/173
f 223/102/90 175/207/61 171/208/136
f 228/209/175 227/210/176 226/211/177
f 233/79/72 224/212/178 70/80/73
f 225/213/179 229/214/180 226/211/177
f 230/215/181 225/213/179 224/212/178
f 176/189/161 223/216/90 171/162/136
f 212/217/182 216/218/143 231/219/183
f 213/220/184 195/221/148 215/222/185
f 233/79/72 234/223/186 232/224/187
f 229/214/180 225/213/179 230/215/181
f 188/225/158 236/226/188 172/227/170
f 243/228/189 240/229/190 245/230/191
f 241/231/192 247/232/193 301/233/194
f 255/234/195 189/235/135 222/236/134
f 55/95/85 255/234/195 222/236/134
f 95/94/84 257/237/196 256/238/197
f 99/239/86 97/240/78 202/197/169
f 258/241/168 143/122/107 98/84/76
f 199/201/151 56/242/89 223/243/90
f 180/244/146 236/226/188 279/245/198
f 277/246/199 276/247/200 275/248/201
f 194/177/149 197/32/31 196/249/202
f 283/250/203 290/251/204 289/252/205
f 291/253/206 296/254/207 256/238/197
f 292/255/208 259/109/94 143/122/107
f 94/256/209 296/254/207 291/253/206
f 251/257/210 295/258/211 250/259/212
f 252/260/213 294/261/214 254/262/215
f 294/261/214 293/263/216 254/262/215
f 254/262/215 293/263/216 143/122/107
f 253/264/217 294/261/214 252/260/213
f 219/265/174 208/266/167 202/267/169
f 220/268/218 201/202/171 219/269/174
f 201/202/171 213/270/184 219/269/174
f 201/202/171 195/271/148 213/270/184
f 310/272/219 308/273/220 303/274/221
f 304/275/222 309/276/223 305/277/224
f 301/233/194 247/232/193 246/278/225
f 240/229/190 301/233/226 245/279/191
f 248/145/227 244/280/228 302/281/229
f 313/282/230 315/283/231 312/284/232
f 311/285/233 156/286/234 316/287/234
f 220/288/218 217/289/172 201/290/171
f 221/291/235 320/204/173 217/203/172
f 63/292/64 69/293/63 65/294/69
f 232/295/187 228/296/175 230/297/181
f 5/13/13 10/15/15 6/16/16
f 115/8/8 2/5/5 3/10/10
f 10/15/15 24/14/14 55/298/85
f 16/19/19 27/26/26 20/20/20
f 20/20/20 51/299/54 19/21/21
f 96/134/75 21/51/50 19/21/21
f 16/19/19 25/22/22 15/24/24
f 1/1/1 144/25/25 100/300/236
f 20/20/20 28/27/27 29/301/29
f 115/8/8 57/7/7 34/302/237
f 26/33/32 73/303/238 14/34/33
f 18/35/34 14/34/33 17/37/36
f 35/38/37 17/37/36 13/36/35
f 8/17/17 9/53/52 7/40/39
f 39/48/47 42/49/48 38/304/239
f 25/22/22 19/21/21 45/52/51
f 43/305/58 37/306/59 96/307/75
f 50/308/55 48/309/44 49/310/43
f 30/311/240 28/27/27 27/26/26
f 47/54/53 29/56/29 50/312/55
f 51/299/54 33/133/56 19/21/21
f 36/151/57 31/313/30 54/149/129
f 52/152/42 54/154/129 218/314/77
f 6/315/16 10/316/15 11/317/6
f 56/100/89 11/317/6 10/316/15
f 10/316/15 58/101/60 56/100/89
f 62/72/65 68/69/62 63/71/64
f 65/76/69 67/78/71 59/77/70
f 59/77/70 67/78/71 70/80/73
f 56/318/89 57/7/7 11/6/6
f 66/319/241 50/320/55 51/321/54
f 66/319/241 47/322/53 50/320/55
f 47/323/53 66/324/241 51/325/54
f 48/326/44 50/327/55 29/328/29
f 71/81/74 67/78/71 68/69/62
f 64/74/67 65/76/69 60/75/68
f 23/329/40 7/105/39 74/104/80
f 82/330/242 84/331/243 79/332/244
f 80/92/83 146/333/245 86/90/81
f 24/93/14 257/237/196 95/94/84
f 21/51/50 96/134/75 81/334/87
f 136/99/88 98/84/76 143/122/107
f 37/83/59 97/96/78 98/84/76
f 57/200/7 56/242/89 199/201/151
f 98/84/76 136/99/88 96/82/75
f 15/103/24 75/335/23 74/104/80
f 34/302/237 273/178/150 116/336/246
f 118/107/92 119/337/247 120/108/93
f 142/110/95 259/109/94 94/256/209
f 28/30/27 30/338/240 197/32/31
f 235/3/3 124/339/248 145/4/4
f 285/119/104 131/116/101 128/118/103
f 134/121/106 132/340/249 127/115/100
f 291/253/206 257/237/196 140/124/109
f 135/111/96 143/122/107 259/109/94
f 138/128/113 137/131/116 139/123/108
f 139/123/108 135/111/96 138/128/113
f 257/237/196 90/341/250 140/124/109
f 291/253/206 142/110/95 94/256/209
f 141/125/110 89/127/112 142/110/95
f 257/237/196 24/93/14 90/341/250
f 141/125/110 140/124/109 90/341/250
f 90/341/250 89/127/112 141/125/110
f 140/124/109 142/110/95 291/253/206
f 93/130/115 136/99/88 137/131/116
f 136/99/88 143/122/107 139/123/108
f 138/128/113 135/111/96 122/88/79
f 138/128/113 122/88/79 92/132/117
f 76/342/251 77/343/252 78/344/253
f 65/76/69 69/70/63 67/78/71
f 50/136/55 96/135/75 33/345/56
f 43/63/58 49/137/43 52/64/42
f 36/62/57 52/43/42 48/45/44
f 154/142/122 150/143/123 152/346/254
f 154/142/122 155/139/119 149/141/121
f 155/139/119 148/347/255 153/140/120
f 146/333/245 85/348/256 86/90/81
f 79/332/244 84/349/243 146/333/257
f 157/350/258 158/146/126 164/148/128
f 54/351/129 31/61/30 218/206/77
f 271/155/130 167/170/144 235/3/3
f 176/189/161 272/156/131 199/179/151
f 272/156/131 176/189/161 169/157/132
f 168/158/133 167/170/144 272/156/131
f 271/155/130 72/2/2 113/12/12
f 170/171/145 175/159/61 189/161/135
f 181/165/139 184/168/142 185/166/140
f 184/168/142 186/194/166 258/352/168
f 190/173/147 180/172/146 209/353/259
f 260/354/260 299/355/261 166/356/262
f 166/356/262 299/355/261 300/357/263
f 193/167/141 185/166/140 194/175/149
f 195/176/148 31/31/30 32/28/28
f 194/177/149 32/28/28 197/32/31
f 184/168/142 181/165/139 190/173/147
f 179/180/152 191/358/264 192/181/153
f 178/184/156 179/180/152 183/182/154
f 177/359/265 178/184/156 200/183/155
f 219/269/174 213/270/184 214/360/266
f 205/361/267 204/190/162 206/192/164
f 203/362/268 207/191/163 204/190/162
f 206/192/164 44/50/269 205/361/267
f 173/164/138 174/187/159 169/157/132
f 171/162/136 175/159/61 170/171/145
f 212/363/182 195/271/148 185/364/140
f 216/365/143 212/363/182 185/364/140
f 216/366/143 198/367/270 215/368/185
f 214/369/266 213/370/184 215/371/185
f 193/167/141 194/175/149 196/372/202
f 215/373/185 195/271/148 212/363/182
f 31/61/30 195/271/148 201/202/171
f 184/168/142 198/374/270 216/169/143
f 217/375/172 220/376/218 221/377/235
f 320/378/173 221/379/235 219/380/174
f 175/68/61 55/381/85 222/382/134
f 175/68/61 10/67/15 55/381/85
f 223/102/90 58/101/60 175/207/61
f 228/209/175 234/223/186 227/210/176
f 224/212/178 233/79/72 230/215/181
f 234/223/186 228/209/175 232/224/187
f 228/209/175 226/211/177 229/214/180
f 176/189/161 199/179/151 223/216/90
f 216/383/143 215/384/185 231/385/183
f 215/384/185 212/386/182 231/385/183
f 71/81/74 68/69/62 234/223/186
f 234/223/186 233/79/72 71/81/74
f 218/85/77 219/265/174 202/267/169
f 218/85/77 202/267/169 97/86/78
f 180/244/146 279/245/198 209/387/259
f 238/388/271 237/389/272 239/390/272
f 247/232/193 241/231/192 302/281/229
f 255/234/195 256/238/197 189/235/135
f 95/94/84 255/234/195 55/95/85
f 257/237/196 291/253/206 256/238/197
f 202/197/169 258/196/168 99/239/86
f 242/391/273 258/352/168 186/194/166
f 258/241/168 242/392/273 143/122/107
f 255/234/195 95/94/84 256/238/197
f 273/199/150 34/393/237 57/200/7
f 180/244/146 172/227/170 236/226/188
f 277/246/199 274/394/274 276/247/200
f 117/106/91 276/247/200 274/394/274
f 120/108/93 276/247/200 117/106/91
f 297/395/275 94/256/209 259/109/94
f 279/396/198 297/395/275 259/109/94
f 292/255/208 279/396/198 259/109/94
f 236/397/188 297/395/275 279/396/198
f 124/339/248 166/356/262 300/357/263
f 124/339/248 235/3/3 166/356/262
f 282/398/276 281/399/277 289/252/205
f 283/250/203 289/252/205 281/399/277
f 130/120/105 285/119/104 287/400/278
f 287/400/278 284/401/279 286/402/280
f 284/401/279 287/400/278 285/119/104
f 283/250/203 288/403/281 290/251/204
f 242/392/273 254/262/215 143/122/107
f 143/122/107 293/263/216 294/261/214
f 294/261/214 292/255/208 143/122/107
f 296/254/207 251/257/210 256/238/197
f 94/256/209 297/395/275 298/404/282
f 296/254/207 298/404/282 295/258/211
f 295/258/211 297/395/275 249/405/283
f 298/404/282 297/395/275 295/258/211
f 251/257/210 189/235/135 256/238/197
f 251/257/210 296/254/207 295/258/211
f 94/256/209 298/404/282 296/254/207
f 249/405/283 250/259/212 295/258/211
f 236/397/188 249/405/283 297/395/275
f 279/396/198 292/255/208 294/261/214
f 253/264/217 279/396/198 294/261/214
f 233/79/72 232/224/187 230/215/181
f 184/168/142 258/352/168 198/374/270
f 208/266/167 198/406/270 258/407/168
f 198/406/270 208/266/167 215/408/185
f 214/409/266 215/408/185 208/266/167
f 219/265/174 214/409/266 208/266/167
f 98/84/76 99/97/86 258/241/168
f 218/206/77 31/61/30 217/203/172
f 307/410/284 305/277/224 309/276/223
f 304/275/222 310/272/219 309/276/223
f 310/272/219 304/275/222 308/273/220
f 244/280/228 247/232/193 302/281/229
f 313/282/230 312/284/232 314/411/285
f 219/380/174 221/379/235 220/412/218
f 63/292/64 65/294/69 64/413/67
f 229/414/180 230/297/181 228/296/175
l 102 123
l 265 268
l 264 317
l 109 108
l 112 108
l 262 278
l 269 317
l 111 163
l 103 121
l 165 158
l 319 313
l 262 263
l 103 104
l 163 107
l 159 165
l 159 319
l 270 266
l 263 105
l 266 267
l 316 312
l 107 110
l 156 160
l 106 162
l 306 307
l 111 162
l 318 265
l 104 105
l 101 102
l 151 152
l 121 123
l 160 164
l 261 280
l 101 261
l 278 280
l 269 318
