# Blender 4.3.2
# www.blender.org
o vlkjadr_LOD0_TIER1_000
v 0.009238 -0.068408 0.007640
v 0.004540 0.068585 0.008798
v 0.032806 -0.057933 -0.021960
v -0.050448 -0.018904 -0.041596
v -0.065300 -0.024481 -0.000100
v 0.004115 -0.067753 -0.014824
v -0.065899 0.015255 -0.000704
v -0.042266 0.025940 0.047987
v 0.038094 -0.028305 -0.049651
v 0.026905 -0.041809 -0.047046
v -0.005196 0.018704 -0.069243
v 0.038062 0.060316 0.013349
v -0.041934 0.057553 -0.000018
v -0.057511 -0.002694 -0.030818
v -0.052137 -0.045112 -0.007504
v -0.017207 0.001105 -0.066484
v -0.049427 0.025946 0.038982
v -0.024356 0.064053 -0.009760
v 0.045321 0.022519 0.046872
v -0.017673 -0.062131 0.018399
v 0.000800 0.064605 -0.025768
v -0.050288 0.046631 0.020547
v -0.029817 0.054381 0.030625
v 0.062891 0.034451 -0.006119
v -0.000365 -0.018067 -0.066515
v 0.053626 -0.001233 -0.041567
v -0.066593 -0.016047 0.007146
v 0.016713 0.068260 -0.002661
v -0.041528 -0.004270 -0.054534
v -0.048614 -0.032140 0.040464
v -0.009834 0.043682 0.052557
v 0.021339 0.064710 -0.018057
v 0.005002 0.021075 0.068259
v 0.002683 -0.043598 0.053947
v -0.020197 0.038751 -0.055268
v 0.050265 -0.009684 -0.044349
v -0.047467 0.047461 -0.019111
v 0.010490 -0.063194 0.027937
v -0.012160 0.063096 -0.027040
v 0.052063 0.045144 0.021729
v 0.053731 0.034524 0.032581
v 0.025679 -0.036194 0.053417
v -0.057324 -0.003080 0.039739
v 0.021835 -0.064886 -0.012748
v -0.026893 -0.020294 -0.060187
v -0.000016 -0.064349 0.023735
v -0.003543 0.005149 -0.069368
v 0.017109 -0.037086 -0.053738
v 0.064507 -0.003206 -0.015019
v -0.065541 0.003007 -0.003061
v 0.037194 0.036104 -0.045458
v -0.049284 0.037357 0.029204
v -0.024273 -0.054483 0.035352
v -0.062276 0.000946 -0.018034
v -0.003539 0.043953 -0.054592
v 0.022140 0.059797 0.031212
v 0.016322 -0.037587 0.055178
v 0.048970 -0.036097 -0.031549
v 0.061493 -0.025885 -0.010782
v 0.069568 0.001259 0.016542
v 0.060191 -0.002571 0.033705
v -0.059690 0.036050 -0.008604
v 0.020556 -0.002124 0.064337
v 0.040672 -0.049765 0.023057
v 0.026410 -0.054472 0.034750
v -0.004121 0.060859 0.036000
v -0.042778 -0.046314 -0.027542
v -0.016879 0.065069 0.013598
v 0.016743 0.059019 -0.037524
v -0.040335 -0.011817 0.056200
v 0.003903 -0.043477 -0.053733
v -0.069396 -0.000842 0.012384
v -0.015388 -0.024291 0.062776
v 0.007090 -0.053711 0.044070
v -0.049887 -0.034602 -0.032903
v 0.027288 -0.016117 -0.059573
v 0.065538 -0.023496 0.020475
v -0.026705 0.023787 -0.057943
v 0.011874 0.043907 0.053573
v 0.026029 -0.006726 0.063947
v 0.046258 -0.000660 0.051876
v -0.032791 -0.022774 -0.057642
v -0.024613 0.045803 0.047152
v 0.018492 -0.005013 -0.065675
v 0.045139 0.011580 -0.050724
v -0.051640 -0.044152 0.005661
v 0.053555 -0.041512 0.015336
v -0.018528 -0.054105 -0.038923
v 0.042289 0.053561 -0.020352
v 0.051397 -0.029107 0.038093
v -0.060704 0.030632 0.010651
v -0.032833 -0.058626 -0.011545
v 0.061159 -0.008413 -0.027094
v -0.018385 0.057606 -0.040639
v 0.068408 -0.004722 0.005922
v 0.018959 -0.064256 0.019396
v 0.026652 0.024733 0.059393
v -0.035685 -0.055226 0.017976
v 0.040934 0.049705 0.034667
v 0.016596 0.039853 -0.056429
v -0.014069 -0.066967 0.005961
v 0.065347 0.017519 -0.023037
v -0.047988 0.028639 -0.041577
v -0.038764 0.025848 -0.051784
v 0.061383 -0.035284 0.005399
v 0.027597 -0.050764 -0.034721
v -0.008180 -0.066699 -0.013615
v 0.042037 -0.023460 0.049997
v 0.055702 0.018523 -0.037700
v -0.025152 0.014417 0.062456
v 0.036276 -0.056716 0.015511
v -0.035472 -0.038007 0.047665
v -0.045788 0.013684 0.048055
v -0.007351 -0.004487 0.068895
v -0.015757 0.028008 0.061371
v 0.010987 -0.018417 0.066170
v -0.036159 -0.037026 -0.048435
v 0.053633 0.048108 -0.002637
v 0.070353 0.008702 -0.001508
v -0.011002 -0.041176 -0.053760
v 0.045434 -0.014431 -0.048581
v 0.013344 0.009960 -0.066335
v 0.028478 -0.024603 0.055262
v -0.057842 -0.014285 0.033500
v 0.043343 0.047952 -0.032402
v -0.010990 -0.050069 0.047565
vn -0.5028 -0.4791 -0.7195
vn -0.7406 -0.4776 -0.4726
vn -0.8377 -0.1767 -0.5167
vn -0.6676 0.6441 0.3735
vn -0.9376 0.3129 0.1517
vn -0.6766 0.4390 0.5912
vn -0.9121 -0.0758 -0.4029
vn -0.6413 0.0328 -0.7666
vn -0.1094 -0.6210 -0.7762
vn -0.4790 -0.4217 -0.7699
vn -0.3198 -0.1822 -0.9298
vn -0.2660 0.3320 0.9050
vn -0.1589 0.5184 0.8403
vn -0.3741 0.6467 0.6647
vn -0.8284 -0.2751 0.4880
vn -0.9947 0.0206 0.1005
vn -0.9874 -0.1571 0.0200
vn -0.0992 -0.9345 0.3418
vn 0.2041 -0.7644 0.6117
vn -0.1802 -0.9306 0.3185
vn 0.0444 -0.5964 0.8014
vn -0.0802 -0.0927 0.9925
vn -0.2074 -0.3473 0.9145
vn 0.7051 -0.4823 0.5198
vn 0.5995 -0.2673 0.7544
vn 0.3142 -0.4413 0.8406
vn 0.7346 0.6747 -0.0714
vn 0.7718 0.5632 0.2951
vn 0.9062 0.4125 -0.0933
vn -0.5106 -0.8378 0.1934
vn -0.4248 -0.5588 0.7123
vn -0.7245 -0.4358 0.5341
vn -0.5824 -0.1262 0.8030
vn -0.3595 0.1719 0.9172
vn -0.6624 0.2229 0.7152
vn -0.0476 0.8866 0.4601
vn -0.4142 0.8244 0.3857
vn -0.5565 0.8299 -0.0400
vn -0.1276 0.9719 0.1976
vn -0.1104 -0.9682 -0.2243
vn -0.4640 -0.8771 -0.1242
vn -0.2080 -0.8094 -0.5492
vn 0.2970 0.8231 0.4841
vn 0.1796 0.5529 0.8136
vn 0.0900 0.2769 0.9567
vn -0.6390 -0.7097 -0.2968
vn 0.9599 -0.1506 -0.2366
vn 0.9254 -0.0876 -0.3688
vn 0.6596 -0.0309 -0.7510
vn 0.7342 -0.5466 -0.4027
vn 0.5333 -0.4642 -0.7072
vn 0.5759 -0.1493 -0.8038
vn 0.9888 0.0732 -0.1302
vn 0.9533 0.0883 0.2887
vn 0.9852 -0.1696 -0.0259
vn 0.1141 -0.9921 0.0527
vn 0.4213 -0.8914 0.1671
vn 0.3272 -0.2341 -0.9155
vn 0.8116 -0.0684 -0.5802
vn -0.0841 0.9492 -0.3033
vn 0.3750 0.9129 -0.1610
vn 0.2464 0.7898 -0.5617
vn 0.0833 -0.2142 0.9732
vn 0.3545 -0.4109 0.8399
vn 0.3774 0.0110 0.9260
vn -0.9746 0.1843 -0.1271
vn -0.9330 0.0289 -0.3586
vn 0.4716 0.8766 0.0957
vn -0.0095 0.9991 0.0402
vn -0.8428 -0.0216 0.5378
vn -0.7440 0.4720 0.4729
vn 0.4608 -0.8858 0.0546
vn 0.6504 -0.6141 0.4469
vn 0.6522 0.7402 -0.1634
vn 0.5354 0.1345 -0.8338
vn 0.8086 0.2613 -0.5272
vn -0.7282 0.3292 -0.6011
vn -0.7360 0.5888 -0.3342
vn -0.2688 0.8061 -0.5272
vn -0.6516 0.4401 0.6179
vn 0.3597 -0.7095 -0.6061
vn 0.8301 -0.0928 0.5499
vn 0.8004 0.3937 0.4521
vn 0.5526 0.3472 0.7577
vn -0.2133 0.9604 -0.1791
vn 0.0176 -0.2340 -0.9721
vn 0.1560 -0.6663 -0.7292
vn -0.1214 -0.6721 0.7304
vn -0.3868 -0.7921 0.4722
vn 0.1823 -0.5713 -0.8002
vn -0.9777 0.2005 -0.0625
vn -0.9541 -0.2991 -0.0140
vn -0.2768 0.0428 -0.9600
vn -0.7621 -0.6459 -0.0450
vn -0.0773 0.2930 -0.9530
vn -0.4465 0.3080 -0.8401
vn 0.5837 0.6278 -0.5150
vn 0.0996 0.9943 0.0385
vn -0.2029 -0.9327 0.2981
vn 0.4243 0.2398 0.8732
vn 0.5599 0.6476 0.5169
vn 0.3798 -0.7754 0.5046
vn 0.8640 -0.5023 -0.0347
vn 0.7175 -0.6641 0.2101
vn -0.2229 -0.9742 0.0358
vn 0.6833 0.0448 0.7287
vn -0.0557 -0.1471 -0.9876
vn 0.2948 0.1661 -0.9410
vn 0.4158 -0.7632 -0.4946
vn 0.9272 -0.3191 -0.1962
vn 0.0627 0.6588 -0.7497
vn -0.3716 0.5003 -0.7821
vn 0.8942 0.2166 -0.3918
vn 0.4753 0.3778 -0.7946
vn 0.2954 0.4682 -0.8328
vn 0.5586 -0.7608 -0.3305
vn 0.2504 -0.9502 -0.1854
vn 0.9022 -0.2826 0.3259
vn -0.8049 -0.5688 0.1693
vn -0.5754 0.3362 -0.7456
vn 0.1855 0.1310 0.9739
vn -0.9021 0.4142 -0.1213
vn 0.1836 -0.5838 0.7909
vn -0.0841 0.9821 -0.1687
vn 0.0914 -0.9630 -0.2535
vn 0.2904 -0.0229 -0.9566
vt 0.788137 0.325183
vt 0.733101 0.285631
vt 0.768614 0.254828
vt 0.980879 0.930370
vt 0.951133 0.953730
vt 0.964220 0.881746
vt 0.173719 0.966267
vt 0.120030 0.919324
vt 0.216572 0.910127
vt 0.842265 0.393719
vt 0.839494 0.304654
vt 0.865097 0.309994
vt 0.098107 0.496997
vt 0.144761 0.537913
vt 0.108590 0.578816
vt 0.796328 0.872652
vt 0.838912 0.952519
vt 0.790663 0.965967
vt 0.911163 0.471804
vt 0.853897 0.496412
vt 0.906693 0.438696
vt 0.605220 0.025678
vt 0.736247 0.035116
vt 0.672871 0.070284
vt 0.710253 0.724045
vt 0.718069 0.782691
vt 0.679350 0.798007
vt 0.409200 0.555491
vt 0.423874 0.494528
vt 0.487798 0.554420
vt 0.648235 0.977657
vt 0.535917 0.959064
vt 0.556255 0.900028
vt 0.822553 0.777206
vt 0.902369 0.733119
vt 0.896536 0.811281
vt 0.190722 0.609870
vt 0.107634 0.640511
vt 0.090671 0.743170
vt 0.173517 0.694976
vt 0.695869 0.478162
vt 0.668294 0.397049
vt 0.770341 0.404660
vt 0.322406 0.432942
vt 0.278305 0.383411
vt 0.351430 0.336490
vt 0.066172 0.403295
vt 0.124513 0.450355
vt 0.044782 0.480491
vt 0.718170 0.332891
vt 0.366857 0.117790
vt 0.368920 0.164614
vt 0.317027 0.202563
vt 0.366736 0.718168
vt 0.354230 0.793683
vt 0.308184 0.795013
vt 0.581729 0.527854
vt 0.581995 0.483269
vt 0.604084 0.515966
vt 0.957285 0.426634
vt 0.953715 0.487984
vt 0.320090 0.270415
vt 0.285866 0.327677
vt 0.329001 0.237318
vt 0.029020 0.112110
vt 0.077332 0.084603
vt 0.081503 0.157009
vt 0.705140 0.898103
vt 0.694080 0.827933
vt 0.744272 0.853312
vt 0.007683 0.959353
vt 0.021584 0.909331
vt 0.074436 0.914734
vt 0.350914 0.511076
vt 0.243026 0.486567
vt 0.840097 0.853776
vt 0.932626 0.848630
vt 0.982310 0.546745
vt 0.953347 0.574517
vt 0.201866 0.024759
vt 0.154707 0.079691
vt 0.253930 0.222689
vt 0.264115 0.168153
vt 0.816605 0.061965
vt 0.924443 0.071956
vt 0.871871 0.184386
vt 0.023012 0.560159
vt 0.409218 0.793292
vt 0.339179 0.856496
vt 0.566934 0.419052
vt 0.459097 0.451913
vt 0.478518 0.389132
vt 0.851770 0.667993
vt 0.334512 0.273865
vt 0.397157 0.259237
vt 0.180630 0.754573
vt 0.916857 0.370144
vt 0.860613 0.439708
vt 0.572903 0.058664
vt 0.530061 0.111916
vt 0.474749 0.042094
vt 0.418567 0.837210
vt 0.016131 0.876110
vt 0.627677 0.246293
vt 0.300142 0.882579
vt 0.239203 0.966296
vt 0.238424 0.692047
vt 0.652431 0.314403
vt 0.708657 0.180777
vt 0.683673 0.123988
vt 0.758447 0.122202
vt 0.168817 0.122807
vt 0.048427 0.039478
vt 0.470214 0.096907
vt 0.485971 0.154010
vt 0.430286 0.325534
vt 0.384284 0.437081
vt 0.918283 0.610069
vt 0.838846 0.581152
vt 0.909208 0.540043
vt 0.022749 0.643168
vt 0.015271 0.604053
vt 0.352169 0.593023
vt 0.383871 0.567659
vt 0.474978 0.585574
vt 0.436227 0.096029
vt 0.790827 0.785638
vt 0.170323 0.371548
vt 0.190108 0.321901
vt 0.228591 0.399741
vt 0.439999 0.756743
vt 0.460639 0.849122
vt 0.245862 0.637869
vt 0.313383 0.637566
vt 0.262218 0.698944
vt 0.043260 0.685301
vt 0.796096 0.216160
vt 0.795240 0.161554
vt 0.442640 0.983783
vt 0.372288 0.966610
vt 0.483322 0.897209
vt 0.314037 0.302468
vt 0.291459 0.114126
vt 0.348490 0.057172
vt 0.046355 0.990682
vt 0.668496 0.834798
vt 0.559085 0.843940
vt 0.637188 0.819793
vt 0.182286 0.183689
vt 0.615473 0.515147
vt 0.619884 0.473682
vt 0.124687 0.232785
vt 0.071757 0.221972
vt 0.277721 0.957339
vt 0.852919 0.459836
vt 0.452125 0.705351
vt 0.502606 0.686004
vt 0.747022 0.658834
vt 0.672275 0.651411
vt 0.715503 0.635495
vt 0.603753 0.390852
vt 0.602546 0.314533
vt 0.128928 0.326173
vt 0.086855 0.259343
vt 0.205597 0.820649
vt 0.308998 0.563115
vt 0.248379 0.578864
vt 0.905427 0.992828
vt 0.839521 0.991657
vt 0.490143 0.251057
vt 0.449584 0.192151
vt 0.925305 0.024174
vt 0.007298 0.812799
vt 0.032442 0.797735
vt 0.742540 0.586333
vt 0.813156 0.558802
vt 0.812550 0.609971
vt 0.610811 0.107845
vt 0.787894 0.088693
vt 0.396380 0.921658
vt 0.989175 0.257965
vt 0.924524 0.249056
vt 0.967652 0.162442
vt 0.915727 0.202729
vt 0.652508 0.692025
vt 0.258683 0.047423
vt 0.567500 0.636927
vt 0.805419 0.508017
vt 0.283632 0.769586
vt 0.675374 0.908369
vt 0.748343 0.888767
vt 0.700996 0.589847
vt 0.936917 0.815495
vt 0.547140 0.727528
vt 0.987539 0.989673
vt 0.973224 0.085152
vt 0.578330 0.713241
vt 0.552693 0.719917
vt 0.539919 0.345790
vt 0.507968 0.288449
vt 0.362046 0.905106
vt 0.812933 0.660978
vt 0.800520 0.721849
vt 0.816501 0.620179
vt 0.618898 0.152076
vt 0.658662 0.172054
vt 0.578504 0.986435
vt 0.809279 0.250887
vt 0.980232 0.601437
vt 0.262816 0.534831
vt 0.393581 0.047755
vt 0.724740 0.492021
vt 0.722470 0.948927
vt 0.547537 0.606832
vt 0.133684 0.012915
vt 0.243471 0.335737
vt 0.154907 0.813595
vt 0.349896 0.935501
vt 0.008637 0.050617
vt 0.020884 0.750956
vt 0.858610 0.258272
vt 0.638909 0.518029
s 1
f 117/1/1 75/2/2 4/3/3
f 22/4/4 91/5/5 52/6/6
f 4/7/3 14/8/7 29/9/8
f 120/10/9 82/11/10 45/12/11
f 115/13/12 31/14/13 83/15/14
f 124/16/15 72/17/16 27/18/17
f 38/19/18 74/20/19 46/21/20
f 34/22/21 114/23/22 73/24/23
f 90/25/24 108/26/25 42/27/26
f 118/28/27 40/29/28 24/30/29
f 98/31/30 112/32/31 30/33/32
f 70/34/33 110/35/34 113/36/35
f 66/37/36 23/38/37 83/15/14
f 13/39/38 23/38/37 68/40/39
f 107/41/40 92/42/41 88/43/42
f 56/44/43 66/45/36 79/46/44
f 114/47/22 33/48/45 110/49/34
f 92/42/41 67/50/46 88/43/42
f 49/51/47 93/52/48 26/53/49
f 58/54/50 9/55/51 121/56/52
f 119/57/53 60/58/54 95/59/55
f 1/60/56 96/61/57 46/21/20
f 121/62/52 76/63/58 36/64/59
f 21/65/60 32/66/61 69/67/62
f 116/68/63 123/69/64 80/70/65
f 27/71/17 50/72/66 54/73/67
f 12/74/68 2/75/69 56/44/43
f 43/76/70 113/36/35 17/77/71
f 111/78/72 64/79/73 96/61/57
f 72/17/16 124/16/15 43/76/70
f 118/80/27 89/81/74 32/66/61
f 36/64/59 85/82/75 109/83/76
f 103/84/77 37/85/78 94/86/79
f 110/49/34 115/13/12 8/87/80
f 9/55/51 10/88/81 76/89/58
f 61/90/82 41/91/83 19/92/84
f 93/52/48 36/64/59 26/53/49
f 114/93/22 110/35/34 70/34/33
f 2/75/69 66/45/36 56/44/43
f 79/46/44 115/94/12 33/95/45
f 68/40/39 18/96/85 13/39/38
f 25/97/86 71/98/87 120/10/9
f 126/99/88 53/100/89 46/101/20
f 48/102/90 76/89/58 10/88/81
f 50/72/66 7/103/91 54/73/67
f 5/104/92 4/3/3 75/2/2
f 29/9/8 16/105/93 82/106/10
f 68/40/39 2/107/69 18/96/85
f 43/76/70 124/16/15 70/34/33
f 15/108/94 75/2/2 67/50/46
f 11/109/95 16/110/93 78/111/96
f 118/80/27 125/112/97 89/81/74
f 82/11/10 117/1/1 4/3/3
f 32/66/61 28/113/98 118/80/27
f 24/30/29 40/29/28 60/58/54
f 20/114/99 53/100/89 98/115/30
f 46/21/20 96/61/57 38/19/18
f 79/46/44 97/116/100 99/117/101
f 90/118/24 42/119/26 65/120/102
f 23/38/37 52/121/6 17/122/71
f 64/79/73 90/118/24 65/120/102
f 105/123/103 87/124/104 111/125/72
f 101/126/105 20/114/99 98/115/30
f 81/127/106 80/70/65 108/26/25
f 47/128/107 122/129/108 25/130/86
f 106/131/109 71/132/87 48/102/90
f 49/133/47 59/134/110 93/135/48
f 23/38/37 22/136/4 52/121/6
f 94/86/79 55/137/111 35/138/112
f 73/139/23 114/140/22 70/141/33
f 31/142/13 79/46/44 66/45/36
f 49/51/47 102/143/113 119/144/53
f 55/137/111 11/109/95 35/138/112
f 5/145/92 54/73/67 4/7/3
f 5/146/92 124/147/15 27/148/17
f 20/114/99 101/126/105 46/101/20
f 125/112/97 109/83/76 51/149/114
f 65/120/102 42/119/26 74/20/19
f 46/150/20 101/151/105 107/41/40
f 79/46/44 31/142/13 115/94/12
f 17/122/71 8/87/80 83/15/14
f 42/27/26 108/26/25 123/69/64
f 69/67/62 100/152/115 94/153/79
f 45/154/11 82/106/10 16/105/93
f 126/155/88 46/21/20 74/20/19
f 3/156/116 44/157/117 106/131/109
f 74/20/19 38/19/18 65/120/102
f 51/149/114 85/82/75 122/129/108
f 77/158/118 87/159/104 105/160/103
f 98/161/30 86/162/119 15/108/94
f 36/64/59 109/83/76 26/53/49
f 67/50/46 75/2/2 117/1/1
f 115/13/12 83/15/14 8/87/80
f 11/163/95 55/164/111 100/152/115
f 29/9/8 104/165/120 16/105/93
f 77/166/118 105/123/103 95/167/55
f 7/168/91 50/169/66 72/17/16
f 11/109/95 78/111/96 35/138/112
f 63/170/121 19/92/84 97/116/100
f 114/171/22 63/170/121 33/95/45
f 62/172/122 37/85/78 103/84/77
f 7/103/91 91/173/5 62/174/122
f 116/175/63 57/176/123 123/177/64
f 12/74/68 56/44/43 99/117/101
f 66/37/36 68/40/39 23/38/37
f 34/22/21 112/178/31 126/99/88
f 106/131/109 10/88/81 58/54/50
f 78/111/96 104/179/120 35/138/112
f 31/14/13 66/37/36 83/15/14
f 96/61/57 65/120/102 38/19/18
f 71/132/87 25/180/86 48/102/90
f 2/181/69 21/182/60 18/183/85
f 7/168/91 72/17/16 91/5/5
f 14/8/7 54/73/67 62/174/122
f 18/183/85 21/182/60 39/184/124
f 64/185/73 87/159/104 90/25/24
f 119/144/53 102/143/113 24/186/29
f 111/125/72 1/187/56 44/157/117
f 116/175/63 34/188/21 57/176/123
f 42/119/26 57/176/123 34/188/21
f 17/122/71 83/15/14 23/38/37
f 36/189/59 93/135/48 59/134/110
f 74/20/19 34/188/21 126/155/88
f 86/190/119 30/33/32 5/146/92
f 80/70/65 63/191/121 116/68/63
f 3/156/116 106/131/109 58/54/50
f 18/183/85 94/86/79 37/85/78
f 5/104/92 75/2/2 15/108/94
f 23/38/37 13/39/38 22/136/4
f 105/123/103 3/156/116 58/54/50
f 34/188/21 116/175/63 114/192/22
f 110/35/34 8/193/80 113/36/35
f 72/17/16 50/169/66 27/18/17
f 53/100/89 126/99/88 112/178/31
f 79/46/44 33/95/45 97/116/100
f 6/194/125 71/132/87 44/157/117
f 104/179/120 103/84/77 94/86/79
f 72/17/16 43/76/70 17/77/71
f 70/34/33 113/36/35 43/76/70
f 25/97/86 120/10/9 45/12/11
f 91/5/5 22/4/4 62/195/122
f 106/131/109 48/102/90 10/88/81
f 67/50/46 117/1/1 88/43/42
f 18/183/85 37/85/78 13/196/38
f 125/112/97 51/149/114 100/152/115
f 66/37/36 2/107/69 68/40/39
f 21/182/60 94/86/79 39/184/124
f 24/186/29 102/143/113 125/112/97
f 28/113/98 32/66/61 21/65/60
f 1/187/56 107/197/40 6/198/125
f 125/112/97 102/143/113 109/83/76
f 81/199/106 19/92/84 80/200/65
f 92/42/41 15/108/94 67/50/46
f 56/44/43 79/46/44 99/117/101
f 112/32/31 73/139/23 70/141/33
f 25/180/86 84/201/126 76/89/58
f 105/123/103 59/134/110 95/167/55
f 60/202/54 61/203/82 77/158/118
f 40/29/28 118/28/27 12/74/68
f 40/29/28 12/74/68 99/117/101
f 82/11/10 120/10/9 117/1/1
f 95/204/55 60/202/54 77/158/118
f 100/152/115 122/129/108 11/163/95
f 25/205/86 16/110/93 47/206/107
f 59/134/110 58/54/50 36/189/59
f 47/128/107 11/163/95 122/129/108
f 51/149/114 122/129/108 100/152/115
f 58/54/50 59/134/110 105/123/103
f 44/157/117 1/187/56 6/198/125
f 78/111/96 16/110/93 104/179/120
f 36/64/59 76/63/58 85/82/75
f 98/31/30 53/207/89 112/32/31
f 69/67/62 125/112/97 100/152/115
f 30/33/32 112/32/31 70/141/33
f 61/203/82 108/26/25 90/25/24
f 4/7/3 29/9/8 82/106/10
f 94/86/79 100/208/115 55/137/111
f 97/116/100 19/92/84 99/117/101
f 111/78/72 87/209/104 64/79/73
f 28/210/98 2/75/69 12/74/68
f 33/48/45 115/13/12 110/49/34
f 111/125/72 3/156/116 105/123/103
f 34/22/21 73/24/23 112/178/31
f 36/189/59 58/54/50 121/56/52
f 98/161/30 92/42/41 101/151/105
f 49/51/47 119/144/53 95/211/55
f 61/203/82 81/127/106 108/26/25
f 5/145/92 27/71/17 54/73/67
f 41/91/83 61/90/82 60/58/54
f 6/212/125 88/43/42 71/98/87
f 98/31/30 30/33/32 86/190/119
f 101/151/105 92/42/41 107/41/40
f 114/213/22 116/68/63 63/191/121
f 1/187/56 111/125/72 96/214/57
f 46/101/20 53/100/89 20/114/99
f 60/58/54 40/29/28 41/91/83
f 19/92/84 41/91/83 99/117/101
f 17/77/71 113/36/35 8/193/80
f 28/113/98 12/215/68 118/80/27
f 85/82/75 84/216/126 122/129/108
f 85/82/75 51/149/114 109/83/76
f 104/179/120 94/86/79 35/138/112
f 76/63/58 84/216/126 85/82/75
f 120/10/9 71/98/87 88/43/42
f 44/157/117 71/132/87 106/131/109
f 39/184/124 94/86/79 18/183/85
f 61/203/82 90/25/24 77/158/118
f 4/7/3 54/73/67 14/8/7
f 88/43/42 117/1/1 120/10/9
f 19/92/84 81/199/106 61/90/82
f 80/70/65 123/69/64 108/26/25
f 57/176/123 42/119/26 123/177/64
f 42/119/26 34/188/21 74/20/19
f 6/212/125 107/41/40 88/43/42
f 29/9/8 14/8/7 103/217/77
f 72/17/16 17/77/71 91/5/5
f 63/170/121 97/116/100 33/95/45
f 69/67/62 32/66/61 125/112/97
f 25/218/86 45/154/11 16/105/93
f 89/81/74 125/112/97 32/66/61
f 104/165/120 29/9/8 103/217/77
f 41/91/83 40/29/28 99/117/101
f 62/172/122 13/196/38 37/85/78
f 64/79/73 65/120/102 96/61/57
f 47/206/107 16/110/93 11/109/95
f 48/102/90 25/180/86 76/89/58
f 17/77/71 52/6/6 91/5/5
f 80/200/65 19/92/84 63/170/121
f 77/158/118 90/25/24 87/159/104
f 2/219/69 28/113/98 21/65/60
f 49/51/47 26/53/49 102/143/113
f 98/161/30 15/108/94 92/42/41
f 22/136/4 13/39/38 62/220/122
f 124/147/15 30/33/32 70/141/33
f 15/108/94 86/162/119 5/104/92
f 25/130/86 122/129/108 84/216/126
f 58/54/50 10/88/81 9/55/51
f 119/57/53 24/30/29 60/58/54
f 5/146/92 30/33/32 124/147/15
f 95/167/55 59/134/110 49/133/47
f 54/73/67 7/103/91 62/174/122
f 9/55/51 76/89/58 121/56/52
f 26/53/49 109/83/76 102/143/113
f 14/8/7 62/174/122 103/217/77
f 111/125/72 44/157/117 3/156/116
f 21/182/60 69/221/62 94/86/79
f 107/41/40 1/222/56 46/150/20
f 24/186/29 125/112/97 118/80/27
