# Blender 4.3.2
# www.blender.org
o Plane.003
v -3.020098 -0.000000 -4.904835
v -3.020098 2.000000 -4.904835
v -2.819878 -0.000003 -6.894788
v -2.819878 2.000000 -6.894788
v -1.030146 -0.000000 -4.704614
v -1.030146 2.000000 -4.704614
v -0.829925 -0.000003 -6.694567
v -0.829925 2.000000 -6.694567
vn -0.9950 -0.0000 -0.1001
vn 0.1001 -0.0000 -0.9950
vn 0.9950 -0.0000 0.1001
vn -0.1001 -0.0000 0.9950
vn -0.0000 -1.0000 -0.0000
vn -0.0000 1.0000 -0.0000
vt 0.250000 0.500001
vt 0.000000 0.500000
vt 0.000000 0.250000
vt -0.000000 0.000000
vt 0.250000 0.000000
vt 0.250000 0.250000
vt 0.250000 0.000000
vt 0.500000 -0.000000
vt 0.500000 0.250000
vt 1.000000 0.250000
vt 0.750000 0.250000
vt 0.750000 0.000000
vt 0.500000 0.500000
vt 0.250000 0.500000
vt 0.250000 0.250000
vt 0.750000 0.000000
vt 0.750000 0.250000
vt 0.500000 0.250000
vt 0.250000 0.250000
vt -0.000000 0.250000
vt 0.250000 0.250000
vt 1.000000 0.000000
vt 0.500000 -0.000000
s 1
f 3/1/1 1/2/1 2/3/1
f 7/4/2 3/5/2 4/6/2
f 5/7/3 7/8/3 8/9/3
f 1/10/4 5/11/4 6/12/4
f 1/13/5 3/14/5 7/15/5
f 8/16/6 4/17/6 2/18/6
f 3/1/1 2/3/1 4/19/1
f 7/4/2 4/6/2 8/20/2
f 5/7/3 8/9/3 6/21/3
f 1/10/4 6/12/4 2/22/4
f 1/13/5 7/15/5 5/9/5
f 8/16/6 2/18/6 6/23/6
