# Blender 4.3.2
# www.blender.org
o Suzanne
v 1.243964 2.828291 -2.986978
v -0.193651 2.903146 -2.313691
v 1.305794 2.649279 -3.103001
v -0.337195 2.734828 -2.333529
v 1.311500 2.500837 -3.275272
v -0.485519 2.594406 -2.433663
v 1.037952 2.416072 -3.012605
v -0.117275 2.476224 -2.471570
v 1.099791 2.580800 -2.898878
v -0.055435 2.640951 -2.357843
v 1.121709 2.795053 -2.875900
v -0.033518 2.855205 -2.334865
v 0.997437 2.865041 -2.814096
v 0.098928 2.911825 -2.393291
v 0.858328 2.714427 -2.792943
v 0.190863 2.749181 -2.480345
v 0.721516 2.585361 -2.869756
v 0.208082 2.612095 -2.629296
v 0.554358 2.909401 -2.927772
v 0.297640 2.922768 -2.807541
v 0.720367 2.966518 -2.847601
v 0.258276 2.990579 -2.631187
v 0.927529 2.997580 -2.844130
v 0.131706 3.039018 -2.471417
v 0.958450 3.137759 -2.927663
v 0.059940 3.184543 -2.506858
v 0.787779 3.207917 -2.998444
v 0.120315 3.242671 -2.685846
v 0.630546 3.221704 -3.134745
v 0.117112 3.248438 -2.894285
v 0.909851 3.312147 -3.385753
v -0.245376 3.372298 -2.844718
v 0.999538 3.282075 -3.190907
v -0.155688 3.342227 -2.649872
v 1.067869 3.171664 -3.032730
v -0.087357 3.231816 -2.491695
v 1.204977 3.101009 -3.100545
v -0.232639 3.175865 -2.427258
v 1.235246 3.142770 -3.308502
v -0.407744 3.228319 -2.539031
v 1.220529 3.137179 -3.540262
v -0.576490 3.230749 -2.698652
v 1.383788 2.794474 -3.488498
v -0.669948 2.901411 -2.526659
v 1.361694 2.879321 -3.277164
v -0.486669 2.975563 -2.411508
v 1.270985 2.949805 -3.076764
v -0.269317 3.030007 -2.355384
v 1.295334 2.960494 -3.059455
v -0.270640 3.042032 -2.326052
v 1.227469 3.124685 -3.088644
v -0.235818 3.200877 -2.403333
v 1.081426 3.214673 -3.008565
v -0.073801 3.274825 -2.467531
v 0.961027 3.168449 -2.892079
v 0.088189 3.213897 -2.483297
v 0.919127 3.015952 -2.797126
v 0.174647 3.054717 -2.448459
v 1.003728 2.869758 -2.767696
v 0.130890 2.915206 -2.358914
v 1.130257 3.010937 -2.881650
v -0.024970 3.071089 -2.340615
v 1.142692 2.786116 -2.830103
v -0.012535 2.846268 -2.289068
v 1.270170 2.825993 -2.964261
v -0.193118 2.902185 -2.278951
v 0.444764 3.290227 -2.869185
v 0.520895 3.217146 -2.698504
v 0.702636 1.440454 -2.112917
v 0.651775 2.071908 -2.291721
v 0.631727 2.304037 -2.360336
v 0.713401 1.273257 -2.071342
v 0.346716 3.149053 -3.062845
v 0.284702 3.399057 -3.223052
v -0.616461 3.132462 -5.117592
v -0.761136 2.352575 -5.339798
v -0.626905 1.551456 -4.964117
v -0.168075 1.144626 -3.939185
v 0.792762 2.116303 -2.866441
v 0.125298 2.151057 -2.553843
v 1.037630 1.697054 -2.765887
v 0.010761 1.750522 -2.284967
v 1.163074 1.265155 -2.617482
v 0.007848 1.325307 -2.076448
v 1.206377 0.910761 -2.552608
v -0.000193 0.973586 -1.987527
v 1.149437 0.817518 -2.496355
v 0.071225 0.873660 -1.991389
v 0.934151 0.813971 -2.319272
v 0.343702 0.844716 -2.042743
v 0.659910 0.820406 -2.135211
v 1.143672 2.151458 -3.125874
v -0.293944 2.226313 -2.452586
v 1.446190 2.309253 -3.334805
v -0.633218 2.417526 -2.360942
v 1.653450 2.536080 -3.754805
v -1.067750 2.677770 -2.480367
v 1.747333 3.108816 -3.751993
v -1.076554 3.255853 -2.429464
v 1.513483 3.235135 -3.628990
v -0.822643 3.356775 -2.534897
v 1.172283 3.494076 -3.448505
v -0.445034 3.578288 -2.691057
v 0.887303 3.802582 -3.354450
v -0.165237 3.857387 -2.861508
v 0.644303 3.768720 -3.166189
v 0.130869 3.795455 -2.925729
v 0.538355 3.394451 -2.948880
v 0.332982 3.405145 -2.852696
v 0.741057 3.272933 -2.937970
v 0.201951 3.301003 -2.685487
v 0.697112 3.088784 -2.843861
v 0.286365 3.110171 -2.651494
v 0.858328 2.714427 -2.792943
v 0.190863 2.749181 -2.480345
v 1.130499 2.541464 -2.929417
v -0.101743 2.605626 -2.352313
v 1.288871 2.586644 -3.098678
v -0.328446 2.670857 -2.341229
v 1.460106 2.766032 -3.322381
v -0.593630 2.872968 -2.360541
v 1.459787 2.946507 -3.410115
v -0.645293 3.056117 -2.424230
v 1.388555 3.091072 -3.410817
v -0.588166 3.193998 -2.485046
v 1.131610 3.249418 -3.240206
v -0.280334 3.322937 -2.578941
v 0.857742 3.345129 -3.065272
v 0.036247 3.387904 -2.680537
v 0.723058 1.297601 -2.053430
v 0.891621 1.366164 -2.170038
v 0.532217 1.384878 -2.001717
v 0.915035 1.153661 -2.129911
v 0.529959 1.173712 -1.949566
v 0.824810 1.069063 -2.078703
v 0.619436 1.079757 -1.982519
v 0.718223 1.055745 -2.036864
v 0.599044 2.256979 -2.424889
v 0.580292 2.342206 -2.474405
v 0.749014 2.320531 -2.547147
v 0.415282 2.337908 -2.390848
v 0.811844 2.194339 -2.499442
v 0.401096 2.215726 -2.307074
v 0.756760 2.088109 -2.437781
v 0.474371 2.102813 -2.305528
v 1.160833 2.412853 -2.950829
v -0.148425 2.481024 -2.337656
v 1.461562 2.528893 -3.259415
v -0.566503 2.634492 -2.309598
v 1.588720 2.749245 -3.481307
v -0.798749 2.873559 -2.363169
v 1.613844 3.073363 -3.530684
v -0.824968 3.200350 -2.388499
v 1.566519 3.194082 -3.410701
v -0.692591 3.311712 -2.352678
v 1.176020 3.487348 -3.205327
v -0.261596 3.562203 -2.532039
v 0.977151 3.682273 -3.115737
v -0.049717 3.735741 -2.634817
v 0.814532 3.664027 -2.992032
v 0.147067 3.698781 -2.679434
v 0.686466 3.355359 -2.795752
v 0.352734 3.372736 -2.639453
v 0.828192 2.447553 -2.492687
v 0.417444 2.468940 -2.300319
v 0.976238 1.794970 -2.472446
v 0.283102 1.831061 -2.147826
v 1.084414 1.346035 -2.359022
v 0.262919 1.388810 -1.974287
v 1.120664 1.132864 -2.324907
v 0.247826 1.178312 -1.916125
v 1.068572 0.956985 -2.282606
v 0.298421 0.997086 -1.921916
v 0.956763 0.937027 -2.217687
v 0.417657 0.965097 -1.965204
v 0.696679 0.930767 -2.068969
v 0.524221 2.642527 -2.627516
v 0.514017 2.943638 -2.682782
v 0.972731 3.340075 -3.154116
v -0.105481 3.396217 -2.649150
v 0.788766 2.801366 -2.783672
v 0.249660 2.829437 -2.531189
v 0.726470 2.926598 -2.796638
v 0.290051 2.949322 -2.592247
v 0.897030 1.417442 -2.197682
v 0.511955 1.437492 -2.017337
v 0.786812 1.834725 -2.311950
v 0.530095 1.848092 -2.191720
v 0.658453 1.841408 -2.251835
v 0.624848 2.030528 -2.344615
v 0.794666 2.141807 -2.396307
v 0.486605 2.157847 -2.252031
v 0.859219 2.227742 -2.435492
v 0.422800 2.250466 -2.231101
v 0.786920 2.374229 -2.505673
v 0.427516 2.392942 -2.337351
v 0.669540 2.393230 -2.456977
v 0.541182 2.399914 -2.396863
v 0.658466 2.300778 -2.302880
v 0.710972 2.376317 -2.400125
v 0.556942 2.384337 -2.327986
v 0.789844 2.359320 -2.430785
v 0.481783 2.375360 -2.286510
v 0.843738 2.252461 -2.370817
v 0.484334 2.271175 -2.202495
v 0.780694 2.199139 -2.365527
v 0.523977 2.212506 -2.245297
v 0.661618 2.140890 -2.278373
v 0.906561 1.898161 -2.833654
v 0.059395 1.942272 -2.436895
v 0.850953 2.136631 -2.576984
v 0.311847 2.164702 -2.324501
v 0.893334 2.018415 -2.540336
v 0.302884 2.049160 -2.263807
v 0.853201 2.004059 -2.858883
v 0.083050 2.044160 -2.498194
v 0.714510 1.081718 -2.047680
v 0.789669 1.090694 -2.089157
v 0.635638 1.098715 -2.017019
v 0.872814 1.181639 -2.122693
v 0.564754 1.197680 -1.978417
v 0.865762 1.322862 -2.153452
v 0.557701 1.338903 -2.009176
v 0.669205 1.214843 -2.159216
v 0.821566 1.264447 -2.241325
v 0.513505 1.280488 -2.097049
v 0.819149 1.143519 -2.233042
v 0.511088 1.159559 -2.088766
v 0.745660 1.076918 -2.181594
v 0.591629 1.084938 -2.109456
v 0.670501 1.067941 -2.140117
v 0.806062 2.953278 -2.797122
v 0.241285 2.982686 -2.532617
v 0.840830 2.842370 -2.777542
v 0.224709 2.874451 -2.488990
v 1.008219 3.272845 -3.104359
v -0.095664 3.330323 -2.587370
v 0.918902 3.276562 -3.027539
v 0.020392 3.323347 -2.606734
v 1.168353 3.224904 -3.125533
v -0.217919 3.297086 -2.476292
v 1.352972 3.078168 -3.317894
v -0.495391 3.174411 -2.452239
v 1.400575 2.966592 -3.304326
v -0.524803 3.066845 -2.402601
v 1.404261 2.805743 -3.245079
v -0.495445 2.904659 -2.355377
v 1.288456 2.686985 -3.043733
v -0.277518 2.768524 -2.310331
v 1.148143 2.647777 -2.903563
v -0.084099 2.711938 -2.326460
v 0.921905 2.766788 -2.763492
v 0.177425 2.805552 -2.414825
v 0.800333 3.082476 -2.857213
v 0.209884 3.113220 -2.580685
v 0.833111 3.209668 -2.935339
v 0.139975 3.245759 -2.610718
v 0.858062 3.164654 -2.977538
v 0.087911 3.204755 -2.616848
v 0.808735 3.064103 -2.904217
v 0.166942 3.097521 -2.603642
v 0.926594 2.774388 -2.821311
v 0.130771 2.815826 -2.448598
v 1.131060 2.675379 -2.943108
v -0.101182 2.739541 -2.366004
v 1.247558 2.702938 -3.065847
v -0.267072 2.781804 -2.356490
v 1.343448 2.828711 -3.243509
v -0.453571 2.922280 -2.401900
v 1.339575 2.944922 -3.298192
v -0.483116 3.039828 -2.444560
v 1.293828 3.043511 -3.306353
v -0.451848 3.134408 -2.488789
v 1.140104 3.195550 -3.149095
v -0.220497 3.266395 -2.511876
v 0.931551 3.231256 -3.028987
v 0.007369 3.279377 -2.596159
v 1.008032 3.228206 -3.099795
v -0.095851 3.285685 -2.582807
v 0.845519 2.849971 -2.835362
v 0.178054 2.884725 -2.522764
v 0.819687 2.941545 -2.867206
v 0.177895 2.974963 -2.566631
v 0.519178 3.236281 -3.173201
v 0.159775 3.254995 -3.004879
v 0.617859 3.572259 -3.368274
v -0.023933 3.605676 -3.067699
v 0.826066 3.582152 -3.527685
v -0.277818 3.639631 -3.010696
v 1.072725 3.320289 -3.608269
v -0.518921 3.403165 -2.862844
v 1.371704 3.089326 -3.781535
v -0.861735 3.205620 -2.735535
v 1.552354 2.978667 -3.885901
v -1.066160 3.115011 -2.659555
v 1.508077 2.515625 -3.828482
v -1.033422 2.647958 -2.638206
v 1.293459 2.286003 -3.524361
v -0.683263 2.388929 -2.598591
v 1.086480 2.183949 -3.251603
v -0.351135 2.258804 -2.578315
v -0.000509 3.740066 -3.869953
v -0.291489 3.616027 -4.477468
v -0.448651 1.223483 -4.547043
v 0.247693 1.406580 -3.080553
v 0.571705 0.748214 -2.315522
v 0.444512 0.948741 -2.609399
v 0.371546 1.321303 -2.806618
v 0.322342 1.435762 -2.924407
v 1.383708 2.393000 -4.415336
v -1.414508 2.538701 -3.104830
v 1.301286 2.461363 -4.632417
v -1.522601 2.608400 -3.309888
v 0.885259 2.093881 -5.111444
v -1.656240 2.226215 -3.921168
v 0.135258 2.213249 -5.386405
v -1.379372 2.292115 -4.677049
v 1.269518 1.946865 -4.107157
v -1.143622 2.072515 -2.976996
v 0.884341 1.658673 -4.294676
v -1.066708 1.760263 -3.380929
v 0.737785 1.656391 -4.808311
v -1.367295 1.766001 -3.822425
v 0.049638 1.615993 -4.966931
v -1.054246 1.673471 -4.449943
v 0.767961 1.727341 -3.010123
v -0.002190 1.767442 -2.649434
v 0.583588 1.520234 -3.146323
v -0.006861 1.550978 -2.869794
v 0.925943 1.108244 -2.838419
v -0.023910 1.157702 -2.393568
v 0.817394 1.467902 -2.942716
v -0.004101 1.510676 -2.557980
v 1.049906 0.778608 -2.704550
v -0.028306 0.834749 -2.199584
v 0.681688 1.031666 -2.715073
v 0.219597 1.055727 -2.498660
v 0.598277 1.390948 -2.866133
v 0.187529 1.412336 -2.673765
v 0.816562 0.769090 -2.498375
v 0.277456 0.797160 -2.245893
v 0.742850 1.862592 -3.011791
v 0.024043 1.900020 -2.675148
v 0.745802 1.982559 -2.985335
v 0.052666 2.018650 -2.660714
v 0.742996 2.096848 -2.970538
v 0.075532 2.131602 -2.657940
v 0.560283 1.488378 -3.326515
v -0.132853 1.524469 -3.001894
v 0.366301 1.298572 -4.088031
v -0.609224 1.349366 -3.631157
v 0.202849 1.368531 -4.645773
v -0.926706 1.427346 -4.116762
v 0.256332 3.161000 -5.199763
v -1.232627 3.238529 -4.502430
v 0.471742 3.492035 -4.776620
v -1.017216 3.569564 -4.079286
v 0.714814 3.583632 -4.267793
v -0.774145 3.661161 -3.570459
v 0.949538 3.179491 -3.755166
v -0.565092 3.258357 -3.045810
v 1.344727 2.893826 -4.018360
v -1.042742 3.018139 -2.900222
v 1.139261 2.940016 -4.060291
v -0.940147 3.048289 -3.086429
v 0.925748 3.190240 -4.577502
v -1.179332 3.299850 -3.591617
v 1.267691 2.994222 -4.495448
v -1.350823 3.130565 -3.269102
v 1.076242 2.909093 -4.894769
v -1.542272 3.045436 -3.668423
v 0.730398 3.086446 -4.983076
v -1.374682 3.196056 -3.997190
v 0.562897 2.787853 -5.307530
v -1.542183 2.897463 -4.321645
v 0.916354 2.603192 -5.202155
v -1.702160 2.739536 -3.975810
v 0.504315 2.103248 -5.256021
v -1.523749 2.208848 -4.306205
v 0.387294 1.636526 -4.884615
v -1.204352 1.719402 -4.139190
v 1.120119 2.364120 -4.840971
v -1.575410 2.504474 -3.578557
v 0.817683 1.823936 -3.651545
v -0.517246 1.893445 -3.026350
v 0.596958 1.521758 -4.189724
v -0.814986 1.595277 -3.528460
v 1.194050 2.465257 -4.995795
v -1.732524 2.617641 -3.625174
v 1.212062 1.645721 -4.363824
v -1.329437 1.778054 -3.173548
v 1.489528 1.540287 -4.898419
v -1.924809 1.718069 -3.299361
v 1.775473 1.705479 -5.344517
v -2.434687 1.924699 -3.372746
v 1.833630 2.146686 -5.570830
v -2.607575 2.377936 -3.490853
v 1.596535 2.468390 -5.610449
v -2.459594 2.679589 -3.710816
v 1.337985 2.513988 -5.263264
v -2.025008 2.689096 -3.688252
v 1.357272 2.427800 -5.179008
v -1.980050 2.601571 -3.616019
v 1.559255 2.378235 -5.479067
v -2.342844 2.581414 -3.651572
v 1.711375 2.113449 -5.459752
v -2.447442 2.329995 -3.512027
v 1.671650 1.767490 -5.271657
v -2.307464 1.974679 -3.408093
v 1.479109 1.661884 -4.900691
v -1.909556 1.838329 -3.313656
v 1.279448 1.752243 -4.466236
v -1.441753 1.893934 -3.191799
v 1.268046 2.396021 -4.964073
v -1.761215 2.553752 -3.545360
v 1.267740 2.252003 -5.049193
v -1.838536 2.413744 -3.594411
v 1.300594 1.768699 -4.657366
v -1.600309 1.919746 -3.298768
v 1.436610 1.680720 -5.027023
v -1.977727 1.858502 -3.427965
v 1.600647 1.767075 -5.322740
v -2.301452 1.970254 -3.495244
v 1.640531 2.022797 -5.466967
v -2.415598 2.233996 -3.567334
v 1.517609 2.215634 -5.482926
v -2.333147 2.416140 -3.679477
v 1.335007 2.259145 -5.241290
v -2.027987 2.434253 -3.666278
v 1.162153 2.291504 -4.843626
v -1.610391 2.435868 -3.545143
v 1.131113 2.051945 -4.849777
v -1.615760 2.194972 -3.563317
v 1.021320 1.928763 -4.735583
v -1.468836 2.058423 -3.569352
v 1.125863 1.910429 -4.778267
v -1.569666 2.050783 -3.515852
v 1.181079 1.791545 -4.747630
v -1.591465 1.935909 -3.449147
v 1.137162 1.742272 -4.701952
v -1.532695 1.881289 -3.451561
v 1.141925 1.923239 -4.343477
v -1.245543 2.047553 -3.225338
v 1.059824 1.811127 -4.472824
v -1.301973 1.934103 -3.366708
v 1.033458 1.903662 -4.539408
v -1.328339 2.026639 -3.433292
v 1.105560 2.152661 -4.748070
v -1.512954 2.289005 -3.521725
v 1.210011 2.169824 -4.928869
v -1.716563 2.322208 -3.558248
v 1.171572 2.117088 -5.005082
v -1.755003 2.269472 -3.634461
v 1.102623 1.708201 -4.771914
v -1.567235 1.847218 -3.521522
v 1.159376 1.756805 -4.823603
v -1.638840 1.902506 -3.513096
v 1.106016 1.862703 -4.848832
v -1.615185 2.004394 -3.574394
v 0.999616 1.894023 -4.811555
v -1.516211 2.025020 -3.633302
v 1.109409 2.017205 -4.925750
v -1.663135 2.161569 -3.627266
v 1.324096 2.192086 -5.324119
v -2.090241 2.369867 -3.725060
v 1.512455 2.154253 -5.554094
v -2.389644 2.357432 -3.726599
v 1.646356 1.973734 -5.549555
v -2.486789 2.188943 -3.613853
v 1.612228 1.723691 -5.393667
v -2.366886 1.930880 -3.530102
v 1.409150 1.640302 -5.114656
v -2.030859 1.819420 -3.503575
v 1.258441 1.741935 -4.744395
v -1.642462 1.892983 -3.385797
v 1.243993 2.185611 -5.126011
v -1.887955 2.348689 -3.659205
v 1.195520 1.903624 -4.930215
v -1.731055 2.056008 -3.559594
v 1.277918 1.816016 -4.945497
v -1.802687 1.976420 -3.502738
v 1.342726 1.891847 -5.083493
v -1.943252 2.062945 -3.544550
v 1.278921 1.984466 -5.062563
v -1.878699 2.148880 -3.583735
v 1.336650 2.066644 -5.182888
v -2.000672 2.240416 -3.619898
v 1.406212 1.979704 -5.192158
v -2.059469 2.160160 -3.569053
v 1.484736 2.008307 -5.262122
v -2.160646 2.198119 -3.554857
v 1.431376 2.114205 -5.287352
v -2.136991 2.300007 -3.616155
v 1.220623 2.324127 -5.492748
v -2.142370 2.499236 -3.917736
v 1.539384 2.311263 -5.781995
v -2.568088 2.525136 -3.858316
v 1.807306 2.049604 -5.683231
v -2.685243 2.283528 -3.579208
v 1.751981 1.628985 -5.520145
v -2.560866 1.853551 -3.500283
v 1.364927 1.447011 -5.154099
v -2.049410 1.624793 -3.555041
v 1.084350 1.522715 -4.689828
v -1.508492 1.657722 -3.475505
v 1.038902 2.321078 -5.177069
v -1.784986 2.468115 -3.854539
vn 0.9200 0.0729 0.3851
vn 0.9199 0.0729 0.3853
vn 0.9179 0.0723 0.3901
vn -0.2841 0.1356 0.9492
vn -0.2843 0.1356 0.9491
vn -0.2792 0.1346 0.9507
vn 0.9801 -0.1292 0.1507
vn 0.9805 -0.1293 0.1482
vn 0.9796 -0.1291 0.1543
vn -0.5216 -0.0511 0.8517
vn -0.5194 -0.0511 0.8530
vn -0.5163 -0.0512 0.8548
vn 0.6595 -0.5654 0.4954
vn 0.6612 -0.5707 0.4869
vn 0.6576 -0.5598 0.5042
vn -0.0963 -0.5312 0.8417
vn -0.0882 -0.5264 0.8456
vn -0.0799 -0.5214 0.8496
vn 0.7083 -0.1686 0.6855
vn 0.7071 -0.1673 0.6870
vn 0.7220 -0.1831 0.6672
vn 0.0622 -0.1338 0.9891
vn 0.0601 -0.1348 0.9890
vn 0.0362 -0.1474 0.9884
vn 0.3400 -0.1568 0.9273
vn 0.3405 -0.1588 0.9267
vn 0.3349 -0.1343 0.9326
vn 0.4800 -0.1661 0.8614
vn 0.4809 -0.1641 0.8613
vn 0.4902 -0.1424 0.8599
vn 0.0560 -0.5735 0.8173
vn 0.0566 -0.5650 0.8231
vn 0.0555 -0.5813 0.8118
vn 0.5468 -0.5905 0.5936
vn 0.5419 -0.5988 0.5897
vn 0.5374 -0.6064 0.5861
vn -0.4287 -0.0537 0.9018
vn -0.4386 -0.0535 0.8971
vn -0.4503 -0.0532 0.8913
vn 0.9596 -0.1260 0.2516
vn 0.9623 -0.1264 0.2410
vn 0.9569 -0.1256 0.2619
vn -0.0491 0.1897 0.9806
vn -0.0489 0.1902 0.9805
vn -0.0510 0.1849 0.9814
vn 0.7989 0.1460 0.5835
vn 0.7990 0.1456 0.5834
vn 0.8004 0.1406 0.5827
vn -0.1086 0.5401 0.8345
vn -0.1110 0.5389 0.8350
vn -0.0959 0.5466 0.8319
vn 0.7566 0.4937 0.4287
vn 0.7548 0.4952 0.4302
vn 0.7452 0.5028 0.4379
vn -0.5136 0.5563 0.6533
vn -0.5115 0.5552 0.6558
vn -0.5088 0.5539 0.6590
vn 0.8751 0.4840 0.0029
vn 0.8756 0.4830 0.0062
vn 0.8746 0.4848 -0.0000
vn -0.1253 0.9681 0.2172
vn -0.1237 0.9662 0.2261
vn -0.1215 0.9637 0.2376
vn 0.3287 0.9444 0.0045
vn 0.3344 0.9424 0.0116
vn 0.3230 0.9464 -0.0026
vn 0.1708 0.8531 0.4930
vn 0.1706 0.8553 0.4893
vn 0.1690 0.8729 0.4577
vn 0.3418 0.8442 0.4128
vn 0.3393 0.8465 0.4102
vn 0.3556 0.8315 0.4268
vn 0.5692 0.7782 0.2653
vn 0.5673 0.7782 0.2695
vn 0.5510 0.7770 0.3044
vn -0.0927 0.8127 0.5753
vn -0.0883 0.8123 0.5765
vn -0.1184 0.8146 0.5678
vn 0.4723 0.8793 -0.0615
vn 0.4737 0.8778 -0.0707
vn 0.4757 0.8756 -0.0838
vn -0.2729 0.9181 0.2875
vn -0.2809 0.9171 0.2827
vn -0.2637 0.9191 0.2928
vn 0.9039 0.4216 -0.0718
vn 0.9034 0.4229 -0.0702
vn 0.9026 0.4252 -0.0676
vn -0.5945 0.4996 0.6300
vn -0.5929 0.5008 0.6306
vn -0.5968 0.4979 0.6292
vn 0.8722 0.4336 0.2265
vn 0.8725 0.4332 0.2261
vn 0.8828 0.4188 0.2126
vn -0.3447 0.4969 0.7964
vn -0.3452 0.4966 0.7964
vn -0.3322 0.5055 0.7963
vn 0.4564 0.0335 -0.8891
vn 0.5325 0.0965 -0.8409
vn 0.5445 0.1069 -0.8319
vn -0.9692 0.1077 -0.2215
vn -0.9753 0.1751 -0.1347
vn -0.9676 0.0991 -0.2322
vn -0.1415 0.5211 -0.8417
vn -0.1333 0.5379 -0.8324
vn -0.1313 0.5420 -0.8301
vn -0.5107 0.5403 -0.6688
vn -0.5073 0.5574 -0.6572
vn -0.5111 0.5378 -0.6705
vn -0.6692 0.5750 -0.4706
vn -0.6719 0.5265 -0.5209
vn -0.6721 0.5123 -0.5347
vn 0.1143 0.5342 -0.8376
vn 0.0734 0.4877 -0.8699
vn 0.1245 0.5455 -0.8288
vn -0.9704 0.1337 -0.2013
vn -0.9810 0.1627 -0.1057
vn -0.9823 0.1711 -0.0764
vn 0.4748 0.0585 -0.8781
vn 0.5574 0.0826 -0.8261
vn 0.4557 0.0530 -0.8886
vn -0.8724 -0.4853 0.0581
vn -0.8848 -0.4452 0.1376
vn -0.8682 -0.4947 0.0382
vn 0.6308 -0.5241 -0.5722
vn 0.5586 -0.5598 -0.6120
vn 0.5398 -0.5680 -0.6212
vn -0.4617 -0.8769 0.1340
vn -0.4709 -0.8798 0.0648
vn -0.4590 -0.8755 0.1512
vn 0.2744 -0.9186 -0.2843
vn 0.3219 -0.9177 -0.2330
vn 0.3335 -0.9167 -0.2199
vn 0.0721 -0.9729 -0.2196
vn 0.0831 -0.9758 -0.2020
vn 0.0705 -0.9725 -0.2221
vn -0.2909 -0.9564 -0.0269
vn -0.2971 -0.9537 -0.0467
vn -0.2980 -0.9533 -0.0495
vn 0.5284 -0.5567 -0.6410
vn 0.6159 -0.5491 -0.5650
vn 0.5155 -0.5572 -0.6510
vn -0.8719 -0.4716 0.1318
vn -0.8751 -0.4836 0.0163
vn -0.8746 -0.4848 -0.0000
vn 0.5656 0.3799 0.7320
vn 0.7144 0.2482 0.6542
vn 0.7345 0.3460 0.5838
vn 0.0093 0.3837 0.9234
vn 0.0678 0.2819 0.9570
vn 0.2334 0.3972 0.8876
vn 0.6010 0.2101 0.7712
vn 0.2264 0.2296 0.9466
vn 0.4324 0.2991 0.8506
vn 0.4022 0.3006 0.8648
vn 0.3486 0.4016 0.8469
vn 0.4614 0.3957 0.7940
vn 0.4108 0.4921 0.7675
vn 0.3687 0.4943 0.7872
vn 0.5562 0.5314 0.6390
vn 0.1810 0.5509 0.8147
vn 0.6821 0.4565 0.5712
vn 0.0425 0.4898 0.8708
vn 0.4964 -0.4489 0.7430
vn 0.3201 -0.5813 0.7481
vn 0.4654 -0.6207 0.6310
vn 0.2152 -0.4343 0.8747
vn 0.3577 -0.4568 0.8145
vn 0.4912 -0.6188 0.6130
vn 0.5020 -0.6251 0.5978
vn 0.1044 -0.5987 0.7941
vn 0.1345 -0.6034 0.7860
vn 0.8581 -0.2014 0.4724
vn 0.8667 -0.1652 0.4706
vn 0.8494 -0.2331 0.4734
vn -0.2051 -0.1094 0.9726
vn -0.2013 -0.1462 0.9686
vn -0.1977 -0.1786 0.9639
vn 0.9477 0.2485 0.2002
vn 0.9597 0.1761 0.2188
vn 0.9650 0.1565 0.2106
vn -0.4283 0.2484 0.8688
vn -0.4287 0.3201 0.8448
vn -0.4395 0.2296 0.8684
vn 0.9491 0.2842 0.1361
vn 0.9477 0.2575 0.1883
vn -0.4370 0.3296 0.8369
vn -0.4757 0.3584 0.8033
vn 0.5933 -0.5765 0.5618
vn 0.6285 -0.4889 0.6050
vn 0.6120 -0.6198 0.4913
vn 0.0220 -0.4573 0.8891
vn 0.0038 -0.5458 0.8379
vn -0.0658 -0.5845 0.8087
vn 0.7101 -0.3364 0.6185
vn 0.6059 -0.4697 0.6420
vn -0.0067 -0.2991 0.9542
vn -0.0173 -0.2252 0.9742
vn 0.9187 -0.1807 0.3511
vn 0.9227 -0.1677 0.3470
vn 0.9203 -0.1830 0.3456
vn -0.3357 -0.1021 0.9364
vn -0.3312 -0.1156 0.9364
vn -0.3366 -0.1176 0.9343
vn 0.9280 -0.1538 0.3395
vn 0.9223 -0.1671 0.3485
vn -0.1464 0.0648 0.9871
vn 0.5975 0.6533 0.4650
vn -0.6131 0.5447 0.5723
vn 0.6556 0.7549 0.0195
vn 0.6052 0.7960 0.0055
vn 0.6054 0.7959 0.0026
vn -0.3380 0.8066 0.4848
vn -0.3132 0.8439 0.4356
vn -0.3517 0.7997 0.4866
vn 0.7298 0.6824 0.0420
vn 0.6650 0.7467 0.0104
vn -0.3742 0.7399 0.5591
vn 0.1777 0.9069 0.3819
vn 0.1779 0.9073 0.3811
vn 0.1758 0.9041 0.3895
vn 0.2569 0.9028 0.3448
vn 0.2562 0.9032 0.3444
vn 0.2475 0.9073 0.3399
vn -0.4263 0.6615 0.6169
vn -0.4368 0.5601 0.7039
vn -0.4147 0.5419 0.7311
vn 0.8006 0.5977 0.0423
vn 0.8653 0.4923 0.0941
vn 0.7720 0.6354 0.0136
vn -0.3663 0.7696 0.5231
vn -0.4269 0.6979 0.5751
vn 0.6997 0.7141 0.0238
vn 0.6810 0.7323 0.0098
vn 0.7803 -0.3625 0.5096
vn -0.1267 0.0416 0.9911
vn 0.6070 -0.0969 0.7887
vn 0.6085 -0.0976 0.7875
vn 0.6095 -0.0981 0.7867
vn 0.2079 -0.0768 0.9751
vn 0.2098 -0.0763 0.9748
vn 0.2067 -0.0771 0.9754
vn 0.3383 -0.1629 0.9268
vn 0.3481 -0.1592 0.9238
vn 0.3528 -0.1999 0.9141
vn 0.4812 -0.1703 0.8599
vn 0.4730 -0.1657 0.8654
vn 0.5111 -0.1199 0.8512
vn 0.3191 -0.5522 0.7702
vn 0.2703 -0.4679 0.8414
vn 0.2910 -0.5036 0.8135
vn 0.4752 -0.2049 0.8557
vn 0.4590 -0.2054 0.8644
vn 0.5302 0.1494 0.8346
vn 0.4708 0.2361 0.8500
vn 0.5266 0.1549 0.8359
vn 0.2915 -0.5890 0.7537
vn 0.3954 -0.5090 0.7646
vn 0.3402 -0.5533 0.7604
vn 0.7683 0.2299 0.5974
vn 0.8312 0.3047 0.4651
vn 0.7862 0.2121 0.5805
vn 0.2676 0.0958 0.9588
vn 0.3186 0.1657 0.9333
vn 0.3150 0.1606 0.9354
vn 0.7198 0.1646 0.6744
vn 0.7015 0.1101 0.7041
vn 0.0727 0.1983 0.9774
vn -0.0375 0.2550 0.9662
vn -0.0116 0.2705 0.9627
vn 0.7580 0.0791 0.6475
vn 0.7697 0.0760 0.6338
vn 0.0205 0.1175 0.9929
vn 0.1025 0.1413 0.9846
vn 0.6265 0.5503 0.5520
vn -0.0622 0.1396 0.9883
vn 0.0023 0.1160 0.9932
vn 0.1722 0.7276 0.6640
vn 0.4613 0.7126 0.5286
vn 0.9271 -0.0304 0.3735
vn 0.2414 -0.1053 0.9647
vn 0.2059 -0.0214 0.9783
vn 0.2086 -0.0277 0.9776
vn 0.4669 0.3241 0.8228
vn 0.4214 0.2483 0.8722
vn 0.4673 0.3206 0.8239
vn 0.3610 0.3296 0.8724
vn 0.3614 0.3261 0.8735
vn 0.4179 0.2303 0.8788
vn 0.4246 0.1866 0.8859
vn 0.4272 0.2298 0.8745
vn 0.5066 -0.2943 0.8104
vn 0.2736 -0.2822 0.9195
vn 0.5897 -0.2031 0.7817
vn 0.5191 -0.2332 0.8223
vn 0.2064 -0.1832 0.9612
vn 0.2800 -0.2207 0.9343
vn 0.6888 0.1388 0.7115
vn 0.6935 0.1051 0.7128
vn 0.6875 0.2480 0.6825
vn 0.1187 0.1685 0.9785
vn 0.1138 0.1353 0.9842
vn 0.1177 0.0011 0.9930
vn 0.6488 0.3841 0.6569
vn 0.6796 0.3139 0.6630
vn 0.6905 0.2735 0.6696
vn 0.1023 0.3439 0.9334
vn 0.1232 0.4114 0.9031
vn 0.0970 0.3044 0.9476
vn 0.1066 0.2783 0.9546
vn 0.3978 0.4505 0.7993
vn 0.4018 0.3959 0.8257
vn 0.3774 0.4474 0.8108
vn 0.4109 0.3955 0.8215
vn 0.4057 0.4002 0.8217
vn 0.4099 0.3688 0.8343
vn 0.4077 0.3708 0.8344
vn 0.4116 0.3706 0.8326
vn 0.7787 -0.6019 -0.1769
vn 0.8157 -0.5590 -0.1489
vn 0.8519 -0.5102 -0.1180
vn -0.6810 -0.4811 0.5521
vn -0.6826 -0.5258 0.5075
vn -0.6762 -0.4307 0.5977
vn 0.7334 0.0559 -0.6775
vn 0.7493 0.1026 -0.6543
vn 0.7599 0.1382 -0.6352
vn -0.9697 0.1921 0.1508
vn -0.9814 0.1452 0.1257
vn -0.9588 0.2277 0.1698
vn -0.2181 0.6569 -0.7218
vn -0.2002 0.6690 -0.7158
vn -0.2294 0.6490 -0.7254
vn -0.3584 0.6642 -0.6561
vn -0.3642 0.6775 -0.6390
vn -0.3690 0.6887 -0.6241
vn -0.9046 0.0471 0.4237
vn 0.7388 0.6700 -0.0729
vn 0.7437 0.6585 -0.1150
vn 0.7380 0.6715 -0.0668
vn 0.5983 -0.7207 0.3501
vn 0.5714 -0.7526 0.3272
vn 0.5581 -0.7672 0.3161
vn -0.1739 -0.6805 0.7118
vn -0.1771 -0.7137 0.6777
vn -0.1726 -0.6666 0.7252
vn 0.6667 -0.2199 0.7122
vn 0.6460 -0.2329 0.7270
vn 0.1027 -0.1905 0.9763
vn 0.1261 -0.2058 0.9704
vn -0.4691 0.7329 0.4928
vn -0.4153 0.7437 0.5239
vn -0.4638 0.7341 0.4960
vn 0.7293 0.6841 -0.0122
vn 0.2401 0.9605 0.1407
vn 0.2359 0.9589 0.1579
vn 0.2300 0.9561 0.1814
vn 0.0526 0.9684 0.2438
vn 0.0368 0.9711 0.2359
vn 0.0741 0.9643 0.2544
vn 0.8841 0.4643 0.0525
vn 0.8844 0.4649 0.0407
vn 0.8839 0.4640 0.0579
vn -0.4830 0.5355 0.6928
vn -0.4922 0.5366 0.6854
vn -0.4975 0.5371 0.6812
vn 0.6916 -0.2035 0.6930
vn 0.6667 -0.2199 0.7121
vn 0.0736 -0.1713 0.9825
vn 0.4051 0.5979 0.6917
vn 0.4054 0.5981 0.6913
vn 0.4086 0.6006 0.6872
vn 0.3233 0.6021 0.7300
vn 0.3227 0.6025 0.7300
vn 0.3317 0.5971 0.7304
vn 0.2791 -0.2378 0.9303
vn 0.5151 -0.2500 0.8198
vn -0.1183 0.4334 0.8934
vn 0.7970 0.3857 0.4647
vn -0.2125 -0.2702 0.9391
vn 0.8320 -0.3245 0.4499
vn 0.8417 -0.1327 0.5233
vn 0.0819 0.4352 0.8966
vn 0.0716 0.4595 0.8853
vn 0.0926 0.4458 0.8904
vn 0.6488 0.3865 0.6555
vn 0.6615 0.4161 0.6239
vn 0.6721 0.4045 0.6202
vn 0.1224 0.4139 0.9021
vn 0.8387 0.5445 -0.0062
vn -0.6391 0.4696 0.6091
vn -0.6412 0.4048 0.6519
vn -0.6564 0.4077 0.6347
vn 0.8936 0.4181 -0.1631
vn 0.9391 0.3246 -0.1125
vn 0.9137 0.3887 -0.1182
vn -0.6583 0.4989 0.5637
vn -0.6787 0.4178 0.6040
vn 0.8673 0.4531 -0.2062
vn 0.9306 0.3340 -0.1497
vn -0.6715 0.5332 0.5145
vn 0.5775 -0.0324 0.8157
vn 0.0604 -0.6070 0.7924
vn 0.3031 0.2231 0.9265
vn 0.2632 0.2077 0.9421
vn 0.3054 0.2219 0.9260
vn 0.5722 0.1916 0.7974
vn 0.5362 0.2110 0.8173
vn 0.5343 0.2100 0.8188
vn -0.0417 0.3790 0.9245
vn 0.7674 0.3369 0.5455
vn -0.1573 0.9849 -0.0719
vn 0.1290 0.9700 -0.2060
vn -0.6610 0.7380 0.1355
vn -0.6636 0.7359 0.1342
vn -0.5956 0.7858 0.1665
vn 0.5880 0.6708 -0.4520
vn 0.5876 0.6730 -0.4492
vn 0.5737 0.7249 -0.3812
vn 0.9046 -0.0471 -0.4237
vn 0.4476 -0.8319 0.3279
vn -0.1045 -0.8032 0.5865
vn 0.4262 0.1087 0.8980
vn 0.4740 0.0998 0.8749
vn 0.4798 0.0840 0.8734
vn 0.3773 0.1048 0.9201
vn 0.3711 0.0896 0.9242
vn 0.5443 0.0465 0.8376
vn 0.2995 0.0592 0.9523
vn -0.0810 0.1917 0.9781
vn -0.0798 0.0050 0.9968
vn -0.0632 0.2063 0.9765
vn 0.8153 -0.0416 0.5776
vn 0.8176 0.1449 0.5573
vn 0.8062 0.1610 0.5693
vn 0.1666 0.4414 0.8817
vn 0.1416 0.4226 0.8952
vn 0.1415 0.4593 0.8769
vn 0.6320 0.3971 0.6655
vn 0.6074 0.4185 0.6753
vn 0.6212 0.4343 0.6523
vn 0.2171 0.4219 0.8803
vn 0.2455 0.3940 0.8857
vn 0.5724 0.4034 0.7139
vn -0.0206 -0.1222 0.9923
vn -0.0775 -0.0505 0.9957
vn 0.9020 -0.2180 0.3726
vn 0.1521 -0.6184 0.7710
vn 0.4415 -0.6334 0.6355
vn 0.7224 -0.2915 0.6271
vn 0.7285 -0.3114 0.6102
vn 0.7169 -0.2748 0.6408
vn -0.0226 -0.2723 0.9619
vn -0.0041 -0.2537 0.9673
vn 0.0113 -0.2381 0.9712
vn 0.8959 -0.2105 0.3912
vn -0.2885 -0.1488 0.9459
vn 0.8496 0.3150 0.4231
vn 0.8403 0.2042 0.5022
vn -0.1897 0.3692 0.9098
vn -0.1326 0.2549 0.9578
vn 0.8312 0.4055 0.3802
vn -0.2032 0.4594 0.8647
vn -0.2095 0.4563 0.8648
vn 0.6471 0.6812 0.3424
vn -0.3369 0.8439 0.4174
vn 0.2981 0.9485 0.1072
vn -0.0268 0.9654 0.2594
vn 0.5383 0.6740 0.5060
vn 0.4698 0.6926 0.5473
vn 0.5568 0.6636 0.4996
vn 0.1795 0.7078 0.6833
vn 0.1026 0.6967 0.7100
vn 0.0851 0.6882 0.7205
vn 0.3238 0.6236 0.7115
vn 0.3566 0.6121 0.7058
vn 0.2736 0.6394 0.7185
vn 0.3661 0.6116 0.7013
vn 0.3923 0.6200 0.6794
vn 0.4310 0.6312 0.6448
vn 0.6614 0.1613 0.7325
vn 0.6580 0.1488 0.7381
vn 0.6546 0.1591 0.7391
vn 0.0531 -0.2132 0.9756
vn 0.6714 0.0944 0.7351
vn 0.6792 0.0718 0.7305
vn 0.1596 0.1747 0.9716
vn 0.1440 0.1219 0.9820
vn 0.1337 0.1002 0.9859
vn -0.0679 -0.5840 0.8089
vn 0.0149 -0.6346 0.7727
vn 0.0049 -0.6288 0.7775
vn 0.4825 0.0871 0.8716
vn 0.4274 -0.4726 0.7707
vn 0.5392 -0.6566 0.5273
vn 0.4509 -0.6918 0.5640
vn 0.5287 -0.6613 0.5321
vn 0.0739 0.1286 0.9889
vn 0.0861 0.1455 0.9856
vn 0.0606 0.1102 0.9921
vn 0.7130 0.1128 0.6920
vn 0.7219 0.0949 0.6855
vn 0.7312 0.0753 0.6780
vn 0.0071 0.4011 0.9160
vn 0.1109 0.3622 0.9255
vn 0.1541 0.3446 0.9260
vn 0.7318 0.3634 0.5766
vn 0.6696 0.3332 0.6638
vn 0.7669 0.3804 0.5170
vn 0.0046 0.8150 0.5794
vn 0.5107 0.7886 0.3424
vn 0.1786 0.9060 0.3838
vn 0.2352 0.8528 0.4663
vn 0.2456 0.8415 0.4813
vn 0.2577 0.9018 0.3468
vn 0.2803 0.8504 0.4452
vn 0.2511 0.9137 0.3197
vn 0.5529 0.7840 0.2823
vn 0.5937 0.7887 0.1596
vn 0.6072 0.7799 0.1518
vn -0.0687 0.8164 0.5735
vn -0.1884 0.8294 0.5259
vn -0.0562 0.8071 0.5877
vn 0.6601 0.7360 0.1503
vn -0.2423 0.7830 0.5729
vn 0.8469 -0.0283 0.5310
vn -0.1346 0.0228 0.9906
vn 0.9822 0.1250 0.1402
vn 0.9662 0.2115 0.1473
vn 0.9839 0.1261 0.1266
vn -0.4841 0.2870 0.8266
vn -0.5072 0.2025 0.8377
vn -0.5186 0.2044 0.8302
vn 0.9630 0.2256 0.1473
vn 0.9414 0.3143 0.1222
vn -0.4788 0.3883 0.7874
vn -0.4810 0.3008 0.8235
vn -0.5688 0.7746 -0.2767
vn 0.2160 0.7337 -0.6442
vn -0.9692 0.2309 -0.0858
vn -0.9699 0.2273 -0.0875
vn -0.9682 0.2359 -0.0835
vn 0.5697 0.1472 -0.8085
vn 0.5709 0.1507 -0.8071
vn 0.5724 0.1556 -0.8051
vn -0.5101 0.6318 -0.5837
vn -0.5101 0.6318 -0.5836
vn -0.5223 0.6446 -0.5583
vn -0.0688 0.6088 -0.7903
vn -0.0687 0.6088 -0.7903
vn -0.0990 0.5967 -0.7963
vn 0.3154 0.5353 -0.7836
vn 0.3152 0.5332 -0.7851
vn 0.3150 0.5308 -0.7868
vn -0.7558 0.5910 -0.2819
vn -0.7570 0.5890 -0.2830
vn -0.7543 0.5936 -0.2807
vn 0.0587 0.6862 -0.7250
vn 0.0943 0.6633 -0.7424
vn 0.0892 0.6459 -0.7582
vn -0.5346 0.7171 -0.4472
vn -0.5725 0.6980 -0.4301
vn -0.5209 0.7637 -0.3814
vn 0.0537 0.7337 -0.6773
vn 0.1043 0.7311 -0.6742
vn -0.4908 0.7621 -0.4223
vn 0.5019 -0.1382 -0.8538
vn 0.5806 -0.1237 -0.8048
vn 0.6061 -0.0955 -0.7897
vn -0.9857 -0.0608 -0.1571
vn -0.9970 -0.0415 -0.0659
vn -0.9840 -0.0763 -0.1607
vn 0.3649 -0.8581 -0.3613
vn 0.3698 -0.9042 -0.2138
vn 0.3279 -0.8507 -0.4109
vn -0.4763 -0.8601 0.1824
vn -0.5823 -0.8088 0.0823
vn -0.5962 -0.8026 0.0219
vn 0.3579 -0.9093 -0.2122
vn 0.1732 -0.9462 -0.2732
vn -0.4003 -0.9164 -0.0046
vn -0.4680 -0.8663 0.1746
vn 0.0333 -0.7098 -0.7036
vn -0.3580 -0.8920 -0.2759
vn -0.4314 -0.8808 -0.1952
vn -0.4305 -0.8810 -0.1962
vn -0.1470 -0.4378 -0.8870
vn -0.2066 -0.5088 -0.8357
vn -0.1598 -0.5700 -0.8059
vn -0.6236 -0.4130 -0.6638
vn -0.5524 -0.4908 -0.6738
vn -0.6075 -0.3644 -0.7058
vn -0.2615 -0.8462 -0.4642
vn -0.2712 -0.8457 -0.4597
vn -0.5646 -0.5490 -0.6164
vn -0.5624 -0.6389 -0.5249
vn 0.1600 -0.9719 0.1725
vn 0.0806 -0.9570 0.2785
vn 0.1591 -0.9784 0.1322
vn -0.0525 -0.9609 0.2720
vn -0.0833 -0.9657 0.2458
vn 0.1420 -0.9813 0.1300
vn 0.1423 -0.9830 0.1157
vn -0.0744 -0.9700 0.2313
vn -0.0857 -0.9712 0.2225
vn 0.7018 -0.0333 -0.7116
vn 0.7060 -0.0220 -0.7079
vn 0.6923 -0.0208 -0.7214
vn -0.9939 0.0665 0.0882
vn -0.9950 0.0551 0.0831
vn -0.9954 0.0670 0.0690
vn 0.6850 -0.0385 -0.7276
vn 0.6635 -0.0564 -0.7461
vn -0.9970 0.0491 0.0601
vn -0.9990 0.0302 0.0325
vn -0.2753 -0.4209 -0.8643
vn -0.1853 -0.3864 -0.9035
vn -0.2063 -0.3295 -0.9214
vn -0.5231 -0.4080 -0.7483
vn -0.6029 -0.3088 -0.7356
vn -0.2857 -0.4509 -0.8456
vn -0.1901 -0.7077 -0.6805
vn 0.6191 -0.0352 -0.7845
vn 0.5974 0.0055 -0.8019
vn -0.5041 -0.8571 -0.1063
vn 0.6646 -0.0643 -0.7444
vn -0.9991 0.0223 0.0348
vn -0.9945 0.0884 -0.0563
vn 0.7229 0.1372 -0.6772
vn 0.7246 0.1554 -0.6714
vn 0.6908 0.1831 -0.6995
vn -0.9676 0.2252 0.1145
vn -0.9626 0.2433 0.1188
vn -0.9673 0.2057 0.1486
vn 0.6988 0.1545 -0.6984
vn 0.6703 0.1956 -0.7158
vn -0.9670 0.2413 0.0817
vn -0.9603 0.2690 0.0738
vn 0.7964 0.3982 -0.4552
vn -0.9696 0.1926 0.1510
vn 0.1726 -0.9798 0.1006
vn -0.3024 -0.9471 -0.1072
vn -0.3920 -0.9181 -0.0589
vn 0.1170 -0.6773 -0.7263
vn 0.0727 -0.7702 -0.6337
vn 0.0707 -0.7692 -0.6351
vn -0.6889 -0.6353 -0.3489
vn -0.5976 -0.7353 -0.3197
vn -0.6354 -0.7171 -0.2865
vn 0.2014 -0.9592 -0.1982
vn 0.2016 -0.9592 -0.1981
vn 0.1823 -0.9608 -0.2088
vn -0.3619 -0.9299 0.0656
vn -0.3619 -0.9299 0.0658
vn -0.3664 -0.9260 0.0908
vn 0.3209 -0.9361 0.1437
vn 0.3339 -0.9339 0.1274
vn 0.3335 -0.9393 0.0808
vn -0.1945 -0.9064 0.3749
vn -0.1739 -0.9104 0.3755
vn -0.2304 -0.9099 0.3449
vn 0.3360 -0.9368 0.0973
vn 0.3243 -0.9457 0.0217
vn -0.2191 -0.9079 0.3574
vn -0.2703 -0.9148 0.3002
vn 0.5266 0.0873 -0.8456
vn -0.6509 -0.3250 0.6861
vn -0.4811 -0.5175 0.7077
vn -0.5596 -0.4704 0.6823
vn 0.9354 -0.3289 -0.1295
vn -0.7228 -0.2426 0.6471
vn 0.0253 -0.5391 -0.8419
vn -0.0421 -0.5025 -0.8635
vn -0.1144 -0.4374 -0.8919
vn -0.7073 -0.5009 -0.4988
vn -0.6779 -0.4694 -0.5658
vn 0.0776 0.9719 -0.2223
vn 0.0785 0.9708 -0.2267
vn 0.0804 0.9684 -0.2362
vn -0.1370 0.9831 -0.1218
vn -0.1410 0.9822 -0.1239
vn -0.1271 0.9850 -0.1166
vn -0.0870 0.8118 -0.5774
vn -0.0889 0.8109 -0.5783
vn -0.0807 0.8146 -0.5744
vn -0.3175 0.8228 -0.4713
vn -0.3180 0.8238 -0.4693
vn -0.3195 0.8270 -0.4626
vn -0.0548 0.2388 -0.9695
vn -0.0644 0.2303 -0.9710
vn -0.0072 0.2752 -0.9613
vn -0.6836 0.2625 -0.6810
vn -0.6879 0.2717 -0.6730
vn -0.7088 0.3118 -0.6328
vn 0.2266 0.7383 -0.6353
vn 0.2087 0.7790 -0.5913
vn -0.5683 0.7797 -0.2630
vn -0.5197 0.8169 -0.2502
vn 0.4395 0.8662 0.2376
vn -0.0239 0.8904 0.4547
vn 0.5705 0.6991 -0.4310
vn 0.5096 0.7496 -0.4225
vn 0.5661 0.6910 -0.4495
vn -0.5844 0.8065 0.0898
vn -0.6340 0.7618 0.1330
vn -0.6460 0.7541 0.1182
vn 0.4348 0.5491 -0.7137
vn 0.4652 0.5077 -0.7251
vn 0.4511 0.5285 -0.7192
vn -0.8087 0.5741 -0.1285
vn -0.7770 0.6122 -0.1462
vn -0.7934 0.5933 -0.1364
vn 0.3043 -0.1246 -0.9444
vn 0.2753 -0.1242 -0.9533
vn 0.3447 -0.1850 -0.9203
vn -0.9282 -0.0604 -0.3671
vn -0.9165 -0.0621 -0.3951
vn -0.9108 -0.0336 -0.4114
vn 0.3056 -0.0974 -0.9472
vn 0.2616 -0.0947 -0.9605
vn -0.9288 -0.0331 -0.3690
vn 0.4124 0.5799 -0.7026
vn -0.7516 0.6405 -0.1575
vn 0.6229 0.6483 -0.4378
vn -0.6769 0.7160 0.1710
vn 0.8388 0.5436 -0.0299
vn 0.8347 0.5508 0.0010
vn 0.8448 0.5268 -0.0938
vn -0.4837 0.6194 0.6184
vn -0.5106 0.6138 0.6021
vn -0.5648 0.6002 0.5663
vn 0.1176 0.7432 -0.6586
vn -0.5163 0.7762 -0.3617
vn 0.4552 0.8245 0.3361
vn 0.4510 0.8310 0.3255
vn 0.4836 0.8360 0.2592
vn 0.0381 0.8462 0.5314
vn 0.0332 0.8528 0.5212
vn 0.1372 0.8113 0.5682
vn -0.5684 -0.2862 -0.7714
vn -0.5666 -0.2884 -0.7719
vn -0.5631 -0.2925 -0.7729
vn -0.2555 -0.3046 -0.9176
vn -0.2538 -0.3026 -0.9187
vn -0.2589 -0.3084 -0.9154
vn 0.5026 0.8136 0.2923
vn -0.0266 0.8411 0.5402
vn -0.0379 0.8632 0.5035
vn 0.2230 0.5646 0.7947
vn 0.5153 0.5493 0.6578
vn 0.4968 -0.1534 -0.8542
vn 0.5755 -0.1546 -0.8031
vn -0.7619 0.3613 0.5376
vn -0.7343 0.3121 0.6028
vn -0.7737 0.2779 0.5693
vn 0.9526 0.1880 -0.2392
vn 0.9405 0.1699 -0.2944
vn 0.9561 0.2241 -0.1889
vn -0.8099 0.2610 0.5254
vn 0.9200 0.1510 -0.3617
vn 0.8735 0.1721 -0.4555
vn -0.8905 0.2640 0.3706
vn -0.8501 0.2432 0.4672
vn 0.8551 -0.0507 -0.5160
vn 0.8139 -0.0466 -0.5792
vn 0.8156 -0.1494 -0.5590
vn -0.9442 0.0429 0.3267
vn -0.9660 0.0461 0.2544
vn -0.9500 0.1069 0.2935
vn 0.7422 -0.6691 0.0378
vn 0.6867 -0.7048 0.1779
vn 0.8391 -0.5433 0.0272
vn -0.5006 -0.6044 0.6198
vn -0.3609 -0.6503 0.6685
vn -0.4394 -0.6336 0.6368
vn 0.4919 -0.8296 0.2642
vn 0.5390 -0.7772 0.3248
vn -0.1814 -0.7946 0.5795
vn -0.1813 -0.7946 0.5794
vn 0.6212 -0.7229 0.3025
vn -0.2252 -0.6788 0.6989
vn -0.1604 -0.7408 0.6524
vn 0.6834 -0.7080 0.1780
vn 0.8046 -0.5844 0.1056
vn -0.3590 -0.6537 0.6662
vn 0.6565 -0.1274 0.7435
vn 0.6436 -0.0827 0.7609
vn 0.6596 -0.1391 0.7387
vn 0.1344 -0.1118 0.9846
vn 0.1664 -0.0579 0.9844
vn 0.1411 -0.1006 0.9849
vn 0.1392 -0.6075 -0.7820
vn 0.1878 -0.6098 -0.7700
vn 0.2133 -0.6040 -0.7679
vn -0.7398 -0.5618 -0.3704
vn -0.7617 -0.5604 -0.3253
vn -0.7385 -0.6161 -0.2738
vn 0.3949 -0.9123 -0.1086
vn -0.2910 -0.9567 -0.0089
vn 0.6256 -0.7207 -0.2985
vn 0.6143 -0.7364 -0.2835
vn 0.6049 -0.7487 -0.2712
vn -0.6885 -0.6523 0.3170
vn -0.6711 -0.6694 0.3185
vn -0.6997 -0.6409 0.3158
vn 0.2078 -0.6654 -0.7170
vn 0.1238 -0.7566 -0.6420
vn 0.5846 0.7202 0.3736
vn 0.6712 0.6055 0.4277
vn 0.7116 0.5535 0.4327
vn -0.0244 0.7519 0.6588
vn -0.0478 0.6429 0.7644
vn -0.0281 0.7853 0.6185
vn 0.7081 0.4825 0.5156
vn 0.6857 0.4947 0.5340
vn -0.0144 0.5201 0.8540
vn -0.0741 0.5944 0.8007
vn 0.0150 0.5296 0.8481
vn 0.6383 0.5382 0.5504
vn 0.2356 0.3948 0.8880
vn 0.2272 0.3589 0.9053
vn 0.2189 0.3556 0.9086
vn 0.5874 0.3364 0.7361
vn 0.6599 0.3494 0.6652
vn 0.5799 0.3406 0.7401
vn 0.1195 0.3776 0.9182
vn 0.0932 0.4057 0.9092
vn 0.6721 0.3756 0.6381
vn 0.6767 0.4343 0.5946
vn -0.1834 0.1389 0.9732
vn -0.2236 0.1251 0.9666
vn -0.2245 0.1430 0.9639
vn 0.8939 0.0669 0.4433
vn 0.8806 -0.0795 0.4671
vn 0.8752 -0.0983 0.4736
vn -0.2094 -0.0228 0.9776
vn -0.2025 -0.0422 0.9784
vn 0.6385 0.7576 0.1359
vn -0.2378 0.8032 0.5462
vn -0.1501 0.9684 0.1993
vn -0.1531 0.9685 0.1965
vn -0.1535 0.9685 0.1960
vn 0.3305 0.9433 -0.0300
vn 0.3308 0.9433 -0.0260
vn 0.3305 0.9433 -0.0306
vn -0.6056 0.4356 0.6659
vn -0.5332 0.4721 0.7020
vn -0.6167 0.4295 0.6597
vn 0.9331 0.3555 -0.0547
vn 0.9178 0.3965 0.0225
vn 0.9126 0.4066 0.0423
vn -0.1152 0.0069 0.9933
vn -0.1142 0.0087 0.9934
vn -0.1156 0.0060 0.9933
vn 0.8353 -0.0426 0.5482
vn 0.8349 -0.0407 0.5489
vn 0.8347 -0.0396 0.5493
vn 0.7645 -0.2837 0.5789
vn 0.7635 -0.2422 0.5987
vn 0.7643 -0.3098 0.5656
vn -0.0671 -0.2404 0.9683
vn -0.0478 -0.2000 0.9786
vn -0.0326 -0.1683 0.9852
vn 0.9174 -0.2248 0.3283
vn 0.8921 -0.2417 0.3818
vn 0.9196 -0.2371 0.3132
vn -0.2958 -0.1798 0.9382
vn -0.3516 -0.1587 0.9226
vn -0.3656 -0.1701 0.9151
vn 0.6595 -0.6949 -0.2866
vn -0.4179 -0.6198 0.6642
vn 0.1637 0.6435 0.7478
vn 0.1697 0.6464 0.7439
vn 0.1811 0.6519 0.7363
vn 0.5238 0.6247 0.5792
vn 0.5172 0.6283 0.5811
vn 0.5411 0.6149 0.5737
vn 0.7761 -0.4647 -0.4264
vn 0.7980 -0.4731 -0.3733
vn 0.8229 -0.4534 -0.3425
vn -0.8345 -0.3881 0.3912
vn -0.8605 -0.3794 0.3400
vn -0.8250 -0.3676 0.4293
vn 0.3729 0.6852 0.6257
vn 0.3006 0.6890 0.6595
vn 0.2594 0.9455 -0.1966
vn -0.2352 0.9713 0.0351
vn 0.7777 -0.1214 0.6168
vn -0.3973 0.4587 0.7948
vn 0.8361 -0.2701 0.4775
vn 0.8255 -0.2834 0.4880
vn 0.8367 -0.2693 0.4769
vn -0.7006 -0.2704 0.6603
vn 0.8662 -0.0093 0.4996
vn 0.8829 0.0185 0.4692
vn 0.8756 0.0060 0.4830
vn -0.1893 -0.2167 0.9577
vn -0.2045 -0.2002 0.9582
vn -0.1901 -0.2158 0.9578
vn 0.8290 -0.2859 0.4807
vn 0.8715 -0.2509 0.4214
vn -0.1867 0.0613 0.9805
vn -0.2187 0.0923 0.9714
vn -0.2008 0.0749 0.9768
vn 0.6055 0.3761 -0.7014
vn -0.8910 0.4540 -0.0005
vn 0.8429 -0.4559 -0.2856
vn -0.7944 -0.3707 0.4812
vn -0.8140 -0.4484 0.3692
vn 0.8750 -0.0926 -0.4752
vn -0.9291 0.0014 0.3698
vn 0.8125 -0.5575 0.1705
vn 0.8278 -0.5604 0.0265
vn 0.8032 -0.5454 0.2395
vn -0.5544 -0.4884 0.6739
vn -0.4341 -0.4926 0.7543
vn -0.3742 -0.4841 0.7910
vn 0.8074 -0.5893 0.0300
vn 0.8183 -0.5745 -0.0152
vn -0.5412 -0.5191 0.6616
vn -0.5454 -0.5060 0.6683
vn 0.7746 -0.6289 0.0663
vn 0.8163 -0.5768 0.0306
vn -0.4959 -0.5628 0.6613
vn 0.0222 0.8608 -0.5085
vn 0.0121 0.8780 -0.4786
vn -0.0092 0.9104 -0.4137
vn -0.3305 0.8792 -0.3433
vn -0.2997 0.8942 -0.3326
vn -0.3926 0.8446 -0.3640
vn 0.8547 0.3162 -0.4117
vn 0.8549 0.3035 -0.4207
vn 0.8548 0.2853 -0.4334
vn -0.8327 0.4040 0.3786
vn -0.8409 0.3918 0.3735
vn -0.8197 0.4228 0.3864
vn 0.7205 -0.6919 0.0468
vn 0.7204 -0.6919 0.0471
vn 0.7057 -0.6986 0.1179
vn -0.4815 -0.6293 0.6100
vn -0.4817 -0.6293 0.6099
vn -0.4184 -0.6401 0.6443
vn -0.1191 0.9300 -0.3476
vn -0.0942 0.9567 -0.2755
vn -0.1308 0.9152 -0.3811
vn -0.0697 0.9554 -0.2870
vn -0.1114 0.9296 -0.3512
vn 0.7982 -0.5251 0.2952
vn 0.8027 -0.5108 0.3079
vn -0.3266 -0.4666 0.8220
vn -0.3185 -0.4525 0.8330
vn 0.5176 -0.6707 0.5312
vn 0.5025 -0.6992 0.5086
vn 0.5205 -0.6649 0.5357
vn 0.0104 -0.6735 0.7391
vn 0.0205 -0.6448 0.7640
vn 0.0226 -0.6389 0.7689
vn -0.7758 -0.5449 0.3183
vn -0.7738 -0.4797 0.4136
vn -0.7739 -0.5669 0.2822
vn 0.7687 -0.5601 -0.3088
vn 0.6914 -0.6213 -0.3688
vn 0.6607 -0.6416 -0.3896
vn -0.9903 0.0634 -0.1237
vn -0.9836 0.0506 -0.1731
vn -0.9809 0.0466 -0.1887
vn 0.5410 -0.0163 -0.8409
vn 0.4978 -0.0265 -0.8669
vn 0.5529 -0.0135 -0.8331
vn -0.6488 0.7477 -0.1416
vn 0.2112 0.4274 -0.8791
vn -0.2226 0.9143 -0.3384
vn -0.0826 0.9631 -0.2562
vn -0.0397 0.9048 -0.4240
vn -0.0373 0.8982 -0.4381
vn 0.5227 0.4129 0.7459
vn 0.5690 0.4187 0.7078
vn 0.4699 0.4055 0.7840
vn 0.2742 0.4259 0.8622
vn 0.2160 0.4370 0.8731
vn 0.1608 0.4384 0.8843
vn 0.6128 0.4149 0.6726
vn 0.6857 0.3571 0.6343
vn 0.0801 0.3887 0.9179
vn -0.0288 0.2917 0.9561
vn 0.6748 0.3228 0.6636
vn 0.6677 0.3870 0.6359
vn 0.1066 0.3524 0.9298
vn 0.0953 0.4168 0.9040
vn 0.5467 0.4132 0.7283
vn 0.2454 0.4289 0.8694
vn 0.2859 0.4444 0.8490
vn 0.3145 0.7234 0.6146
vn 0.3325 0.7225 0.6062
vn 0.7377 0.3162 0.5965
vn 0.6821 0.2551 0.6853
vn 0.0145 0.3539 0.9352
vn 0.6385 0.1941 0.7447
vn 0.2643 0.4216 0.8674
vn 0.5325 0.4076 0.7418
vn 0.3364 0.4125 0.8466
vn -0.1794 0.9016 0.3936
vn -0.1999 0.8869 0.4165
vn -0.2662 0.8307 0.4889
vn 0.4927 0.8666 0.0788
vn 0.5220 0.8493 0.0784
vn 0.4141 0.9068 0.0796
vn 0.8743 0.4219 0.2401
vn -0.3366 0.4849 0.8072
vn 0.8065 0.1505 0.5718
vn 0.7786 0.1461 0.6103
vn -0.0623 0.1958 0.9787
vn 0.8673 0.1727 0.4669
vn 0.1345 -0.0120 0.9908
vn 0.7633 0.5460 0.3454
vn 0.7873 0.5184 0.3338
vn 0.7474 0.5632 0.3525
vn -0.2011 0.5698 0.7968
vn -0.1747 0.5948 0.7847
vn -0.1576 0.6103 0.7763
vn 0.5011 0.8204 0.2755
vn -0.0380 0.8484 0.5280
vn 0.1786 -0.9470 0.2671
vn 0.1446 -0.9447 0.2943
vn 0.1754 -0.9493 0.2608
vn 0.0531 -0.9399 0.3372
vn 0.0103 -0.9382 0.3459
vn 0.0073 -0.9406 0.3396
vn 0.5864 -0.7854 0.1982
vn 0.5581 -0.8257 0.0824
vn 0.5966 -0.7619 0.2521
vn -0.3624 -0.7778 0.5135
vn -0.2883 -0.7398 0.6079
vn -0.2515 -0.7178 0.6493
vn 0.9851 -0.1581 -0.0680
vn 0.9827 -0.1679 -0.0782
vn 0.9818 -0.1714 -0.0819
vn -0.6927 -0.0707 0.7178
vn -0.6998 -0.0803 0.7098
vn -0.6902 -0.0674 0.7205
vn 0.6730 0.4577 -0.5810
vn 0.6727 0.4332 -0.5998
vn 0.6724 0.4205 -0.6092
vn -0.8348 0.5362 0.1251
vn -0.8511 0.5126 0.1139
vn -0.8228 0.5525 0.1329
vn -0.4417 0.7528 -0.4881
vn -0.4947 0.7666 -0.4094
vn -0.5271 0.7868 -0.3210
vn -0.0288 0.7313 -0.6815
vn 0.0665 0.7374 -0.6722
vn -0.0549 0.7095 -0.7026
vn -0.5741 0.7828 -0.2400
vn -0.5670 0.8085 -0.1578
vn 0.1566 0.7512 -0.6412
vn 0.2482 0.7400 -0.6251
vn -0.8297 -0.3215 -0.4563
vn -0.8239 -0.3196 -0.4680
vn -0.8202 -0.3184 -0.4752
vn 0.1510 -0.3725 -0.9156
vn 0.1385 -0.3697 -0.9188
vn 0.1572 -0.3739 -0.9141
vn -0.5852 -0.4200 -0.6937
vn -0.5572 -0.3972 -0.7292
vn -0.5353 -0.3794 -0.7546
vn -0.2380 -0.4138 -0.8787
vn -0.1950 -0.4403 -0.8764
vn -0.2700 -0.3932 -0.8789
vn -0.0083 -0.3605 -0.9327
vn -0.7403 -0.3224 -0.5899
vn -0.7651 0.6356 0.1035
vn -0.7867 0.6071 0.1123
vn -0.8058 0.5798 0.1205
vn 0.6205 0.5634 -0.5454
vn 0.6386 0.5329 -0.5552
vn 0.5934 0.6054 -0.5304
vn 0.0536 -0.5809 -0.8122
vn -0.7062 -0.5413 -0.4564
vn -0.7759 -0.5525 -0.3047
vn 0.0348 -0.9395 0.3408
vn 0.0910 -0.9430 0.3201
vn 0.1590 -0.9459 0.2827
vn 0.1071 -0.9438 0.3126
vn 0.9229 0.0739 0.3778
vn -0.2917 0.1372 0.9466
vn 0.9811 -0.1294 0.1440
vn -0.5252 -0.0510 0.8494
vn 0.6634 -0.5775 0.4758
vn -0.1069 -0.5374 0.8365
vn 0.6867 -0.1466 0.7120
vn 0.0960 -0.1159 0.9886
vn 0.3479 -0.1925 0.9176
vn 0.4654 -0.1986 0.8625
vn 0.0572 -0.5547 0.8301
vn 0.5526 -0.5805 0.5981
vn -0.4191 -0.0539 0.9063
vn 0.9653 -0.1269 0.2284
vn -0.0460 0.1976 0.9792
vn 0.7967 0.1537 0.5845
vn -0.1306 0.5286 0.8388
vn 0.7710 0.4817 0.4165
vn -0.5155 0.5572 0.6510
vn 0.8762 0.4818 0.0103
vn -0.1270 0.9698 0.2081
vn 0.3416 0.9396 0.0207
vn 0.1717 0.8411 0.5129
vn 0.3176 0.8652 0.3881
vn 0.5800 0.7782 0.2407
vn -0.0512 0.8084 0.5864
vn 0.4706 0.8808 -0.0511
vn -0.2924 0.9156 0.2759
vn 0.9046 0.4198 -0.0740
vn -0.5901 0.5029 0.6315
vn 0.8649 0.4432 0.2356
vn -0.3634 0.4837 0.7962
vn 0.4464 0.0255 -0.8945
vn -0.9752 0.1860 -0.1202
vn -0.1427 0.5186 -0.8430
vn -0.5065 0.5615 -0.6544
vn -0.6681 0.5867 -0.4577
vn 0.0617 0.4740 -0.8783
vn -0.9666 0.1271 -0.2225
vn 0.5813 0.0897 -0.8087
vn -0.8874 -0.4309 0.1641
vn 0.6540 -0.5111 -0.5578
vn -0.4731 -0.8799 0.0451
vn 0.2607 -0.9181 -0.2986
vn 0.0858 -0.9765 -0.1978
vn -0.2894 -0.9570 -0.0220
vn 0.6311 -0.5468 -0.5501
vn -0.8700 -0.4687 0.1529
vn 0.0853 -0.6034 0.7929
vn 0.8710 -0.1451 0.4694
vn -0.2071 -0.0889 0.9743
vn 0.9589 0.2598 0.1139
vn -0.5010 0.3359 0.7976
vn 0.0663 -0.4416 0.8947
vn 0.7385 -0.2646 0.6202
vn -0.3342 -0.1017 0.9370
vn 0.8553 0.0126 0.5179
vn -0.3436 -0.0876 0.9350
vn 0.8753 0.4672 -0.1248
vn 0.0318 0.6827 0.7300
vn -0.3156 0.8439 0.4339
vn 0.7420 0.6679 0.0574
vn -0.3715 0.7259 0.5788
vn 0.1803 0.9108 0.3713
vn 0.2637 0.8995 0.3483
vn 0.8705 0.4749 0.1292
vn -0.3636 0.7866 0.4990
vn 0.8438 -0.0089 0.5366
vn -0.1370 -0.3148 0.9392
vn 0.6059 -0.0964 0.7897
vn 0.2114 -0.0758 0.9745
vn 0.3168 -0.1098 0.9421
vn 0.3359 -0.1977 0.9209
vn 0.4330 -0.4764 0.7652
vn 0.3420 -0.5916 0.7301
vn 0.3719 0.2413 0.8964
vn 0.5727 0.0799 0.8159
vn -0.1467 0.3556 0.9231
vn 0.8090 0.0942 0.5802
vn 0.0712 0.5792 0.8121
vn 0.3943 0.2204 0.8922
vn 0.4516 0.2174 0.8653
vn 0.5768 -0.1227 0.8076
vn 0.6142 -0.0488 0.7877
vn 0.6170 -0.0428 0.7858
vn -0.3065 0.0339 0.9513
vn 0.6479 0.0275 0.7612
vn 0.1733 0.0522 0.9835
vn 0.3932 -0.2918 0.8719
vn 0.6863 -0.0285 0.7268
vn 0.4194 0.4452 0.7911
vn 0.7347 -0.6462 -0.2068
vn -0.6812 -0.5724 0.4564
vn 0.7217 0.0248 -0.6917
vn -0.9875 0.1138 0.1088
vn -0.1848 0.6791 -0.7104
vn -0.3547 0.6555 -0.6667
vn -0.5055 0.7236 0.4700
vn 0.6089 -0.7073 0.3592
vn -0.1784 -0.7288 0.6610
vn -0.5551 0.7749 0.3023
vn 0.6511 0.7121 -0.2626
vn 0.2485 0.9629 0.1054
vn 0.0047 0.9756 0.2196
vn 0.8846 0.4652 0.0339
vn -0.4788 0.5350 0.6961
vn 0.6098 -0.6806 0.4061
vn -0.1349 -0.6419 0.7549
vn 0.3995 0.5936 0.6986
vn 0.3178 0.6054 0.7298
vn 0.5402 0.1379 0.8302
vn 0.3042 0.1502 0.9407
vn 0.2807 -0.5207 0.8063
vn 0.3949 -0.5266 0.7528
vn 0.8772 0.4714 0.0916
vn -0.4480 0.5404 0.7122
vn 0.6721 0.4282 0.6041
vn -0.1461 -0.0813 0.9859
vn 0.9423 0.3224 -0.0897
vn -0.4923 0.6138 0.6171
vn 0.9708 0.1264 -0.2040
vn -0.7636 0.2167 0.6082
vn 0.5171 -0.6308 0.5785
vn 0.2549 -0.0156 0.9669
vn 0.2591 0.2067 0.9435
vn 0.5759 0.1902 0.7951
vn 0.3094 0.2287 0.9230
vn 0.5300 0.2173 0.8197
vn 0.1980 0.6682 0.7171
vn 0.4806 0.6535 0.5848
vn -0.7136 0.6922 0.1079
vn 0.5960 0.6240 -0.5054
vn 0.4262 0.1203 0.8966
vn 0.8082 -0.0966 0.5809
vn -0.0829 0.2647 0.9608
vn 0.8117 0.2182 0.5418
vn 0.5562 0.3779 0.7402
vn -0.3072 -0.1550 0.9389
vn 0.7632 -0.1631 0.6252
vn 0.2882 -0.2712 0.9184
vn 0.4974 -0.2821 0.8204
vn 0.7323 -0.3247 0.5985
vn -0.0351 -0.2848 0.9580
vn 0.8039 -0.0263 0.5942
vn -0.0585 0.0186 0.9981
vn 0.8351 0.4020 0.3756
vn 0.6063 0.7948 -0.0244
vn -0.0915 0.7196 0.6883
vn 0.6134 0.6528 0.4446
vn 0.0059 0.6844 0.7291
vn 0.4530 0.7046 0.5462
vn 0.1903 0.7183 0.6692
vn 0.3916 0.5989 0.6986
vn 0.3372 0.6017 0.7241
vn 0.6958 -0.2467 0.6745
vn 0.1541 0.1877 0.9701
vn 0.1633 0.1847 0.9691
vn 0.3683 0.0930 0.9250
vn 0.6135 -0.6195 0.4898
vn 0.0863 -0.6728 0.7348
vn 0.2784 -0.4649 0.8405
vn 0.0973 0.1610 0.9821
vn 0.7045 0.1294 0.6978
vn -0.0595 0.4234 0.9040
vn 0.6411 0.3193 0.6979
vn 0.2948 0.7392 0.6055
vn 0.3395 0.7369 0.5846
vn 0.1630 0.9182 0.3609
vn 0.2842 0.8395 0.4632
vn 0.5550 0.7753 0.3014
vn -0.2038 0.8221 0.5316
vn 0.9690 -0.1156 0.2184
vn -0.4593 -0.0412 0.8873
vn 0.9414 0.3159 0.1179
vn -0.4820 0.3900 0.7845
vn -0.8115 0.5079 -0.2888
vn 0.3386 0.4481 -0.8274
vn -0.9707 0.2228 -0.0896
vn 0.5683 0.1427 -0.8104
vn -0.4965 0.6174 -0.6101
vn -0.0405 0.6195 -0.7840
vn 0.3156 0.5379 -0.7817
vn -0.7583 0.5867 -0.2841
vn -0.5828 0.6809 -0.4435
vn 0.0116 0.7085 -0.7056
vn -0.4878 0.7346 -0.4717
vn -0.9992 -0.0119 -0.0379
vn 0.1261 -0.9451 -0.3016
vn -0.0596 -0.9076 -0.4156
vn 0.0486 -0.9060 -0.4206
vn 0.0500 -0.9059 -0.4206
vn -0.6210 -0.6757 -0.3972
vn -0.0988 -0.6631 -0.7420
vn -0.2518 -0.8467 -0.4688
vn 0.1036 -0.9398 0.3256
vn 0.7538 -0.6091 -0.2465
vn -0.7208 -0.5323 0.4441
vn -0.4609 -0.6936 -0.5536
vn -0.5047 -0.4395 -0.7431
vn 0.1664 -0.8920 -0.4203
vn -0.9984 0.0490 -0.0270
vn 0.7472 0.1164 -0.6544
vn -0.9587 0.2805 0.0471
vn 0.7494 0.1031 -0.6540
vn -0.8219 0.4825 0.3028
vn 0.0296 -0.9644 -0.2627
vn -0.1162 -0.9648 0.2359
vn -0.5974 -0.7344 -0.3222
vn 0.2239 -0.9568 -0.1856
vn -0.3579 -0.9327 0.0442
vn 0.3129 -0.9372 0.1539
vn -0.1611 -0.9126 0.3759
vn 0.9125 -0.4064 -0.0462
vn -0.9759 0.1656 -0.1420
vn 0.8474 -0.4733 0.2406
vn -0.3953 -0.4086 0.8226
vn -0.6481 -0.4096 -0.6420
vn 0.0754 0.9745 -0.2115
vn -0.1497 0.9803 -0.1285
vn -0.0970 0.8073 -0.5822
vn -0.3156 0.8187 -0.4798
vn -0.0969 0.2042 -0.9741
vn -0.6675 0.2339 -0.7069
vn 0.1820 0.9677 0.1743
vn 0.1002 0.9720 0.2126
vn 0.5256 0.7450 -0.4108
vn -0.5860 0.8028 0.1098
vn 0.4478 0.5064 -0.7369
vn -0.8067 0.5717 -0.1493
vn -0.9406 -0.1180 -0.3183
vn -0.0943 0.2039 -0.9744
vn -0.6695 0.2339 -0.7051
vn 0.4073 0.6071 -0.6823
vn -0.7305 0.6663 -0.1494
vn 0.6229 0.6621 -0.4167
vn -0.6595 0.7288 0.1839
vn 0.8226 0.5645 0.0684
vn -0.4231 0.6294 0.6518
vn 0.4173 0.7968 0.4371
vn -0.5757 -0.2775 -0.7691
vn -0.2467 -0.2946 -0.9232
vn -0.4384 0.8036 -0.4026
vn 0.0390 0.7787 -0.6262
vn 0.9278 0.2734 -0.2538
vn -0.9951 -0.0728 -0.0675
vn 0.7558 -0.0038 -0.6548
vn 0.8388 0.0138 -0.5443
vn -0.9833 0.0868 0.1597
vn -0.9604 -0.0569 0.2728
vn 0.7138 -0.6936 0.0967
vn 0.4918 -0.8297 0.2642
vn 0.6686 -0.1758 0.7225
vn 0.1132 -0.1469 0.9827
vn 0.0969 -0.9769 -0.1906
vn -0.4124 -0.8702 0.2695
vn 0.6328 -0.7103 -0.3083
vn -0.6567 -0.6830 0.3197
vn 0.5589 0.7547 0.3436
vn 0.5643 0.3777 0.7341
vn 0.0614 0.5682 0.8206
vn 0.8745 0.0839 0.4778
vn 0.8939 0.0848 0.4401
vn 0.0620 0.4663 0.8824
vn 0.4814 0.8759 -0.0313
vn -0.2558 0.9143 0.3139
vn -0.1495 0.9684 0.1999
vn 0.3309 0.9433 -0.0251
vn -0.5139 0.4808 0.7104
vn 0.9348 0.3487 -0.0670
vn -0.1137 0.0098 0.9935
vn 0.8354 -0.0435 0.5479
vn 0.7616 -0.2096 0.6133
vn -0.0794 -0.2658 0.9607
vn -0.2531 -0.1924 0.9481
vn 0.7223 -0.6792 0.1302
vn -0.6987 -0.6242 0.3495
vn 0.1476 0.6354 0.7580
vn 0.5046 0.6351 0.5848
vn 0.7962 -0.4684 -0.3830
vn -0.8403 -0.3832 0.3834
vn 0.5704 0.3022 0.7637
vn 0.2480 0.3190 0.9147
vn -0.1766 0.9821 0.0650
vn 0.2459 0.9601 -0.1328
vn 0.9012 0.3911 0.1867
vn -0.0327 -0.0792 0.9963
vn 0.6530 0.7553 0.0562
vn -0.3082 0.8053 0.5064
vn 0.9291 -0.3553 -0.1029
vn -0.1756 -0.2313 0.9569
vn 0.8476 -0.2550 0.4654
vn -0.1693 0.0447 0.9845
vn 0.8917 0.0345 0.4514
vn -0.1836 -0.2332 0.9549
vn 0.8599 -0.4765 -0.1832
vn -0.7284 -0.3939 0.5607
vn 0.7630 -0.5305 -0.3694
vn -0.5816 -0.5016 0.6404
vn 0.0430 0.8219 -0.5680
vn -0.2336 0.9221 -0.3086
vn 0.8540 0.3356 -0.3975
vn -0.8521 0.3742 0.3660
vn 0.7322 -0.6805 -0.0301
vn -0.5471 -0.6139 0.5691
vn -0.0617 0.9620 -0.2660
vn 0.4996 -0.7043 0.5044
vn 0.0085 -0.6787 0.7344
vn -0.7705 -0.4541 0.4474
vn 0.7947 -0.5356 -0.2856
vn -0.9917 0.0670 -0.1097
vn 0.4838 -0.0297 -0.8747
vn -0.7718 0.4785 -0.4187
vn 0.3682 0.6947 -0.6179
vn -0.2355 0.9085 -0.3452
vn 0.7760 0.2498 0.5792
vn 0.5066 0.4329 0.7456
vn 0.8134 0.4689 0.3442
vn -0.2140 0.5224 0.8254
vn 0.1128 0.2848 0.9519
vn 0.1808 0.2179 0.9591
vn -0.1253 0.9348 0.3322
vn 0.6150 0.7849 0.0762
vn 0.8548 0.1648 0.4920
vn -0.1530 0.2173 0.9640
vn -0.0154 0.1874 0.9822
vn 0.6728 -0.0401 0.7387
vn -0.1795 0.2272 0.9572
vn 0.8132 0.4860 0.3201
vn -0.2309 0.5404 0.8091
vn 0.5455 -0.8372 0.0396
vn -0.3882 -0.7886 0.4769
vn 0.9859 -0.1547 -0.0645
vn -0.7024 -0.0837 0.7069
vn 0.6728 0.4747 -0.5675
vn -0.8591 0.5003 0.1081
vn -0.4431 0.7297 -0.5208
vn 0.3089 0.7629 -0.5680
vn -0.8325 -0.3224 -0.4506
vn 0.1308 -0.3679 -0.9206
vn -0.6124 -0.4423 -0.6552
vn -0.1501 -0.4664 -0.8718
vn -0.7327 0.6745 0.0907
vn 0.6547 0.5037 -0.5636
vn 0.3539 -0.4725 -0.8072
vn -0.8842 -0.4080 -0.2273
vn -0.3917 -0.9128 0.1158
vn 0.2603 -0.9467 -0.1895
vt 0.843250 0.588863
vt 0.794218 0.611927
vt 0.815334 0.560948
vt 0.866314 0.937441
vt 0.889378 0.888409
vt 0.917293 0.916324
vt 0.746541 0.611927
vt 0.781622 0.527235
vt 0.866314 0.985118
vt 0.951006 0.950037
vt 0.781622 0.696619
vt 0.781622 0.950037
vt 0.833697 0.611927
vt 0.815334 0.662907
vt 0.815334 0.916325
vt 0.866314 0.897962
vt 0.843250 0.634991
vt 0.866314 0.684023
vt 0.794218 0.865345
vt 0.843250 0.888409
vt 0.866314 0.731700
vt 0.746541 0.865345
vt 0.917293 0.662907
vt 0.815334 0.814366
vt 0.781622 0.780653
vt 0.866314 0.644544
vt 0.833697 0.865345
vt 0.889378 0.634991
vt 0.938410 0.611927
vt 0.866314 0.793249
vt 0.843250 0.842281
vt 0.951006 0.696619
vt 0.866314 0.745572
vt 0.917294 0.560947
vt 0.986087 0.611927
vt 0.917294 0.814365
vt 0.951006 0.780653
vt 0.889378 0.588863
vt 0.898931 0.611927
vt 0.889378 0.842281
vt 0.866314 0.579310
vt 0.898931 0.865345
vt 0.938410 0.865345
vt 0.866314 0.539831
vt 0.951006 0.527235
vt 0.986087 0.865345
vt 0.866314 0.492154
vt 0.847600 0.593213
vt 0.885028 0.884059
vt 0.892780 0.865345
vt 0.866314 0.585461
vt 0.885028 0.846631
vt 0.885028 0.593213
vt 0.866314 0.832728
vt 0.866314 0.838879
vt 0.892780 0.611927
vt 0.847600 0.846631
vt 0.866314 0.638393
vt 0.885028 0.630641
vt 0.839848 0.865345
vt 0.847600 0.630641
vt 0.847600 0.884059
vt 0.839848 0.611927
vt 0.866314 0.891811
vt 0.866314 0.611927
vt 0.866314 0.865345
vt 0.517028 0.068490
vt 0.500000 0.054411
vt 0.520711 0.060503
vt 0.482972 0.068490
vt 0.500000 0.064527
vt 0.522612 0.070678
vt 0.530457 0.065062
vt 0.477388 0.070678
vt 0.479289 0.060503
vt 0.532878 0.067822
vt 0.467122 0.067822
vt 0.469543 0.065062
vt 0.544695 0.083023
vt 0.526301 0.079422
vt 0.473699 0.079422
vt 0.455305 0.083023
vt 0.565647 0.115495
vt 0.529228 0.091098
vt 0.470772 0.091098
vt 0.434353 0.115495
vt 0.586916 0.172042
vt 0.600470 0.238288
vt 0.535885 0.215568
vt 0.399530 0.238288
vt 0.413084 0.172042
vt 0.464115 0.215568
vt 0.650908 0.240294
vt 0.626605 0.208159
vt 0.349092 0.240294
vt 0.363038 0.261221
vt 0.655896 0.284413
vt 0.636962 0.261221
vt 0.344104 0.284413
vt 0.684517 0.317795
vt 0.689501 0.268805
vt 0.315483 0.317795
vt 0.340493 0.313152
vt 0.671357 0.334694
vt 0.659507 0.313152
vt 0.328643 0.334694
vt 0.350893 0.322437
vt 0.636775 0.370732
vt 0.649107 0.322437
vt 0.363225 0.370732
vt 0.386364 0.353108
vt 0.594178 0.371277
vt 0.613636 0.353108
vt 0.405822 0.371277
vt 0.581044 0.398468
vt 0.602261 0.395588
vt 0.418956 0.398468
vt 0.422649 0.373341
vt 0.532016 0.387365
vt 0.577351 0.373341
vt 0.467984 0.387365
vt 0.460183 0.354339
vt 0.500000 0.382860
vt 0.539817 0.354339
vt 0.500000 0.340417
vt 0.579057 0.335646
vt 0.559135 0.334326
vt 0.420943 0.335646
vt 0.592090 0.332885
vt 0.606163 0.325516
vt 0.407910 0.332885
vt 0.628251 0.311636
vt 0.393837 0.325516
vt 0.635551 0.300507
vt 0.371749 0.311636
vt 0.631484 0.283889
vt 0.364449 0.300507
vt 0.611331 0.264411
vt 0.368516 0.283889
vt 0.592372 0.254897
vt 0.388669 0.264411
vt 0.559669 0.267717
vt 0.407628 0.254897
vt 0.500000 0.252445
vt 0.440331 0.267717
vt 0.544001 0.314523
vt 0.455999 0.314523
vt 0.500000 0.295691
vt 0.543637 0.293371
vt 0.456363 0.293371
vt 0.550878 0.277832
vt 0.449122 0.277832
vt 0.506819 0.075382
vt 0.493181 0.075382
vt 0.511782 0.080633
vt 0.488218 0.080633
vt 0.512172 0.093457
vt 0.537536 0.127779
vt 0.513874 0.097191
vt 0.486126 0.097191
vt 0.462464 0.127779
vt 0.487828 0.093457
vt 0.500000 0.157864
vt 0.514257 0.133422
vt 0.520226 0.164615
vt 0.485743 0.133422
vt 0.500000 0.134352
vt 0.500000 0.100063
vt 0.500000 0.091346
vt 0.530258 0.180239
vt 0.517666 0.172353
vt 0.482334 0.172353
vt 0.469742 0.180239
vt 0.479774 0.164615
vt 0.523673 0.198817
vt 0.521901 0.181560
vt 0.478099 0.181560
vt 0.476327 0.198817
vt 0.508211 0.197295
vt 0.500000 0.203867
vt 0.491789 0.197295
vt 0.481043 0.194728
vt 0.500000 0.192167
vt 0.500000 0.197278
vt 0.500000 0.165170
vt 0.500000 0.171718
vt 0.486462 0.176949
vt 0.508818 0.192407
vt 0.491182 0.192407
vt 0.515232 0.190709
vt 0.518957 0.194728
vt 0.484768 0.190709
vt 0.483092 0.181873
vt 0.513538 0.176949
vt 0.516908 0.181873
vt 0.500000 0.186182
vt 0.544209 0.172814
vt 0.455791 0.172814
vt 0.458673 0.154899
vt 0.541327 0.154899
vt 0.578661 0.139176
vt 0.421339 0.139176
vt 0.583245 0.154155
vt 0.416755 0.154155
vt 0.509911 0.090724
vt 0.490089 0.090724
vt 0.500000 0.089977
vt 0.509713 0.082236
vt 0.490287 0.082236
vt 0.505196 0.077083
vt 0.494804 0.077083
vt 0.500000 0.073497
vt 0.500000 0.075473
vt 0.500000 0.080320
vt 0.496555 0.080840
vt 0.506660 0.083289
vt 0.503445 0.080840
vt 0.493340 0.083289
vt 0.506822 0.086791
vt 0.493178 0.086791
vt 0.500000 0.085637
vt 0.562361 0.284338
vt 0.559190 0.294882
vt 0.437639 0.284338
vt 0.440810 0.294882
vt 0.563180 0.307151
vt 0.436820 0.307151
vt 0.570458 0.318697
vt 0.429542 0.318697
vt 0.430757 0.278245
vt 0.589914 0.271772
vt 0.569243 0.278245
vt 0.410086 0.271772
vt 0.602190 0.277180
vt 0.397810 0.277180
vt 0.617110 0.287175
vt 0.382890 0.287175
vt 0.618074 0.299197
vt 0.381926 0.299197
vt 0.384129 0.307438
vt 0.615871 0.307438
vt 0.401576 0.313725
vt 0.590828 0.319797
vt 0.598424 0.313725
vt 0.409172 0.319797
vt 0.582130 0.320991
vt 0.417870 0.320991
vt 0.583998 0.312892
vt 0.416002 0.312892
vt 0.421385 0.309394
vt 0.589656 0.312336
vt 0.410344 0.312336
vt 0.596347 0.309249
vt 0.403653 0.309249
vt 0.606014 0.302517
vt 0.393986 0.302517
vt 0.607735 0.297520
vt 0.392265 0.297520
vt 0.606985 0.291216
vt 0.393015 0.291216
vt 0.598275 0.283083
vt 0.401725 0.283083
vt 0.589866 0.280167
vt 0.410134 0.280167
vt 0.576352 0.284624
vt 0.423648 0.284624
vt 0.572831 0.289915
vt 0.427169 0.289915
vt 0.573307 0.303342
vt 0.578615 0.309394
vt 0.426693 0.303342
vt 0.572447 0.295716
vt 0.427553 0.295716
vt 0.529647 0.428636
vt 0.500000 0.428636
vt 0.470353 0.428636
vt 0.584616 0.428636
vt 0.415384 0.428636
vt 0.397739 0.395588
vt 0.377699 0.417889
vt 0.622301 0.417889
vt 0.333786 0.388954
vt 0.666214 0.388954
vt 0.298519 0.344467
vt 0.712163 0.315527
vt 0.701481 0.344467
vt 0.287837 0.315527
vt 0.310499 0.268805
vt 0.295695 0.260225
vt 0.672947 0.224880
vt 0.704305 0.260225
vt 0.327053 0.224880
vt 0.640497 0.198841
vt 0.359503 0.198841
vt 0.625128 0.029461
vt 0.598617 0.056841
vt 0.603553 0.023452
vt 0.374872 0.029461
vt 0.401383 0.056841
vt 0.364247 0.082198
vt 0.556354 0.040906
vt 0.546781 0.009442
vt 0.396447 0.023452
vt 0.443646 0.040906
vt 0.527159 0.049514
vt 0.500000 0.033223
vt 0.453219 0.009442
vt 0.472841 0.049514
vt 0.537222 0.060794
vt 0.462778 0.060794
vt 0.558499 0.065137
vt 0.441501 0.065137
vt 0.588127 0.085177
vt 0.411873 0.085177
vt 0.635753 0.082198
vt 0.607239 0.113940
vt 0.392761 0.113940
vt 0.612663 0.133675
vt 0.387337 0.133675
vt 0.394533 0.151503
vt 0.600708 0.162985
vt 0.399292 0.162985
vt 0.373395 0.208159
vt 0.859647 0.117994
vt 0.861342 0.027230
vt 0.922374 0.064228
vt 0.140353 0.117994
vt 0.138658 0.027230
vt 0.176713 0.101559
vt 0.823287 0.101559
vt 0.774604 0.010837
vt 0.225396 0.010837
vt 0.234137 0.087001
vt 0.661952 0.087561
vt 0.647010 0.028716
vt 0.338048 0.087561
vt 0.352990 0.028716
vt 0.743592 0.198572
vt 0.766410 0.233065
vt 0.256408 0.198572
vt 0.233590 0.233065
vt 0.889478 0.177602
vt 0.987633 0.154243
vt 0.110522 0.177602
vt 0.077626 0.064228
vt 0.844317 0.347370
vt 0.958963 0.357385
vt 0.899807 0.420886
vt 0.155683 0.347370
vt 0.041037 0.357385
vt 0.118831 0.309153
vt 0.903302 0.261367
vt 0.999860 0.253531
vt 0.096698 0.261367
vt 0.000140 0.253531
vt 0.012367 0.154243
vt 0.724763 0.340212
vt 0.744725 0.304629
vt 0.766113 0.319494
vt 0.255275 0.304629
vt 0.275237 0.340212
vt 0.233887 0.319494
vt 0.793427 0.280495
vt 0.826663 0.297810
vt 0.206573 0.280495
vt 0.173337 0.297810
vt 0.823620 0.254612
vt 0.855331 0.267956
vt 0.176380 0.254612
vt 0.144669 0.267956
vt 0.835860 0.225225
vt 0.868309 0.233525
vt 0.164140 0.225225
vt 0.131691 0.233525
vt 0.851288 0.181145
vt 0.813499 0.190705
vt 0.148712 0.181145
vt 0.881169 0.309153
vt 0.772263 0.374010
vt 0.744519 0.390057
vt 0.227737 0.374010
vt 0.824765 0.470987
vt 0.100193 0.420886
vt 0.792141 0.464714
vt 0.726855 0.432574
vt 0.273145 0.432574
vt 0.207859 0.464714
vt 0.255481 0.390057
vt 0.175235 0.470987
vt 0.795638 0.489991
vt 0.204362 0.489991
vt 0.786137 0.227788
vt 0.213863 0.227788
vt 0.802950 0.203415
vt 0.197050 0.203415
vt 0.765863 0.087001
vt 0.691484 0.146686
vt 0.308516 0.146686
vt 0.230666 0.128771
vt 0.780113 0.169386
vt 0.219887 0.169386
vt 0.605467 0.151503
vt 0.803789 0.171181
vt 0.196211 0.171181
vt 0.169083 0.139518
vt 0.769334 0.128771
vt 0.830917 0.139518
vt 0.464516 0.959188
vt 0.545439 0.884582
vt 0.574628 0.959188
vt 0.285710 0.959188
vt 0.204787 0.884582
vt 0.272900 0.891852
vt 0.605134 0.846978
vt 0.715894 0.897069
vt 0.145092 0.846978
vt 0.175598 0.959188
vt 0.034332 0.897069
vt 0.683874 0.757011
vt 0.066352 0.757011
vt 0.144866 0.784410
vt 0.605360 0.784410
vt 0.617867 0.719156
vt 0.132359 0.719156
vt 0.175391 0.744212
vt 0.574835 0.744212
vt 0.568728 0.682132
vt 0.181498 0.682132
vt 0.215230 0.712528
vt 0.483006 0.686791
vt 0.508539 0.641024
vt 0.267220 0.686791
vt 0.241687 0.641024
vt 0.534996 0.712528
vt 0.478880 0.719593
vt 0.271346 0.719593
vt 0.513415 0.736977
vt 0.236811 0.736977
vt 0.557599 0.789442
vt 0.192627 0.789442
vt 0.209109 0.760754
vt 0.553841 0.821849
vt 0.196385 0.821849
vt 0.524671 0.842380
vt 0.225555 0.842380
vt 0.485193 0.845321
vt 0.265033 0.845321
vt 0.770208 0.191225
vt 0.229792 0.191225
vt 0.213850 0.181127
vt 0.409610 0.674022
vt 0.408153 0.587507
vt 0.340616 0.674022
vt 0.400301 0.910556
vt 0.477326 0.891852
vt 0.349925 0.910556
vt 0.443630 0.713731
vt 0.306596 0.713731
vt 0.392812 0.710774
vt 0.429725 0.728622
vt 0.357414 0.710774
vt 0.422979 0.754609
vt 0.432640 0.746527
vt 0.320501 0.728622
vt 0.327247 0.754609
vt 0.317586 0.746527
vt 0.391578 0.815187
vt 0.427719 0.796173
vt 0.358648 0.815187
vt 0.448277 0.830976
vt 0.414155 0.878318
vt 0.301949 0.830976
vt 0.322507 0.796173
vt 0.336071 0.878318
vt 0.802580 0.199758
vt 0.197420 0.199758
vt 0.797710 0.195652
vt 0.202290 0.195652
vt 0.210391 0.184671
vt 0.786150 0.181127
vt 0.789609 0.184671
vt 0.466042 0.804091
vt 0.490498 0.816075
vt 0.284184 0.804091
vt 0.259728 0.816075
vt 0.302184 0.783921
vt 0.438745 0.764960
vt 0.448042 0.783921
vt 0.311481 0.764960
vt 0.305010 0.756351
vt 0.445216 0.756351
vt 0.300407 0.743458
vt 0.456307 0.732687
vt 0.449819 0.743458
vt 0.293919 0.732687
vt 0.475471 0.740871
vt 0.274755 0.740871
vt 0.514211 0.817769
vt 0.236015 0.817769
vt 0.527961 0.808598
vt 0.222265 0.808598
vt 0.530079 0.790754
vt 0.220147 0.790754
vt 0.518620 0.772385
vt 0.541117 0.760754
vt 0.231606 0.772385
vt 0.498668 0.755033
vt 0.251558 0.755033
vt 0.459660 0.770459
vt 0.290566 0.770459
vt 0.282197 0.756171
vt 0.468029 0.756171
vt 0.477354 0.785393
vt 0.272872 0.785393
vt 0.263059 0.769899
vt 0.504617 0.782999
vt 0.496545 0.797122
vt 0.245609 0.782999
vt 0.253681 0.797122
vt 0.513713 0.804019
vt 0.236513 0.804019
vt 0.234089 0.792591
vt 0.516137 0.792591
vt 0.574269 0.607668
vt 0.613510 0.655816
vt 0.175957 0.607668
vt 0.136716 0.655816
vt 0.644031 0.693270
vt 0.106195 0.693270
vt 0.668163 0.712097
vt 0.082063 0.712097
vt 0.676584 0.686010
vt 0.727131 0.698475
vt 0.073642 0.686010
vt 0.667013 0.640198
vt 0.729804 0.624370
vt 0.023095 0.698475
vt 0.083213 0.640198
vt 0.648152 0.594596
vt 0.721292 0.572934
vt 0.020422 0.624370
vt 0.102074 0.594596
vt 0.717709 0.538143
vt 0.630034 0.557583
vt 0.032517 0.538143
vt 0.028934 0.572934
vt 0.526877 0.539235
vt 0.120192 0.557583
vt 0.223349 0.539235
vt 0.342073 0.587507
vt 0.440865 0.334326
vt 0.186501 0.190705
vt 0.742181 0.461543
vt 0.257819 0.461543
vt 0.487167 0.769899
s 1
f 47/1/1 3/2/2 45/3/3
f 4/4/4 48/5/5 46/6/6
f 45/3/7 5/7/8 43/8/9
f 6/9/10 46/6/11 44/10/12
f 3/2/13 7/11/14 5/7/15
f 8/12/16 4/4/17 6/9/18
f 1/13/19 9/14/20 3/2/21
f 10/15/22 2/16/23 4/4/24
f 11/17/25 15/18/26 9/14/27
f 16/19/28 12/20/29 10/15/30
f 9/14/31 17/21/32 7/11/33
f 18/22/34 10/15/35 8/12/36
f 21/23/37 17/21/38 15/18/39
f 22/24/40 18/22/41 20/25/42
f 13/26/43 21/23/44 15/18/45
f 22/24/46 14/27/47 16/19/48
f 23/28/49 27/29/50 21/23/51
f 28/30/52 24/31/53 22/24/54
f 27/29/55 19/32/56 21/23/57
f 28/30/58 20/25/59 30/33/60
f 33/34/61 29/35/62 27/29/63
f 34/36/64 30/33/65 32/37/66
f 35/38/67 27/29/68 25/39/69
f 36/40/70 28/30/71 34/36/72
f 37/41/73 33/34/74 35/38/75
f 38/42/76 34/36/77 40/43/78
f 39/44/79 31/45/80 33/34/81
f 40/43/82 32/37/83 42/46/84
f 45/3/85 41/47/86 39/44/87
f 46/6/88 42/46/89 44/10/90
f 47/1/91 39/44/92 37/41/93
f 48/5/94 40/43/95 46/6/96
f 37/41/97 49/48/98 47/1/99
f 38/42/100 50/49/101 52/50/102
f 35/38/103 51/51/104 37/41/105
f 36/40/106 52/50/107 54/52/108
f 25/39/109 53/53/110 35/38/111
f 26/54/112 54/52/113 56/55/114
f 23/28/115 55/56/116 25/39/117
f 24/31/118 56/55/119 58/57/120
f 23/28/121 59/58/122 57/59/123
f 60/60/124 24/31/125 58/57/126
f 13/26/127 63/61/128 59/58/129
f 64/62/130 14/27/131 60/60/132
f 11/17/133 65/63/134 63/61/135
f 66/64/136 12/20/137 64/62/138
f 1/13/139 49/48/140 65/63/141
f 50/49/142 2/16/143 66/64/144
f 61/65/145 65/63/146 49/48/147
f 50/49/148 66/64/149 62/66/150
f 63/61/151 65/63/146 61/65/145
f 62/66/150 66/64/149 64/62/152
f 61/65/145 59/58/153 63/61/151
f 64/62/152 60/60/154 62/66/150
f 61/65/145 57/59/155 59/58/153
f 60/60/154 58/57/156 62/66/150
f 61/65/145 55/56/157 57/59/155
f 58/57/156 56/55/158 62/66/150
f 61/65/145 53/53/159 55/56/157
f 56/55/158 54/52/160 62/66/150
f 61/65/145 51/51/161 53/53/159
f 54/52/160 52/50/162 62/66/150
f 61/65/145 49/48/147 51/51/161
f 52/50/162 50/49/148 62/66/150
f 174/67/163 91/68/164 89/69/165
f 175/70/166 91/68/164 176/71/167
f 172/72/168 89/69/165 87/73/169
f 173/74/170 90/75/171 175/70/166
f 85/76/172 172/72/173 87/73/174
f 173/74/175 86/77/176 88/78/177
f 83/79/178 170/80/179 85/76/180
f 171/81/181 84/82/182 86/77/183
f 81/83/184 168/84/185 83/79/178
f 169/85/186 82/86/187 84/82/182
f 79/87/188 146/88/189 164/89/190
f 147/90/191 80/91/192 165/92/193
f 94/93/194 146/88/189 92/94/195
f 95/95/196 147/90/191 149/96/197
f 94/93/198 150/97/199 148/98/200
f 151/99/201 95/95/202 149/96/203
f 98/100/204 150/97/199 96/101/205
f 99/102/206 151/99/206 153/103/206
f 100/104/207 152/105/207 98/100/207
f 101/106/208 153/103/208 155/107/208
f 102/108/209 154/109/210 100/104/211
f 103/110/212 155/107/213 157/111/214
f 102/108/209 158/112/215 156/113/216
f 159/114/217 103/110/212 157/111/214
f 106/115/218 158/112/219 104/116/220
f 107/117/221 159/114/222 161/118/223
f 108/119/224 160/120/225 106/115/226
f 109/121/227 161/118/228 163/122/229
f 67/123/230 162/124/231 108/119/224
f 67/123/232 163/122/229 68/125/233
f 128/126/234 162/124/234 110/127/234
f 129/128/235 163/122/235 161/118/235
f 128/126/236 158/112/237 160/120/238
f 159/114/239 129/128/240 161/118/241
f 156/113/242 179/129/243 126/130/244
f 157/111/245 180/131/246 159/114/247
f 154/109/248 126/130/249 124/132/250
f 155/107/251 127/133/252 157/111/245
f 152/105/253 124/132/254 122/134/255
f 153/103/256 125/135/257 155/107/258
f 150/97/259 122/134/260 120/136/261
f 151/99/262 123/137/263 153/103/264
f 148/98/265 120/136/261 118/138/266
f 149/96/267 121/139/268 151/99/269
f 146/88/270 118/138/266 116/140/271
f 147/90/272 119/141/273 149/96/267
f 164/89/274 116/140/274 114/142/274
f 165/92/275 117/143/276 147/90/272
f 114/142/277 177/144/277 164/89/277
f 177/144/278 115/145/278 165/92/278
f 162/124/279 112/146/279 110/127/279
f 163/122/280 113/147/281 68/125/282
f 112/146/283 178/148/284 183/149/285
f 178/148/284 113/147/286 184/150/287
f 181/151/288 178/148/284 177/144/289
f 182/152/290 178/148/284 184/150/287
f 135/153/291 176/71/167 174/67/163
f 176/71/167 136/154/292 175/70/166
f 133/155/293 174/67/163 172/72/294
f 175/70/166 134/156/295 173/74/296
f 133/155/297 170/80/298 131/157/299
f 134/156/300 171/81/301 173/74/302
f 166/158/303 185/159/304 168/84/305
f 186/160/306 167/161/307 169/85/308
f 131/157/299 168/84/305 185/159/304
f 169/85/308 132/162/309 186/160/306
f 190/163/310 187/164/311 144/165/312
f 190/163/310 188/166/313 189/167/314
f 187/164/311 69/168/315 185/159/316
f 188/166/313 69/168/315 189/167/314
f 131/157/314 69/168/315 130/169/314
f 132/162/314 69/168/315 186/160/317
f 142/170/318 191/171/319 144/165/320
f 192/172/321 143/173/322 145/174/323
f 140/175/324 193/176/325 142/170/326
f 194/177/327 141/178/328 143/173/329
f 197/179/330 140/175/331 139/180/332
f 198/181/333 141/178/334 196/182/335
f 71/183/336 139/180/336 138/184/336
f 71/183/337 139/180/338 198/181/339
f 144/165/340 70/185/341 190/163/342
f 145/174/343 70/185/344 192/172/345
f 191/171/346 208/186/347 70/185/347
f 192/172/348 208/186/349 207/187/348
f 71/183/350 200/188/351 197/179/352
f 201/189/353 71/183/337 198/181/339
f 197/179/354 202/190/355 195/191/356
f 203/192/357 198/181/358 196/182/359
f 202/190/360 193/176/361 195/191/362
f 203/192/363 194/177/364 205/193/365
f 193/176/366 206/194/367 191/171/346
f 207/187/348 194/177/368 192/172/348
f 204/195/369 200/188/370 199/196/371
f 205/193/372 201/189/373 203/192/374
f 199/196/375 206/194/375 204/195/375
f 207/187/376 199/196/376 205/193/376
f 139/180/377 164/89/377 177/144/377
f 165/92/378 139/180/378 177/144/378
f 140/175/379 211/197/379 164/89/379
f 212/198/380 141/178/380 165/92/380
f 144/165/381 211/197/381 142/170/381
f 145/174/382 212/198/383 214/199/384
f 187/164/385 213/200/386 144/165/387
f 188/166/388 214/199/384 167/161/307
f 209/201/389 166/158/389 81/83/389
f 210/202/390 167/161/391 214/199/392
f 215/203/393 213/200/394 209/201/395
f 216/204/396 214/199/392 212/198/397
f 79/87/398 211/197/399 215/203/393
f 212/198/397 80/91/400 216/204/396
f 130/169/401 222/205/401 131/157/401
f 130/169/402 223/206/402 72/207/402
f 133/155/403 222/205/404 220/208/405
f 223/206/406 134/156/407 221/209/408
f 135/153/409 220/208/409 218/210/409
f 221/209/410 136/154/410 219/211/410
f 137/212/314 218/210/314 217/213/314
f 219/211/314 137/212/314 217/213/314
f 218/210/411 231/214/411 217/213/411
f 219/211/412 231/214/412 230/215/412
f 218/210/413 227/216/414 229/217/415
f 228/218/416 219/211/417 230/215/418
f 220/208/336 225/219/336 227/216/336
f 226/220/419 221/209/419 228/218/419
f 72/207/420 225/219/420 222/205/420
f 72/207/421 226/220/421 224/221/421
f 224/221/422 229/217/423 225/219/424
f 230/215/425 224/221/422 226/220/426
f 225/219/424 229/217/423 227/216/427
f 228/218/428 230/215/425 226/220/426
f 183/149/429 234/222/430 232/223/431
f 235/224/432 184/150/433 233/225/434
f 112/146/435 232/223/436 254/226/437
f 233/225/438 113/147/439 255/227/440
f 112/146/435 256/228/441 110/127/442
f 113/147/439 257/229/443 255/227/440
f 114/142/444 234/222/430 181/151/445
f 115/145/446 235/224/446 253/230/446
f 114/142/447 250/231/447 252/232/447
f 251/233/448 115/145/448 253/230/448
f 116/140/449 248/234/450 250/231/451
f 249/235/452 117/143/453 251/233/454
f 118/138/455 246/236/455 248/234/455
f 247/237/456 119/141/456 249/235/456
f 120/136/261 244/238/457 246/236/458
f 245/239/459 121/139/268 247/237/460
f 124/132/461 244/238/457 122/134/260
f 125/135/462 245/239/459 243/240/463
f 126/130/464 242/241/464 124/132/464
f 127/133/465 243/240/465 241/242/465
f 126/130/466 236/243/466 240/244/466
f 237/245/467 127/133/467 241/242/467
f 179/129/468 238/246/469 236/243/470
f 239/247/471 180/131/472 237/245/473
f 128/126/474 256/228/475 238/246/476
f 257/229/477 129/128/478 239/247/479
f 256/228/480 276/248/481 238/246/482
f 257/229/483 277/249/483 259/250/483
f 236/243/484 276/248/481 278/251/485
f 277/249/486 237/245/487 279/252/488
f 236/243/489 274/253/490 240/244/491
f 237/245/492 275/254/492 279/252/492
f 240/244/493 272/255/493 242/241/493
f 241/242/494 273/256/495 275/254/496
f 244/238/497 272/255/498 270/257/499
f 273/256/500 245/239/501 271/258/502
f 244/238/503 268/259/504 246/236/505
f 245/239/506 269/260/507 271/258/508
f 248/234/509 268/259/509 266/261/509
f 269/260/510 249/235/510 267/262/510
f 248/234/511 264/263/512 250/231/513
f 249/235/514 265/264/515 267/262/516
f 250/231/517 262/265/518 252/232/519
f 251/233/520 263/266/521 265/264/522
f 234/222/523 262/265/518 280/267/523
f 263/266/521 235/224/524 281/268/524
f 256/228/525 260/269/525 258/270/525
f 261/271/526 257/229/526 259/250/526
f 254/226/527 282/272/528 260/269/529
f 283/273/530 255/227/531 261/271/532
f 232/223/533 280/267/534 282/272/528
f 281/268/535 233/225/536 283/273/530
f 67/123/537 284/274/537 73/275/537
f 285/276/538 67/123/538 73/275/538
f 108/119/539 286/277/540 284/274/541
f 287/278/542 109/121/543 285/276/544
f 104/116/545 286/277/546 106/115/547
f 105/279/548 287/278/549 289/280/550
f 102/108/551 288/281/552 104/116/553
f 103/110/554 289/280/555 291/282/556
f 100/104/557 290/283/558 102/108/559
f 101/106/560 291/282/561 293/284/562
f 100/104/557 294/285/563 292/286/564
f 295/287/565 101/106/560 293/284/562
f 96/101/566 294/285/567 98/100/568
f 97/288/569 295/287/570 297/289/571
f 96/101/572 298/290/573 296/291/574
f 299/292/575 97/288/576 297/289/577
f 94/93/578 300/293/579 298/290/573
f 301/294/580 95/95/581 299/292/575
f 309/295/582 338/296/582 308/297/582
f 309/298/583 339/299/584 329/300/585
f 308/297/586 336/301/587 307/302/588
f 308/303/589 337/304/590 339/299/591
f 307/302/592 340/305/593 306/306/592
f 307/307/594 341/308/595 337/304/590
f 89/69/596 306/306/597 340/305/598
f 306/306/597 90/75/599 341/308/600
f 87/73/601 340/305/598 334/309/602
f 341/308/600 88/78/603 335/310/604
f 85/76/605 334/309/606 330/311/607
f 335/310/608 86/77/609 331/312/610
f 83/79/611 330/311/607 332/313/612
f 331/312/610 84/82/613 333/314/614
f 330/311/615 338/296/616 332/313/617
f 339/299/591 331/312/618 333/314/619
f 334/309/620 336/301/587 330/311/615
f 335/310/621 337/304/621 341/308/621
f 332/313/612 328/315/622 326/316/623
f 333/314/624 329/300/585 339/299/584
f 81/83/625 332/313/612 326/316/623
f 333/314/614 82/86/626 327/317/627
f 342/318/628 215/203/629 209/201/630
f 343/319/631 216/204/632 345/320/633
f 326/316/634 209/201/630 81/83/635
f 327/317/636 210/202/637 343/319/631
f 215/203/638 346/321/638 79/87/638
f 216/204/632 347/322/639 345/320/633
f 346/321/640 92/94/640 79/87/640
f 347/322/641 93/323/642 301/294/580
f 324/324/643 304/325/644 77/326/645
f 325/327/646 304/328/647 353/329/648
f 352/330/649 78/331/650 304/325/651
f 353/329/652 78/332/653 351/333/654
f 78/331/655 348/334/656 305/335/657
f 349/336/658 78/332/659 305/337/660
f 305/335/657 328/315/661 309/295/662
f 329/300/663 305/337/660 309/298/664
f 328/315/622 342/318/665 326/316/623
f 329/300/666 343/319/667 349/336/668
f 296/291/669 318/338/669 310/339/669
f 319/340/670 297/289/670 311/341/670
f 316/342/671 77/326/672 76/343/673
f 317/344/674 77/345/675 325/327/646
f 358/346/676 303/347/677 302/348/678
f 359/349/679 303/350/680 357/351/681
f 303/347/682 354/352/683 75/353/684
f 355/354/685 303/350/686 75/355/687
f 75/353/688 316/342/689 76/343/690
f 317/344/691 75/355/692 76/356/693
f 292/357/564 362/358/694 364/359/695
f 363/360/696 293/361/562 365/362/697
f 364/359/698 368/363/698 366/364/698
f 369/365/699 365/362/699 367/366/699
f 366/364/700 370/367/701 372/368/702
f 371/369/703 367/366/704 373/370/705
f 372/368/706 376/371/707 374/372/708
f 377/373/709 373/370/710 375/374/711
f 378/375/712 376/371/713 314/376/714
f 379/377/715 377/373/716 375/374/717
f 316/342/718 374/372/719 378/375/712
f 375/374/717 317/344/720 379/377/715
f 354/352/721 372/368/706 374/372/708
f 373/370/710 355/354/722 375/374/711
f 356/378/723 366/364/700 372/368/702
f 367/366/704 357/351/724 373/370/705
f 358/346/725 364/359/726 366/364/727
f 365/362/728 359/349/729 367/366/730
f 292/357/564 360/379/731 290/380/558
f 293/361/562 361/381/732 365/362/697
f 360/379/733 302/348/734 74/382/735
f 361/381/736 302/383/737 359/349/738
f 284/384/739 288/385/740 290/380/741
f 289/386/742 285/387/743 291/388/744
f 284/384/745 360/379/733 74/382/735
f 361/381/736 285/387/746 74/389/747
f 73/390/748 284/384/748 74/382/748
f 74/389/749 285/387/749 73/391/749
f 296/291/750 362/358/751 294/285/567
f 297/289/752 363/360/753 311/341/754
f 310/339/755 368/363/756 362/358/757
f 369/365/758 311/341/754 363/360/753
f 312/392/759 370/367/760 368/363/756
f 371/369/761 313/393/762 369/365/758
f 376/371/763 382/394/764 314/376/765
f 377/373/766 383/395/767 371/369/768
f 350/396/769 384/397/770 348/334/771
f 351/333/772 385/398/773 387/399/774
f 384/397/770 320/400/775 318/338/776
f 385/398/773 321/401/777 387/399/778
f 298/290/779 384/397/770 318/338/776
f 385/398/773 299/292/780 319/340/781
f 300/293/782 342/318/783 384/397/770
f 343/319/667 301/294/784 385/398/773
f 342/318/783 348/334/771 384/397/770
f 385/398/773 349/336/668 343/319/667
f 300/293/785 346/321/786 344/402/787
f 345/320/788 347/322/789 301/294/790
f 322/403/791 378/375/792 314/376/793
f 323/404/794 379/377/795 381/405/796
f 378/375/792 324/324/643 316/342/671
f 379/377/795 325/327/646 381/405/796
f 386/406/797 322/403/797 320/400/797
f 387/399/798 323/404/798 381/405/798
f 352/330/799 386/406/800 350/396/801
f 353/329/802 387/399/803 381/405/804
f 324/324/643 380/407/805 352/330/806
f 353/329/648 381/405/796 325/327/646
f 388/408/807 402/409/808 400/410/809
f 389/411/810 403/412/811 415/413/812
f 400/410/809 404/414/813 398/415/814
f 405/416/815 401/417/816 399/418/817
f 404/414/813 396/419/818 398/415/814
f 405/416/819 397/420/820 407/421/821
f 406/422/822 394/423/823 396/419/824
f 407/421/821 395/424/825 409/425/826
f 408/426/827 392/427/828 394/423/823
f 409/425/829 393/428/830 411/429/831
f 392/427/832 412/430/833 390/431/834
f 413/432/835 393/428/830 391/433/836
f 410/434/837 418/435/837 412/430/837
f 419/436/838 411/429/838 413/432/838
f 408/426/839 420/437/840 410/434/841
f 421/438/842 409/425/843 411/429/844
f 424/439/845 408/426/846 406/422/847
f 425/440/848 409/425/849 423/441/850
f 426/442/851 406/422/852 404/414/853
f 427/443/854 407/421/855 425/440/856
f 428/444/857 404/414/858 402/409/859
f 429/445/860 405/416/861 427/443/862
f 402/409/863 416/446/864 428/444/865
f 417/447/866 403/412/867 429/445/868
f 320/400/869 442/448/869 318/338/869
f 321/401/870 443/449/870 445/450/870
f 390/431/871 444/451/872 320/452/873
f 391/433/874 445/453/875 413/432/876
f 310/339/877 442/448/878 312/392/879
f 443/449/880 311/341/881 313/393/882
f 382/454/883 414/455/883 388/408/883
f 415/413/884 383/456/884 389/411/884
f 412/430/885 440/457/885 444/451/885
f 441/458/886 413/432/886 445/453/886
f 446/459/887 440/457/887 438/460/887
f 447/461/888 441/458/888 445/453/888
f 434/462/314 438/460/314 436/463/314
f 439/464/314 435/465/314 437/466/314
f 448/467/889 434/462/890 432/468/891
f 449/469/892 435/465/892 447/461/892
f 448/467/893 450/470/894 430/471/895
f 449/469/896 451/472/897 433/473/898
f 430/471/899 416/446/864 414/455/900
f 431/474/901 417/447/902 451/472/903
f 312/392/904 430/475/904 382/394/904
f 431/476/905 313/393/905 383/395/905
f 442/448/878 448/477/906 312/392/879
f 443/449/880 449/478/907 447/479/908
f 442/448/909 444/480/909 446/481/909
f 447/479/910 445/450/910 443/449/910
f 416/446/911 452/482/912 476/483/913
f 453/484/914 417/447/915 477/485/916
f 432/468/917 452/482/912 450/470/918
f 433/473/919 453/484/914 463/486/920
f 432/468/917 460/487/921 462/488/922
f 461/489/923 433/473/919 463/486/920
f 436/463/924 460/487/925 434/462/926
f 437/466/927 461/489/928 459/490/929
f 438/460/930 458/491/931 436/463/932
f 439/464/933 459/490/934 457/492/935
f 438/460/936 454/493/937 456/494/938
f 455/495/939 439/464/940 457/492/941
f 440/457/942 474/496/943 454/493/944
f 475/497/945 441/458/946 455/495/944
f 428/444/947 476/483/913 464/498/948
f 477/485/916 429/445/949 465/499/950
f 426/442/951 464/498/952 466/500/953
f 465/499/954 427/443/955 467/501/956
f 424/439/957 466/500/958 468/502/959
f 467/501/960 425/440/961 469/503/962
f 424/439/963 470/504/964 422/505/965
f 425/440/966 471/506/967 469/503/968
f 422/505/969 472/507/969 420/437/969
f 423/441/970 473/508/970 471/506/970
f 420/437/971 474/496/943 418/435/972
f 421/438/973 475/497/945 473/508/974
f 456/494/975 478/509/976 458/491/977
f 457/492/978 479/510/979 481/511/980
f 480/512/981 484/513/982 478/509/976
f 481/511/980 485/514/983 483/515/984
f 484/513/982 488/516/985 486/517/986
f 489/518/987 485/514/983 487/519/988
f 488/516/985 492/520/989 486/517/986
f 489/518/987 493/521/990 491/522/991
f 464/498/992 486/517/992 492/520/992
f 487/519/993 465/499/993 493/521/993
f 484/513/982 476/483/994 452/482/995
f 485/514/983 477/485/996 487/519/988
f 462/488/997 484/513/982 452/482/995
f 463/486/998 485/514/983 479/510/979
f 458/491/977 462/488/999 460/487/314
f 463/486/998 459/490/1000 461/489/314
f 474/496/1001 456/494/1002 454/493/1003
f 475/497/1004 457/492/1005 481/511/1006
f 472/507/1007 480/512/1007 474/496/1007
f 481/511/1008 473/508/1008 475/497/1008
f 488/516/985 472/507/1009 470/504/1010
f 489/518/987 473/508/1011 483/515/984
f 490/523/1012 470/504/1012 468/502/1012
f 491/522/1013 471/506/1013 489/518/1013
f 466/500/1014 490/523/1015 468/502/1016
f 491/522/1017 467/501/1018 469/503/1019
f 464/498/1020 492/520/1020 466/500/1020
f 467/501/1021 493/521/1021 465/499/1021
f 392/427/1022 504/524/1023 502/525/1024
f 505/526/1025 393/428/1026 503/527/1027
f 394/423/1028 502/525/1029 500/528/1030
f 503/527/1031 395/424/1032 501/529/1033
f 394/423/1034 498/530/1035 396/419/1036
f 395/424/1037 499/531/1038 501/529/1039
f 396/419/1040 496/532/1041 398/533/1042
f 397/420/1043 497/534/1044 499/531/1045
f 398/533/1046 494/535/1047 400/536/1048
f 399/537/1049 495/538/1050 497/534/1051
f 400/536/1048 506/539/1052 388/540/1053
f 401/541/1054 507/542/1055 495/538/1050
f 502/525/1056 506/539/1057 494/535/1058
f 503/527/1059 507/542/1060 505/526/1061
f 494/535/1062 500/528/1063 502/525/1064
f 501/529/1065 495/538/1066 503/527/1067
f 496/532/1068 498/530/1068 500/528/1068
f 501/529/1069 499/531/1069 497/534/1069
f 382/543/1070 506/539/1071 314/544/1072
f 383/545/1073 507/542/1074 389/546/1075
f 314/544/793 504/524/1076 322/547/791
f 505/526/1077 315/548/1078 323/549/794
f 320/452/1079 504/524/1023 390/431/1080
f 505/526/1025 321/550/1081 391/433/1082
f 47/1/1 1/13/1083 3/2/2
f 4/4/4 2/16/1084 48/5/5
f 45/3/7 3/2/1085 5/7/8
f 6/9/10 4/4/1086 46/6/11
f 3/2/13 9/14/1087 7/11/14
f 8/12/16 10/15/1088 4/4/17
f 1/13/19 11/17/1089 9/14/20
f 10/15/22 12/20/1090 2/16/23
f 11/17/25 13/26/1091 15/18/26
f 16/19/28 14/27/1092 12/20/29
f 9/14/31 15/18/1093 17/21/32
f 18/22/34 16/19/1094 10/15/35
f 21/23/37 19/32/1095 17/21/38
f 22/24/40 16/19/1096 18/22/41
f 13/26/43 23/28/1097 21/23/44
f 22/24/46 24/31/1098 14/27/47
f 23/28/49 25/39/1099 27/29/50
f 28/30/52 26/54/1100 24/31/53
f 27/29/55 29/35/1101 19/32/56
f 28/30/58 22/24/1102 20/25/59
f 33/34/61 31/45/1103 29/35/62
f 34/36/64 28/30/1104 30/33/65
f 35/38/67 33/34/1105 27/29/68
f 36/40/70 26/54/1106 28/30/71
f 37/41/73 39/44/1107 33/34/74
f 38/42/76 36/40/1108 34/36/77
f 39/44/79 41/47/1109 31/45/80
f 40/43/82 34/36/1110 32/37/83
f 45/3/85 43/8/1111 41/47/86
f 46/6/88 40/43/1112 42/46/89
f 47/1/91 45/3/1113 39/44/92
f 48/5/94 38/42/1114 40/43/95
f 37/41/97 51/51/1115 49/48/98
f 38/42/100 48/5/1116 50/49/101
f 35/38/103 53/53/1117 51/51/104
f 36/40/106 38/42/1118 52/50/107
f 25/39/109 55/56/1119 53/53/110
f 26/54/112 36/40/1120 54/52/113
f 23/28/115 57/59/1121 55/56/116
f 24/31/118 26/54/1122 56/55/119
f 23/28/121 13/26/1123 59/58/122
f 60/60/124 14/27/1124 24/31/125
f 13/26/127 11/17/1125 63/61/128
f 64/62/130 12/20/1126 14/27/131
f 11/17/133 1/13/1127 65/63/134
f 66/64/136 2/16/1128 12/20/137
f 1/13/139 47/1/1129 49/48/140
f 50/49/142 48/5/1130 2/16/143
f 174/67/163 176/71/167 91/68/164
f 175/70/166 90/75/171 91/68/164
f 172/72/168 174/67/163 89/69/165
f 173/74/170 88/78/1131 90/75/171
f 85/76/172 170/80/1132 172/72/173
f 173/74/175 171/81/1133 86/77/176
f 83/79/178 168/84/185 170/80/179
f 171/81/181 169/85/186 84/82/182
f 81/83/184 166/158/1134 168/84/185
f 169/85/186 167/161/1135 82/86/187
f 79/87/188 92/94/195 146/88/189
f 147/90/191 93/323/1136 80/91/192
f 94/93/194 148/98/1137 146/88/189
f 95/95/196 93/323/1136 147/90/191
f 94/93/198 96/101/205 150/97/199
f 151/99/201 97/288/1138 95/95/202
f 98/100/1139 152/105/1139 150/97/1139
f 99/102/1140 97/288/1138 151/99/201
f 100/104/1141 154/109/1141 152/105/1141
f 101/106/1142 99/102/1142 153/103/1142
f 102/108/209 156/113/216 154/109/210
f 103/110/212 101/106/1143 155/107/213
f 102/108/209 104/116/1144 158/112/215
f 159/114/217 105/279/1145 103/110/212
f 106/115/218 160/120/1146 158/112/219
f 107/117/221 105/279/1147 159/114/222
f 108/119/224 162/124/231 160/120/225
f 109/121/227 107/117/1148 161/118/228
f 67/123/230 68/125/1149 162/124/231
f 67/123/232 109/121/227 163/122/229
f 128/126/1150 160/120/1150 162/124/1150
f 129/128/1151 111/551/1151 163/122/1151
f 128/126/236 179/129/1152 158/112/237
f 159/114/239 180/131/1153 129/128/240
f 156/113/242 158/112/1154 179/129/243
f 157/111/245 127/133/252 180/131/246
f 154/109/1155 156/113/242 126/130/244
f 155/107/258 125/135/257 127/133/1156
f 152/105/1157 154/109/248 124/132/250
f 153/103/264 123/137/263 125/135/1158
f 150/97/1159 152/105/253 122/134/255
f 151/99/269 121/139/268 123/137/1160
f 148/98/265 150/97/259 120/136/261
f 149/96/267 119/141/273 121/139/268
f 146/88/270 148/98/265 118/138/266
f 147/90/272 117/143/276 119/141/273
f 164/89/1161 146/88/270 116/140/271
f 165/92/1162 115/145/1162 117/143/1162
f 114/142/1163 181/151/288 177/144/289
f 177/144/289 182/152/290 115/145/1164
f 162/124/1165 68/125/1166 112/146/1167
f 163/122/1168 111/551/1168 113/147/1168
f 112/146/1167 68/125/1166 178/148/1169
f 178/148/1170 68/125/282 113/147/281
f 181/151/288 183/149/285 178/148/284
f 182/152/290 177/144/289 178/148/284
f 135/153/291 137/212/1171 176/71/167
f 176/71/167 137/212/1171 136/154/292
f 133/155/293 135/153/291 174/67/163
f 175/70/166 136/154/292 134/156/295
f 133/155/297 172/72/1172 170/80/298
f 134/156/300 132/162/309 171/81/301
f 166/158/303 187/164/385 185/159/304
f 186/160/306 188/166/388 167/161/307
f 131/157/299 170/80/298 168/84/305
f 169/85/308 171/81/301 132/162/309
f 190/163/310 189/167/314 187/164/311
f 190/163/310 145/174/1173 188/166/313
f 187/164/311 189/167/314 69/168/315
f 188/166/313 186/160/317 69/168/315
f 131/157/314 185/159/316 69/168/315
f 132/162/314 130/169/314 69/168/315
f 142/170/318 193/176/1174 191/171/319
f 192/172/321 194/177/1175 143/173/322
f 140/175/324 195/191/1176 193/176/325
f 194/177/327 196/182/1177 141/178/328
f 197/179/330 195/191/1178 140/175/331
f 198/181/333 139/180/1179 141/178/334
f 71/183/350 197/179/352 139/180/1180
f 144/165/340 191/171/1181 70/185/341
f 145/174/343 190/163/1182 70/185/344
f 191/171/346 206/194/367 208/186/347
f 192/172/348 70/185/349 208/186/349
f 71/183/1183 199/196/1183 200/188/1183
f 201/189/1184 199/196/1184 71/183/1184
f 197/179/354 200/188/1185 202/190/355
f 203/192/357 201/189/1186 198/181/358
f 202/190/360 204/195/1187 193/176/361
f 203/192/363 196/182/1188 194/177/364
f 193/176/1189 204/195/1189 206/194/1189
f 207/187/1190 205/193/1190 194/177/1190
f 204/195/369 202/190/1191 200/188/370
f 205/193/372 199/196/1192 201/189/373
f 199/196/1193 208/186/1193 206/194/1193
f 207/187/1194 208/186/1194 199/196/1194
f 139/180/1195 140/175/1195 164/89/1195
f 165/92/1196 141/178/1196 139/180/1196
f 140/175/1197 142/170/1197 211/197/1197
f 212/198/1198 143/173/1198 141/178/1198
f 144/165/387 213/200/386 211/197/1199
f 145/174/1200 143/173/1200 212/198/1200
f 187/164/385 166/158/303 213/200/386
f 188/166/388 145/174/382 214/199/384
f 209/201/395 213/200/394 166/158/1201
f 210/202/1202 82/86/1202 167/161/1202
f 215/203/393 211/197/399 213/200/394
f 216/204/396 210/202/390 214/199/392
f 79/87/1203 164/89/1203 211/197/1203
f 212/198/1204 165/92/1204 80/91/1204
f 130/169/1205 72/207/1205 222/205/1205
f 130/169/1206 132/162/1206 223/206/1206
f 133/155/403 131/157/1207 222/205/404
f 223/206/406 132/162/1208 134/156/407
f 135/153/1209 133/155/403 220/208/405
f 221/209/408 134/156/407 136/154/1210
f 137/212/1211 135/153/1211 218/210/1211
f 219/211/1212 136/154/1212 137/212/1212
f 218/210/411 229/217/411 231/214/411
f 219/211/412 217/213/412 231/214/412
f 218/210/413 220/208/1213 227/216/414
f 228/218/416 221/209/1214 219/211/417
f 220/208/336 222/205/336 225/219/336
f 226/220/419 223/206/419 221/209/419
f 72/207/420 224/221/420 225/219/420
f 72/207/421 223/206/421 226/220/421
f 224/221/422 231/214/1215 229/217/423
f 230/215/425 231/214/1215 224/221/422
f 183/149/429 181/151/445 234/222/430
f 235/224/432 182/152/1216 184/150/433
f 112/146/1217 183/149/429 232/223/431
f 233/225/434 184/150/433 113/147/1218
f 112/146/435 254/226/437 256/228/441
f 113/147/439 111/551/1219 257/229/443
f 114/142/1220 252/232/1220 234/222/1220
f 115/145/1221 182/152/1216 235/224/432
f 114/142/1222 116/140/1222 250/231/1222
f 251/233/1223 117/143/1223 115/145/1223
f 116/140/449 118/138/1224 248/234/450
f 249/235/452 119/141/1225 117/143/453
f 118/138/1226 120/136/1226 246/236/1226
f 247/237/1227 121/139/1227 119/141/1227
f 120/136/261 122/134/260 244/238/457
f 245/239/459 123/137/1160 121/139/268
f 124/132/461 242/241/1228 244/238/457
f 125/135/462 123/137/1160 245/239/459
f 126/130/1229 240/244/1229 242/241/1229
f 127/133/1230 125/135/1230 243/240/1230
f 126/130/1231 179/129/468 236/243/470
f 237/245/473 180/131/472 127/133/1232
f 179/129/468 128/126/1233 238/246/469
f 239/247/471 129/128/1234 180/131/472
f 128/126/474 110/127/1235 256/228/475
f 257/229/477 111/551/1236 129/128/478
f 256/228/1237 258/270/1237 276/248/1237
f 257/229/1238 239/247/1239 277/249/486
f 236/243/484 238/246/482 276/248/481
f 277/249/486 239/247/1239 237/245/487
f 236/243/1240 278/251/1240 274/253/1240
f 237/245/1241 241/242/494 275/254/496
f 240/244/491 274/253/490 272/255/1242
f 241/242/1243 243/240/1243 273/256/1243
f 244/238/497 242/241/1244 272/255/498
f 273/256/500 243/240/1245 245/239/501
f 244/238/503 270/257/1246 268/259/504
f 245/239/506 247/237/1247 269/260/507
f 248/234/1248 246/236/1248 268/259/1248
f 269/260/1249 247/237/1249 249/235/1249
f 248/234/511 266/261/1250 264/263/512
f 249/235/514 251/233/1251 265/264/515
f 250/231/517 264/263/1252 262/265/518
f 251/233/520 253/230/1253 263/266/521
f 234/222/523 252/232/519 262/265/518
f 263/266/521 253/230/1253 235/224/524
f 256/228/1254 254/226/1254 260/269/1254
f 261/271/1255 255/227/1255 257/229/1255
f 254/226/527 232/223/533 282/272/528
f 283/273/530 233/225/536 255/227/531
f 232/223/533 234/222/1256 280/267/534
f 281/268/535 235/224/1257 233/225/536
f 67/123/1258 108/119/1258 284/274/1258
f 285/276/1259 109/121/1259 67/123/1259
f 108/119/539 106/115/1260 286/277/540
f 287/278/542 107/117/1261 109/121/543
f 104/116/545 288/281/1262 286/277/546
f 105/279/548 107/117/1263 287/278/549
f 102/108/551 290/283/1264 288/281/552
f 103/110/554 105/279/1265 289/280/555
f 100/104/557 292/286/564 290/283/558
f 101/106/560 103/110/1266 291/282/561
f 100/104/557 98/100/1267 294/285/563
f 295/287/565 99/102/1268 101/106/560
f 96/101/566 296/291/750 294/285/567
f 97/288/569 99/102/1269 295/287/570
f 96/101/572 94/93/578 298/290/573
f 299/292/575 95/95/581 97/288/576
f 94/93/578 92/94/1270 300/293/579
f 301/294/580 93/323/642 95/95/581
f 309/295/1271 328/315/1272 338/296/1273
f 309/298/1274 308/303/1274 339/299/1274
f 308/297/586 338/296/616 336/301/587
f 308/303/589 307/307/594 337/304/590
f 307/302/588 336/301/587 340/305/1275
f 307/307/592 306/306/592 341/308/1276
f 89/69/596 91/68/1277 306/306/597
f 306/306/597 91/68/1277 90/75/599
f 87/73/601 89/69/596 340/305/598
f 341/308/600 90/75/599 88/78/603
f 85/76/1278 87/73/1278 334/309/1278
f 335/310/1279 88/78/1279 86/77/1279
f 83/79/611 85/76/605 330/311/607
f 331/312/610 86/77/609 84/82/613
f 330/311/615 336/301/587 338/296/616
f 339/299/591 337/304/590 331/312/618
f 334/309/1280 340/305/1280 336/301/1280
f 335/310/1281 331/312/618 337/304/590
f 332/313/1282 338/296/1273 328/315/1272
f 333/314/614 327/317/627 329/300/1283
f 81/83/625 83/79/611 332/313/612
f 333/314/614 84/82/613 82/86/626
f 342/318/628 344/402/1284 215/203/629
f 343/319/631 210/202/637 216/204/632
f 326/316/634 342/318/628 209/201/630
f 327/317/636 82/86/1285 210/202/637
f 215/203/629 344/402/1284 346/321/1286
f 216/204/1287 80/91/1287 347/322/1287
f 346/321/1288 300/293/579 92/94/1270
f 347/322/1289 80/91/1289 93/323/1289
f 324/324/643 352/330/806 304/325/644
f 325/327/646 77/345/1290 304/328/647
f 352/330/649 350/396/1291 78/331/650
f 353/329/652 304/328/1292 78/332/653
f 78/331/655 350/396/1293 348/334/656
f 349/336/658 351/333/1294 78/332/659
f 305/335/657 348/334/656 328/315/661
f 329/300/663 349/336/658 305/337/660
f 328/315/1295 348/334/771 342/318/783
f 329/300/1283 327/317/627 343/319/1296
f 296/291/1297 298/290/1297 318/338/1297
f 319/340/1298 299/292/1298 297/289/1298
f 316/342/671 324/324/643 77/326/672
f 317/344/674 76/356/1299 77/345/675
f 358/346/676 356/378/1300 303/347/677
f 359/349/679 302/383/1301 303/350/680
f 303/347/682 356/378/1302 354/352/683
f 355/354/685 357/351/1303 303/350/686
f 75/353/688 354/352/1304 316/342/689
f 317/344/691 355/354/1305 75/355/692
f 292/357/564 294/285/563 362/358/694
f 363/360/696 295/287/565 293/361/562
f 364/359/1306 362/358/1306 368/363/1306
f 369/365/1307 363/360/1307 365/362/1307
f 366/364/700 368/363/1308 370/367/701
f 371/369/703 369/365/1309 367/366/704
f 372/368/706 370/367/1310 376/371/707
f 377/373/709 371/369/1311 373/370/710
f 378/375/712 374/372/719 376/371/713
f 379/377/715 315/552/1312 377/373/716
f 316/342/689 354/352/1304 374/372/1313
f 375/374/1314 355/354/1305 317/344/691
f 354/352/721 356/378/1315 372/368/706
f 373/370/710 357/351/1316 355/354/722
f 356/378/723 358/346/1317 366/364/700
f 367/366/704 359/349/1318 357/351/724
f 358/346/725 360/379/1319 364/359/726
f 365/362/728 361/381/1320 359/349/729
f 292/357/564 364/359/695 360/379/731
f 293/361/562 291/388/561 361/381/732
f 360/379/733 358/346/1321 302/348/734
f 361/381/736 74/389/747 302/383/737
f 284/384/739 286/553/1322 288/385/740
f 289/386/742 287/554/1323 285/387/743
f 284/384/1324 290/380/1324 360/379/1324
f 361/381/1325 291/388/1325 285/387/1325
f 296/291/1326 310/339/755 362/358/757
f 297/289/571 295/287/570 363/360/1327
f 310/339/755 312/392/759 368/363/756
f 369/365/758 313/393/762 311/341/754
f 312/392/1328 382/394/764 370/367/1329
f 371/369/768 383/395/767 313/393/1330
f 376/371/763 370/367/1329 382/394/764
f 377/373/766 315/552/1331 383/395/767
f 350/396/769 386/406/1332 384/397/770
f 351/333/772 349/336/668 385/398/773
f 384/397/770 386/406/1333 320/400/775
f 385/398/773 319/340/781 321/401/777
f 298/290/779 300/293/782 384/397/770
f 385/398/773 301/294/784 299/292/780
f 300/293/785 344/402/787 342/318/1334
f 343/319/1335 345/320/788 301/294/790
f 322/403/791 380/407/805 378/375/792
f 323/404/794 315/552/1078 379/377/795
f 378/375/792 380/407/805 324/324/643
f 379/377/795 317/344/674 325/327/646
f 386/406/1336 380/407/1336 322/403/1336
f 387/399/1337 321/401/1337 323/404/1337
f 352/330/799 380/407/1338 386/406/800
f 353/329/802 351/333/1339 387/399/803
f 388/408/807 414/455/1340 402/409/808
f 389/411/810 401/417/816 403/412/811
f 400/410/809 402/409/808 404/414/813
f 405/416/815 403/412/811 401/417/816
f 404/414/1341 406/422/822 396/419/824
f 405/416/815 399/418/817 397/420/1342
f 406/422/822 408/426/827 394/423/823
f 407/421/821 397/420/820 395/424/825
f 408/426/1343 410/434/1344 392/427/832
f 409/425/826 395/424/825 393/428/1345
f 392/427/832 410/434/1344 412/430/833
f 413/432/835 411/429/831 393/428/830
f 410/434/1346 420/437/1346 418/435/1346
f 419/436/1347 421/438/1347 411/429/1347
f 408/426/839 422/505/1348 420/437/840
f 421/438/842 423/441/1349 409/425/843
f 424/439/845 422/505/1350 408/426/846
f 425/440/848 407/421/1351 409/425/849
f 426/442/851 424/439/1352 406/422/852
f 427/443/854 405/416/1353 407/421/855
f 428/444/857 426/442/1354 404/414/858
f 429/445/860 403/412/1355 405/416/861
f 402/409/863 414/455/900 416/446/864
f 417/447/866 415/413/1356 403/412/867
f 320/400/1357 444/480/1357 442/448/1357
f 321/401/1358 319/340/1358 443/449/1358
f 390/431/871 412/430/1359 444/451/872
f 391/433/874 321/550/1360 445/453/875
f 310/339/877 318/338/1361 442/448/878
f 443/449/880 319/340/1362 311/341/881
f 382/454/1363 430/471/1363 414/455/1363
f 415/413/1364 431/474/1364 383/456/1364
f 412/430/1365 418/435/1365 440/457/1365
f 441/458/1366 419/436/1366 413/432/1366
f 446/459/1367 444/451/1367 440/457/1367
f 447/461/1368 439/464/1368 441/458/1368
f 434/462/1369 446/459/1369 438/460/1369
f 439/464/1370 447/461/1370 435/465/1370
f 448/467/1371 446/459/1371 434/462/1371
f 449/469/896 433/473/898 435/465/1372
f 448/467/889 432/468/891 450/470/1373
f 449/469/1374 431/474/901 451/472/903
f 430/471/895 450/470/894 416/446/1375
f 431/474/1376 415/413/1356 417/447/866
f 312/392/879 448/477/906 430/475/1377
f 431/476/1378 449/478/907 313/393/882
f 442/448/878 446/481/1379 448/477/906
f 443/449/880 313/393/882 449/478/907
f 416/446/911 450/470/918 452/482/912
f 453/484/914 451/472/1380 417/447/915
f 432/468/917 462/488/922 452/482/912
f 433/473/919 451/472/1380 453/484/914
f 432/468/917 434/462/921 460/487/921
f 461/489/923 435/465/923 433/473/919
f 436/463/924 458/491/1381 460/487/925
f 437/466/927 435/465/1382 461/489/928
f 438/460/930 456/494/1383 458/491/931
f 439/464/933 437/466/1384 459/490/934
f 438/460/936 440/457/1385 454/493/937
f 455/495/939 441/458/1386 439/464/940
f 440/457/942 418/435/972 474/496/943
f 475/497/945 419/436/1387 441/458/946
f 428/444/947 416/446/911 476/483/913
f 477/485/916 417/447/915 429/445/949
f 426/442/951 428/444/1388 464/498/952
f 465/499/954 429/445/1389 427/443/955
f 424/439/957 426/442/1390 466/500/958
f 467/501/960 427/443/1391 425/440/961
f 424/439/963 468/502/1392 470/504/964
f 425/440/966 423/441/1393 471/506/967
f 422/505/1394 470/504/1394 472/507/1394
f 423/441/1395 421/438/1395 473/508/1395
f 420/437/971 472/507/1396 474/496/943
f 421/438/973 419/436/1387 475/497/945
f 456/494/975 480/512/981 478/509/976
f 457/492/978 459/490/1000 479/510/979
f 480/512/981 482/555/1397 484/513/982
f 481/511/980 479/510/979 485/514/983
f 484/513/982 482/555/1397 488/516/985
f 489/518/987 483/515/984 485/514/983
f 488/516/985 490/523/1398 492/520/989
f 489/518/987 487/519/988 493/521/990
f 464/498/1399 476/483/1399 486/517/1399
f 487/519/1400 477/485/1400 465/499/1400
f 484/513/982 486/517/986 476/483/994
f 485/514/983 453/484/1401 477/485/996
f 462/488/999 478/509/976 484/513/982
f 463/486/1402 453/484/1401 485/514/983
f 458/491/977 478/509/976 462/488/999
f 463/486/998 479/510/979 459/490/1000
f 474/496/1001 480/512/1403 456/494/1002
f 475/497/1004 455/495/1404 457/492/1005
f 472/507/1009 482/555/1397 480/512/1405
f 481/511/1406 483/515/984 473/508/1011
f 488/516/985 482/555/1397 472/507/1009
f 489/518/987 471/506/1407 473/508/1011
f 490/523/1408 488/516/1408 470/504/1408
f 491/522/1409 469/503/1409 471/506/1409
f 466/500/1014 492/520/1410 490/523/1015
f 491/522/1017 493/521/1411 467/501/1018
f 392/427/1022 390/431/1080 504/524/1023
f 505/526/1025 391/433/1082 393/428/1026
f 394/423/1028 392/427/1412 502/525/1029
f 503/527/1031 393/428/1413 395/424/1032
f 394/423/1034 500/528/1414 498/530/1035
f 395/424/1037 397/420/1415 499/531/1038
f 396/419/1040 498/530/1416 496/532/1041
f 397/420/1043 399/537/1417 497/534/1044
f 398/533/1046 496/532/1418 494/535/1047
f 399/537/1049 401/541/1054 495/538/1050
f 400/536/1048 494/535/1047 506/539/1052
f 401/541/1054 389/546/1419 507/542/1055
f 502/525/1056 504/524/1420 506/539/1057
f 503/527/1059 495/538/1421 507/542/1060
f 494/535/1062 496/532/1422 500/528/1063
f 501/529/1065 497/534/1423 495/538/1066
f 382/543/1070 388/540/1424 506/539/1071
f 383/545/1073 315/548/1425 507/542/1074
f 314/544/1426 506/539/1426 504/524/1426
f 505/526/1427 507/542/1427 315/548/1427
f 320/452/1428 322/547/1428 504/524/1428
f 505/526/1429 323/549/1429 321/550/1429
