# Blender 4.3.2
# www.blender.org
o Plane.001
v 1.538571 2.752029 -6.478557
v 1.538571 2.338181 -6.892406
v 1.538571 1.797460 -7.116379
v 1.538571 1.504824 -7.145202
v 1.538571 1.212189 -7.116379
v 1.538571 0.671469 -6.892406
v 1.595662 2.976002 -5.932214
v 1.650558 2.890645 -6.208197
v 1.701151 2.752029 -6.462544
v 1.745496 2.565485 -6.685481
v 1.781889 2.338181 -6.868441
v 1.808931 2.078851 -7.004393
v 1.825584 1.797461 -7.088111
v 1.831207 1.504824 -7.116379
v 1.825584 1.212190 -7.088111
v 1.808931 0.930799 -7.004393
v 1.781889 0.671469 -6.868441
v 1.745496 0.444164 -6.685481
v 1.701151 0.257621 -6.462544
v 1.650558 0.119006 -6.208197
v 1.595662 0.033647 -5.932214
v 1.650558 2.976002 -5.915562
v 1.758241 2.890645 -6.175532
v 1.857483 2.752029 -6.415122
v 1.944469 2.565485 -6.625124
v 2.015856 2.338181 -6.797468
v 2.068902 2.078851 -6.925531
v 2.101567 1.797461 -7.004393
v 2.112597 1.504825 -7.031021
v 2.101567 1.212190 -7.004393
v 2.068902 0.930799 -6.925531
v 2.015856 0.671469 -6.797468
v 1.944469 0.444164 -6.625124
v 1.857483 0.257621 -6.415122
v 1.758241 0.119006 -6.175532
v 1.650558 0.033647 -5.915562
v 1.701151 2.976002 -5.888519
v 1.857483 2.890645 -6.122486
v 2.001559 2.752029 -6.338111
v 2.127843 2.565485 -6.527108
v 2.231481 2.338181 -6.682214
v 2.308491 2.078851 -6.797468
v 2.355914 1.797461 -6.868441
v 2.371927 1.504825 -6.892406
v 2.355914 1.212190 -6.868441
v 2.308491 0.930799 -6.797468
v 2.231481 0.671470 -6.682214
v 2.127843 0.444164 -6.527108
v 2.001559 0.257621 -6.338111
v 1.857483 0.119006 -6.122486
v 1.701151 0.033647 -5.888519
v 1.745496 2.976002 -5.852126
v 1.944469 2.890645 -6.051099
v 2.127843 2.752029 -6.234473
v 2.288572 2.565485 -6.395202
v 2.420478 2.338181 -6.527108
v 2.518494 2.078851 -6.625124
v 2.578851 1.797461 -6.685481
v 2.599232 1.504825 -6.705862
v 2.578851 1.212190 -6.685481
v 2.518494 0.930800 -6.625124
v 2.420478 0.671470 -6.527108
v 2.288572 0.444165 -6.395202
v 2.127843 0.257621 -6.234473
v 1.944469 0.119006 -6.051099
v 1.745496 0.033647 -5.852126
v 1.781889 2.976002 -5.807781
v 2.015856 2.890645 -5.964113
v 2.231481 2.752029 -6.108189
v 2.420478 2.565485 -6.234473
v 2.575584 2.338181 -6.338111
v 2.690838 2.078851 -6.415122
v 2.761811 1.797461 -6.462544
v 2.785776 1.504825 -6.478557
v 2.761811 1.212190 -6.462544
v 2.690838 0.930800 -6.415122
v 2.575584 0.671470 -6.338111
v 2.420478 0.444165 -6.234473
v 2.231481 0.257621 -6.108189
v 2.015856 0.119006 -5.964113
v 1.781889 0.033647 -5.807781
v 1.538571 3.004826 -5.645202
v 1.808931 2.976002 -5.757188
v 2.068902 2.890645 -5.864871
v 2.308491 2.752029 -5.964113
v 2.518494 2.565485 -6.051099
v 2.690838 2.338181 -6.122486
v 2.818902 2.078851 -6.175532
v 2.897763 1.797461 -6.208197
v 2.924391 1.504825 -6.219226
v 2.897763 1.212190 -6.208197
v 2.818902 0.930800 -6.175532
v 2.690838 0.671470 -6.122486
v 2.518494 0.444165 -6.051099
v 2.308491 0.257621 -5.964113
v 2.068902 0.119006 -5.864871
v 1.808931 0.033647 -5.757188
v 1.825584 2.976002 -5.702291
v 2.101567 2.890645 -5.757188
v 2.355914 2.752029 -5.807781
v 2.578851 2.565485 -5.852126
v 2.761811 2.338181 -5.888519
v 2.897763 2.078851 -5.915562
v 2.981481 1.797461 -5.932214
v 3.009749 1.504825 -5.937837
v 2.981481 1.212190 -5.932214
v 2.897763 0.930800 -5.915562
v 2.761811 0.671470 -5.888519
v 2.578851 0.444165 -5.852126
v 2.355914 0.257621 -5.807781
v 2.101567 0.119006 -5.757188
v 1.825584 0.033647 -5.702291
v 1.831207 2.976002 -5.645202
v 2.112597 2.890645 -5.645202
v 2.371927 2.752029 -5.645202
v 2.599232 2.565485 -5.645202
v 2.785776 2.338181 -5.645202
v 2.924391 2.078851 -5.645202
v 3.009749 1.797461 -5.645202
v 3.038571 1.504825 -5.645201
v 3.009749 1.212190 -5.645202
v 2.924391 0.930800 -5.645202
v 2.785776 0.671470 -5.645202
v 2.599232 0.444165 -5.645202
v 2.371927 0.257621 -5.645202
v 2.112597 0.119006 -5.645202
v 1.831207 0.033647 -5.645202
v 1.825584 2.976002 -5.588111
v 2.101567 2.890645 -5.533215
v 2.355914 2.752029 -5.482622
v 2.578851 2.565485 -5.438277
v 2.761811 2.338181 -5.401884
v 2.897763 2.078851 -5.374842
v 2.981481 1.797461 -5.358189
v 3.009749 1.504825 -5.352566
v 2.981481 1.212190 -5.358189
v 2.897763 0.930800 -5.374842
v 2.761811 0.671470 -5.401884
v 2.578851 0.444165 -5.438277
v 2.355914 0.257621 -5.482622
v 2.101567 0.119006 -5.533215
v 1.825584 0.033647 -5.588111
v 1.808931 2.976002 -5.533215
v 2.068902 2.890645 -5.425531
v 2.308491 2.752029 -5.326290
v 2.518494 2.565485 -5.239305
v 2.690838 2.338181 -5.167917
v 2.818902 2.078851 -5.114872
v 2.897763 1.797461 -5.082206
v 2.924390 1.504825 -5.071177
v 2.897763 1.212190 -5.082206
v 2.818902 0.930800 -5.114872
v 2.690838 0.671470 -5.167917
v 2.518494 0.444165 -5.239305
v 2.308491 0.257621 -5.326290
v 2.068902 0.119006 -5.425531
v 1.808931 0.033647 -5.533215
v 1.781889 2.976002 -5.482622
v 2.015856 2.890645 -5.326290
v 2.231481 2.752029 -5.182214
v 2.420478 2.565485 -5.055930
v 2.575584 2.338181 -4.952292
v 2.690838 2.078851 -4.875282
v 2.761811 1.797461 -4.827859
v 2.785775 1.504825 -4.811846
v 2.761811 1.212190 -4.827859
v 2.690838 0.930800 -4.875282
v 2.575584 0.671470 -4.952292
v 2.420478 0.444165 -5.055930
v 2.231481 0.257621 -5.182214
v 2.015856 0.119006 -5.326290
v 1.781889 0.033647 -5.482622
v 1.745496 2.976002 -5.438277
v 1.944468 2.890645 -5.239305
v 2.127842 2.752029 -5.055930
v 2.288572 2.565485 -4.895202
v 2.420478 2.338181 -4.763295
v 2.518494 2.078851 -4.665279
v 2.578851 1.797461 -4.604922
v 2.599231 1.504825 -4.584541
v 2.578851 1.212190 -4.604922
v 2.518494 0.930800 -4.665279
v 2.420478 0.671470 -4.763295
v 2.288572 0.444165 -4.895202
v 2.127842 0.257621 -5.055930
v 1.944468 0.119006 -5.239305
v 1.745496 0.033647 -5.438277
v 1.701151 2.976002 -5.401884
v 1.857483 2.890645 -5.167917
v 2.001559 2.752029 -4.952292
v 2.127843 2.565485 -4.763295
v 2.231481 2.338181 -4.608189
v 2.308491 2.078851 -4.492935
v 2.355914 1.797461 -4.421962
v 2.371926 1.504825 -4.397997
v 2.355914 1.212190 -4.421962
v 2.308491 0.930800 -4.492935
v 2.231481 0.671470 -4.608189
v 2.127843 0.444165 -4.763295
v 2.001559 0.257621 -4.952292
v 1.857483 0.119006 -5.167917
v 1.701151 0.033647 -5.401884
v 1.650558 2.976002 -5.374842
v 1.758241 2.890645 -5.114872
v 1.857483 2.752029 -4.875282
v 1.944469 2.565486 -4.665279
v 2.015856 2.338181 -4.492935
v 2.068902 2.078851 -4.364872
v 2.101567 1.797461 -4.286011
v 2.112596 1.504825 -4.259383
v 2.101567 1.212190 -4.286011
v 2.068902 0.930800 -4.364872
v 2.015856 0.671470 -4.492935
v 1.944469 0.444165 -4.665279
v 1.857483 0.257621 -4.875282
v 1.758241 0.119006 -5.114872
v 1.650558 0.033647 -5.374842
v 1.595662 2.976002 -5.358189
v 1.650558 2.890645 -5.082206
v 1.701151 2.752029 -4.827859
v 1.745496 2.565486 -4.604922
v 1.781889 2.338181 -4.421962
v 1.808931 2.078851 -4.286011
v 1.825584 1.797461 -4.202292
v 1.831206 1.504825 -4.174025
v 1.825584 1.212190 -4.202292
v 1.808931 0.930800 -4.286011
v 1.781889 0.671470 -4.421962
v 1.745496 0.444165 -4.604922
v 1.701151 0.257621 -4.827859
v 1.650558 0.119006 -5.082206
v 1.595662 0.033647 -5.358189
v 1.538571 2.976002 -5.352566
v 1.538571 2.890645 -5.071177
v 1.538571 2.752029 -4.811847
v 1.538571 2.565486 -4.584541
v 1.538571 2.338181 -4.397997
v 1.538571 2.078851 -4.259383
v 1.538571 1.797461 -4.174024
v 1.538571 1.504825 -4.145203
v 1.538571 1.212190 -4.174024
v 1.538571 0.930800 -4.259383
v 1.538571 0.671470 -4.397997
v 1.538571 0.444165 -4.584541
v 1.538571 0.257621 -4.811847
v 1.538571 0.119006 -5.071177
v 1.538571 0.033647 -5.352566
v 1.481481 2.976002 -5.358189
v 1.426585 2.890645 -5.082206
v 1.375992 2.752029 -4.827859
v 1.331647 2.565486 -4.604922
v 1.295254 2.338181 -4.421962
v 1.268212 2.078851 -4.286011
v 1.251559 1.797461 -4.202292
v 1.245936 1.504825 -4.174025
v 1.251559 1.212190 -4.202292
v 1.268212 0.930800 -4.286011
v 1.295254 0.671470 -4.421962
v 1.331647 0.444165 -4.604922
v 1.375992 0.257621 -4.827859
v 1.426585 0.119006 -5.082206
v 1.481481 0.033647 -5.358189
v 1.426585 2.976002 -5.374842
v 1.318902 2.890645 -5.114872
v 1.219660 2.752029 -4.875282
v 1.132675 2.565486 -4.665279
v 1.061287 2.338181 -4.492935
v 1.008242 2.078851 -4.364872
v 0.975576 1.797461 -4.286011
v 0.964546 1.504825 -4.259383
v 0.975576 1.212190 -4.286011
v 1.008242 0.930800 -4.364872
v 1.061287 0.671470 -4.492935
v 1.132675 0.444165 -4.665279
v 1.219660 0.257621 -4.875282
v 1.318902 0.119006 -5.114872
v 1.426585 0.033647 -5.374842
v 1.375992 2.976002 -5.401884
v 1.219660 2.890645 -5.167917
v 1.075584 2.752029 -4.952292
v 0.949300 2.565485 -4.763295
v 0.845662 2.338181 -4.608190
v 0.768652 2.078851 -4.492935
v 0.721229 1.797461 -4.421962
v 0.705216 1.504825 -4.397998
v 0.721229 1.212190 -4.421962
v 0.768652 0.930800 -4.492935
v 0.845662 0.671470 -4.608190
v 0.949300 0.444165 -4.763295
v 1.075584 0.257621 -4.952292
v 1.219660 0.119006 -5.167917
v 1.375992 0.033647 -5.401884
v 1.331647 2.976002 -5.438277
v 1.132675 2.890645 -5.239305
v 0.949301 2.752029 -5.055931
v 0.788572 2.565485 -4.895202
v 0.656665 2.338181 -4.763295
v 0.558650 2.078851 -4.665279
v 0.498292 1.797461 -4.604922
v 0.477912 1.504825 -4.584543
v 0.498292 1.212190 -4.604922
v 0.558650 0.930800 -4.665279
v 0.656665 0.671470 -4.763295
v 0.788572 0.444165 -4.895202
v 0.949301 0.257621 -5.055931
v 1.132675 0.119006 -5.239305
v 1.331647 0.033647 -5.438277
v 1.538571 0.004825 -5.645202
v 1.295254 2.976002 -5.482622
v 1.061287 2.890645 -5.326290
v 0.845662 2.752029 -5.182215
v 0.656665 2.565485 -5.055930
v 0.501559 2.338181 -4.952292
v 0.386305 2.078851 -4.875282
v 0.315332 1.797461 -4.827859
v 0.291368 1.504825 -4.811848
v 0.315332 1.212190 -4.827859
v 0.386305 0.930800 -4.875282
v 0.501559 0.671470 -4.952292
v 0.656665 0.444165 -5.055930
v 0.845662 0.257621 -5.182215
v 1.061287 0.119006 -5.326290
v 1.295254 0.033647 -5.482622
v 1.268212 2.976002 -5.533215
v 1.008242 2.890645 -5.425531
v 0.768652 2.752029 -5.326291
v 0.558649 2.565485 -5.239305
v 0.386305 2.338181 -5.167917
v 0.258242 2.078851 -5.114872
v 0.179381 1.797461 -5.082207
v 0.152753 1.504825 -5.071177
v 0.179381 1.212190 -5.082207
v 0.258242 0.930800 -5.114872
v 0.386305 0.671470 -5.167917
v 0.558649 0.444165 -5.239305
v 0.768652 0.257621 -5.326291
v 1.008242 0.119006 -5.425531
v 1.268212 0.033647 -5.533215
v 1.251559 2.976002 -5.588111
v 0.975576 2.890645 -5.533215
v 0.721229 2.752029 -5.482622
v 0.498292 2.565485 -5.438277
v 0.315332 2.338181 -5.401884
v 0.179381 2.078851 -5.374842
v 0.095662 1.797461 -5.358190
v 0.067395 1.504825 -5.352567
v 0.095662 1.212190 -5.358190
v 0.179381 0.930800 -5.374842
v 0.315332 0.671470 -5.401884
v 0.498292 0.444165 -5.438277
v 0.721229 0.257621 -5.482622
v 0.975576 0.119006 -5.533215
v 1.251559 0.033647 -5.588111
v 1.245936 2.976002 -5.645202
v 0.964547 2.890645 -5.645202
v 0.705217 2.752029 -5.645202
v 0.477912 2.565485 -5.645202
v 0.291368 2.338181 -5.645202
v 0.152753 2.078851 -5.645202
v 0.067394 1.797461 -5.645202
v 0.038573 1.504825 -5.645202
v 0.067394 1.212190 -5.645202
v 0.152753 0.930800 -5.645202
v 0.291368 0.671470 -5.645202
v 0.477912 0.444165 -5.645202
v 0.705217 0.257621 -5.645202
v 0.964547 0.119006 -5.645202
v 1.245936 0.033647 -5.645202
v 1.251559 2.976002 -5.702291
v 0.975576 2.890645 -5.757188
v 0.721229 2.752029 -5.807781
v 0.498292 2.565485 -5.852126
v 0.315333 2.338181 -5.888519
v 0.179381 2.078851 -5.915561
v 0.095663 1.797461 -5.932214
v 0.067395 1.504825 -5.937838
v 0.095663 1.212190 -5.932214
v 0.179381 0.930800 -5.915561
v 0.315333 0.671470 -5.888519
v 0.498292 0.444165 -5.852126
v 0.721229 0.257621 -5.807781
v 0.975576 0.119006 -5.757188
v 1.251559 0.033647 -5.702291
v 1.268212 2.976002 -5.757188
v 1.008242 2.890645 -5.864871
v 0.768652 2.752029 -5.964113
v 0.558649 2.565485 -6.051098
v 0.386306 2.338181 -6.122486
v 0.258242 2.078851 -6.175531
v 0.179381 1.797461 -6.208197
v 0.152754 1.504825 -6.219227
v 0.179381 1.212190 -6.208197
v 0.258242 0.930800 -6.175531
v 0.386306 0.671470 -6.122486
v 0.558649 0.444165 -6.051098
v 0.768652 0.257621 -5.964113
v 1.008242 0.119006 -5.864871
v 1.268212 0.033647 -5.757188
v 1.295254 2.976002 -5.807781
v 1.061287 2.890645 -5.964113
v 0.845663 2.752029 -6.108189
v 0.656665 2.565485 -6.234473
v 0.501560 2.338181 -6.338111
v 0.386305 2.078851 -6.415121
v 0.315333 1.797461 -6.462544
v 0.291369 1.504825 -6.478557
v 0.315333 1.212190 -6.462544
v 0.386305 0.930800 -6.415121
v 0.501560 0.671470 -6.338111
v 0.656665 0.444165 -6.234473
v 0.845663 0.257621 -6.108189
v 1.061287 0.119006 -5.964113
v 1.295254 0.033647 -5.807781
v 1.331647 2.976002 -5.852126
v 1.132675 2.890645 -6.051098
v 0.949301 2.752029 -6.234472
v 0.788572 2.565485 -6.395201
v 0.656666 2.338181 -6.527108
v 0.558650 2.078851 -6.625123
v 0.498292 1.797461 -6.685481
v 0.477913 1.504825 -6.705861
v 0.498292 1.212190 -6.685481
v 0.558650 0.930800 -6.625123
v 0.656666 0.671470 -6.527108
v 0.788572 0.444165 -6.395201
v 0.949301 0.257621 -6.234472
v 1.132675 0.119006 -6.051098
v 1.331647 0.033647 -5.852126
v 1.375992 2.976002 -5.888519
v 1.219660 2.890645 -6.122486
v 1.075585 2.752029 -6.338110
v 0.949301 2.565485 -6.527108
v 0.845662 2.338181 -6.682214
v 0.768652 2.078851 -6.797468
v 0.721230 1.797461 -6.868441
v 0.705218 1.504825 -6.892405
v 0.721230 1.212190 -6.868441
v 0.768652 0.930799 -6.797468
v 0.845662 0.671470 -6.682214
v 0.949301 0.444164 -6.527108
v 1.075585 0.257621 -6.338110
v 1.219660 0.119006 -6.122486
v 1.375992 0.033647 -5.888519
v 1.426585 2.976002 -5.915561
v 1.318902 2.890645 -6.175531
v 1.219661 2.752029 -6.415121
v 1.132675 2.565485 -6.625124
v 1.061288 2.338181 -6.797467
v 1.008242 2.078851 -6.925531
v 0.975577 1.797461 -7.004392
v 0.964548 1.504825 -7.031019
v 0.975577 1.212190 -7.004392
v 1.008242 0.930799 -6.925531
v 1.061288 0.671469 -6.797467
v 1.132675 0.444164 -6.625124
v 1.219661 0.257621 -6.415121
v 1.318902 0.119006 -6.175531
v 1.426585 0.033647 -5.915561
v 1.481481 2.976002 -5.932214
v 1.426585 2.890645 -6.208197
v 1.375992 2.752029 -6.462543
v 1.331647 2.565485 -6.685481
v 1.295254 2.338181 -6.868441
v 1.268212 2.078851 -7.004392
v 1.251559 1.797461 -7.088110
v 1.245937 1.504824 -7.116378
v 1.251559 1.212190 -7.088110
v 1.268212 0.930799 -7.004392
v 1.295254 0.671469 -6.868441
v 1.331647 0.444164 -6.685481
v 1.375992 0.257621 -6.462543
v 1.426585 0.119006 -6.208197
v 1.481481 0.033647 -5.932214
v 1.538571 2.976002 -5.937837
v 1.538572 2.890645 -6.219226
v 1.538572 2.565485 -6.705862
v 1.538572 2.078851 -7.031020
v 1.538572 0.930799 -7.031020
v 1.538572 0.444164 -6.705862
v 1.538572 0.257621 -6.478556
v 1.538572 0.119006 -6.219226
v 1.538571 0.033647 -5.937837
vn -0.0000 -0.7041 -0.7101
vn 0.1092 -0.8286 -0.5490
vn -0.0000 -0.8286 -0.5598
vn -0.0000 0.3805 -0.9248
vn 0.1626 0.5528 -0.8173
vn 0.1804 0.3805 -0.9070
vn 0.0757 -0.9217 -0.3804
vn -0.0000 -0.9217 -0.3879
vn 0.1914 0.1939 -0.9622
vn -0.0000 0.1939 -0.9810
vn 0.0392 -0.9796 -0.1971
vn -0.0000 -0.9796 -0.2010
vn -0.0000 -0.0000 -1.0000
vn 0.1951 -0.0000 -0.9808
vn -0.0000 0.9796 -0.2010
vn -0.0000 1.0000 -0.0000
vn 0.0392 0.9796 -0.1971
vn -0.0000 -1.0000 -0.0000
vn 0.1914 -0.1939 -0.9622
vn -0.0000 -0.1939 -0.9810
vn -0.0000 0.9217 -0.3879
vn 0.0757 0.9217 -0.3804
vn -0.0000 -0.3805 -0.9248
vn 0.1804 -0.3805 -0.9070
vn -0.0000 0.8286 -0.5598
vn 0.1092 0.8286 -0.5490
vn 0.1626 -0.5528 -0.8173
vn -0.0000 -0.5528 -0.8333
vn 0.1385 0.7041 -0.6965
vn -0.0000 0.7041 -0.7101
vn 0.1385 -0.7041 -0.6965
vn -0.0000 0.5528 -0.8333
vn 0.2718 -0.7041 -0.6561
vn 0.2718 0.7041 -0.6561
vn 0.3189 0.5528 -0.7699
vn 0.2142 -0.8286 -0.5172
vn 0.3539 0.3805 -0.8544
vn 0.1484 -0.9217 -0.3584
vn 0.3754 0.1939 -0.9063
vn 0.0769 -0.9796 -0.1857
vn 0.3827 -0.0000 -0.9239
vn 0.0769 0.9796 -0.1857
vn 0.3754 -0.1939 -0.9063
vn 0.1484 0.9217 -0.3584
vn 0.3539 -0.3805 -0.8544
vn 0.2142 0.8286 -0.5172
vn 0.3189 -0.5528 -0.7699
vn 0.1117 0.9796 -0.1671
vn 0.1116 -0.9796 -0.1671
vn 0.5450 -0.1939 -0.8157
vn 0.2155 0.9217 -0.3225
vn 0.5138 -0.3805 -0.7689
vn 0.3110 0.8286 -0.4654
vn 0.4630 -0.5528 -0.6929
vn 0.3945 0.7041 -0.5905
vn 0.3945 -0.7041 -0.5905
vn 0.4630 0.5528 -0.6929
vn 0.3110 -0.8286 -0.4654
vn 0.5138 0.3805 -0.7689
vn 0.2155 -0.9217 -0.3225
vn 0.5450 0.1939 -0.8157
vn 0.5556 -0.0000 -0.8315
vn 0.5021 0.7041 -0.5021
vn 0.5893 0.5528 -0.5893
vn 0.3958 -0.8286 -0.3958
vn 0.6539 0.3805 -0.6539
vn 0.2743 -0.9217 -0.2743
vn 0.6937 0.1939 -0.6937
vn 0.1421 -0.9796 -0.1421
vn 0.7071 -0.0000 -0.7071
vn 0.1421 0.9796 -0.1421
vn 0.6937 -0.1939 -0.6937
vn 0.2743 0.9217 -0.2743
vn 0.6539 -0.3805 -0.6539
vn 0.3958 0.8286 -0.3958
vn 0.5893 -0.5528 -0.5893
vn 0.5021 -0.7041 -0.5021
vn 0.8157 -0.1939 -0.5450
vn 0.1671 0.9796 -0.1117
vn 0.3225 0.9217 -0.2155
vn 0.7689 -0.3805 -0.5138
vn 0.4654 0.8286 -0.3110
vn 0.6929 -0.5528 -0.4630
vn 0.5905 0.7041 -0.3945
vn 0.5905 -0.7041 -0.3945
vn 0.6929 0.5528 -0.4630
vn 0.4654 -0.8286 -0.3110
vn 0.7689 0.3805 -0.5138
vn 0.3225 -0.9217 -0.2155
vn 0.8157 0.1939 -0.5450
vn 0.1671 -0.9796 -0.1117
vn 0.8315 -0.0000 -0.5556
vn 0.6561 -0.7041 -0.2718
vn 0.5172 -0.8286 -0.2142
vn 0.7699 0.5528 -0.3189
vn 0.8544 0.3805 -0.3539
vn 0.3584 -0.9217 -0.1484
vn 0.9063 0.1939 -0.3754
vn 0.1857 -0.9796 -0.0769
vn 0.9239 -0.0000 -0.3827
vn 0.1857 0.9796 -0.0769
vn 0.9063 -0.1939 -0.3754
vn 0.3584 0.9217 -0.1484
vn 0.8544 -0.3805 -0.3539
vn 0.5172 0.8286 -0.2142
vn 0.7699 -0.5528 -0.3189
vn 0.6561 0.7041 -0.2718
vn 0.9070 -0.3805 -0.1804
vn 0.5490 0.8286 -0.1092
vn 0.8173 -0.5528 -0.1626
vn 0.6965 0.7041 -0.1385
vn 0.6965 -0.7041 -0.1385
vn 0.8173 0.5528 -0.1626
vn 0.5490 -0.8286 -0.1092
vn 0.9070 0.3805 -0.1804
vn 0.3804 -0.9217 -0.0757
vn 0.9622 0.1939 -0.1914
vn 0.1971 -0.9796 -0.0392
vn 0.9808 -0.0000 -0.1951
vn 0.1971 0.9796 -0.0392
vn 0.9622 -0.1939 -0.1914
vn 0.3804 0.9217 -0.0757
vn 0.3879 -0.9217 -0.0000
vn 0.9248 0.3805 -0.0000
vn 0.9810 0.1939 -0.0000
vn 0.2010 -0.9796 -0.0000
vn 1.0000 -0.0000 -0.0000
vn 0.2010 0.9796 -0.0000
vn 0.9810 -0.1939 -0.0000
vn 0.3879 0.9217 -0.0000
vn 0.9248 -0.3805 -0.0000
vn 0.5598 0.8286 -0.0000
vn 0.8333 -0.5528 -0.0000
vn 0.7101 0.7041 -0.0000
vn 0.7101 -0.7041 -0.0000
vn 0.8333 0.5528 -0.0000
vn 0.5598 -0.8286 -0.0000
vn 0.5490 0.8286 0.1092
vn 0.8173 -0.5528 0.1626
vn 0.6965 0.7041 0.1385
vn 0.6965 -0.7041 0.1385
vn 0.8173 0.5528 0.1626
vn 0.5490 -0.8286 0.1092
vn 0.9070 0.3805 0.1804
vn 0.3804 -0.9217 0.0757
vn 0.9622 0.1939 0.1914
vn 0.1971 -0.9796 0.0392
vn 0.9808 -0.0000 0.1951
vn 0.1971 0.9796 0.0392
vn 0.9622 -0.1939 0.1914
vn 0.3804 0.9217 0.0757
vn 0.9070 -0.3805 0.1804
vn 0.8544 0.3805 0.3539
vn 0.9063 0.1939 0.3754
vn 0.3584 -0.9217 0.1484
vn 0.1857 -0.9796 0.0769
vn 0.9239 -0.0000 0.3827
vn 0.1857 0.9796 0.0769
vn 0.9063 -0.1939 0.3754
vn 0.3584 0.9217 0.1484
vn 0.8544 -0.3805 0.3539
vn 0.5172 0.8286 0.2142
vn 0.7699 -0.5528 0.3189
vn 0.6561 0.7041 0.2718
vn 0.6561 -0.7041 0.2718
vn 0.7699 0.5528 0.3189
vn 0.5172 -0.8286 0.2142
vn 0.7689 -0.3805 0.5138
vn 0.6929 -0.5528 0.4630
vn 0.4654 0.8286 0.3110
vn 0.5905 0.7041 0.3945
vn 0.5905 -0.7041 0.3945
vn 0.6929 0.5528 0.4630
vn 0.4654 -0.8286 0.3110
vn 0.7689 0.3805 0.5138
vn 0.3225 -0.9217 0.2155
vn 0.8157 0.1939 0.5450
vn 0.1671 -0.9796 0.1117
vn 0.8315 -0.0000 0.5556
vn 0.1671 0.9796 0.1116
vn 0.8157 -0.1939 0.5450
vn 0.3225 0.9217 0.2155
vn 0.1421 -0.9796 0.1421
vn 0.6937 0.1939 0.6937
vn 0.7071 -0.0000 0.7071
vn 0.1421 0.9796 0.1421
vn 0.6937 -0.1939 0.6937
vn 0.2743 0.9217 0.2743
vn 0.6539 -0.3805 0.6539
vn 0.3958 0.8286 0.3958
vn 0.5893 -0.5528 0.5893
vn 0.5021 0.7041 0.5021
vn 0.5021 -0.7041 0.5021
vn 0.5893 0.5528 0.5893
vn 0.3958 -0.8286 0.3958
vn 0.6539 0.3805 0.6539
vn 0.2743 -0.9217 0.2743
vn 0.3945 0.7041 0.5905
vn 0.3945 -0.7041 0.5905
vn 0.4630 0.5528 0.6929
vn 0.3110 -0.8286 0.4654
vn 0.5138 0.3805 0.7689
vn 0.2155 -0.9217 0.3225
vn 0.5450 0.1939 0.8157
vn 0.1116 -0.9796 0.1671
vn 0.5556 -0.0000 0.8315
vn 0.1116 0.9796 0.1671
vn 0.5450 -0.1939 0.8157
vn 0.2155 0.9217 0.3225
vn 0.5138 -0.3805 0.7689
vn 0.3110 0.8286 0.4654
vn 0.4630 -0.5528 0.6929
vn 0.3754 0.1939 0.9063
vn 0.3827 -0.0000 0.9239
vn 0.0769 0.9796 0.1857
vn 0.0769 -0.9796 0.1857
vn 0.3754 -0.1939 0.9063
vn 0.1484 0.9217 0.3584
vn 0.3539 -0.3805 0.8544
vn 0.2142 0.8286 0.5172
vn 0.3189 -0.5528 0.7699
vn 0.2718 0.7041 0.6561
vn 0.2718 -0.7041 0.6561
vn 0.3189 0.5528 0.7699
vn 0.2142 -0.8286 0.5172
vn 0.3539 0.3805 0.8544
vn 0.1484 -0.9217 0.3584
vn 0.1626 -0.5528 0.8173
vn 0.1385 -0.7041 0.6965
vn 0.1626 0.5528 0.8173
vn 0.1092 -0.8286 0.5490
vn 0.1804 0.3805 0.9070
vn 0.0757 -0.9217 0.3804
vn 0.1914 0.1939 0.9622
vn 0.0392 -0.9796 0.1971
vn 0.1951 -0.0000 0.9808
vn 0.0392 0.9796 0.1971
vn 0.1914 -0.1939 0.9622
vn 0.0757 0.9217 0.3804
vn 0.1804 -0.3805 0.9070
vn 0.1092 0.8286 0.5490
vn 0.1385 0.7041 0.6965
vn -0.0000 -0.9796 0.2010
vn -0.0000 -0.1939 0.9810
vn -0.0000 0.9796 0.2010
vn -0.0000 0.9217 0.3879
vn -0.0000 -0.3805 0.9248
vn -0.0000 0.8286 0.5598
vn -0.0000 -0.5528 0.8333
vn -0.0000 0.7041 0.7101
vn -0.0000 -0.7041 0.7101
vn -0.0000 0.5528 0.8333
vn -0.0000 -0.8286 0.5598
vn -0.0000 0.3805 0.9248
vn -0.0000 -0.9217 0.3879
vn -0.0000 0.1939 0.9810
vn -0.0000 -0.0000 1.0000
vn -0.1092 -0.8286 0.5490
vn -0.1804 0.3805 0.9070
vn -0.0757 -0.9217 0.3804
vn -0.1914 0.1939 0.9622
vn -0.0392 -0.9796 0.1971
vn -0.1951 -0.0000 0.9808
vn -0.0392 0.9796 0.1971
vn -0.1914 -0.1939 0.9622
vn -0.0757 0.9217 0.3804
vn -0.1804 -0.3805 0.9070
vn -0.1092 0.8286 0.5490
vn -0.1626 -0.5528 0.8173
vn -0.1385 0.7041 0.6965
vn -0.1385 -0.7041 0.6965
vn -0.1626 0.5528 0.8173
vn -0.1484 0.9217 0.3584
vn -0.3539 -0.3805 0.8544
vn -0.2142 0.8286 0.5172
vn -0.3189 -0.5528 0.7699
vn -0.2718 0.7041 0.6561
vn -0.2718 -0.7041 0.6561
vn -0.3189 0.5528 0.7699
vn -0.2142 -0.8286 0.5172
vn -0.3539 0.3805 0.8544
vn -0.1484 -0.9217 0.3584
vn -0.3754 0.1939 0.9063
vn -0.0769 -0.9796 0.1857
vn -0.3827 -0.0000 0.9239
vn -0.0769 0.9796 0.1857
vn -0.3754 -0.1939 0.9063
vn -0.5138 0.3805 0.7689
vn -0.2155 -0.9217 0.3225
vn -0.5450 0.1939 0.8157
vn -0.1116 -0.9796 0.1671
vn -0.5556 -0.0000 0.8315
vn -0.1117 0.9796 0.1671
vn -0.5450 -0.1939 0.8157
vn -0.2155 0.9217 0.3225
vn -0.5138 -0.3805 0.7689
vn -0.3110 0.8286 0.4654
vn -0.4630 -0.5528 0.6929
vn -0.3945 0.7041 0.5905
vn -0.3945 -0.7041 0.5905
vn -0.4630 0.5528 0.6929
vn -0.3110 -0.8286 0.4654
vn -0.6539 -0.3805 0.6539
vn -0.3958 0.8286 0.3958
vn -0.5893 -0.5528 0.5893
vn -0.5021 0.7041 0.5021
vn -0.5021 -0.7041 0.5021
vn -0.5893 0.5528 0.5893
vn -0.3958 -0.8286 0.3958
vn -0.6539 0.3805 0.6539
vn -0.2743 -0.9217 0.2743
vn -0.6937 0.1939 0.6937
vn -0.1421 -0.9796 0.1421
vn -0.7071 -0.0000 0.7071
vn -0.1421 0.9796 0.1421
vn -0.6937 -0.1939 0.6937
vn -0.2743 0.9217 0.2743
vn -0.3225 -0.9217 0.2155
vn -0.7689 0.3805 0.5138
vn -0.8157 0.1939 0.5450
vn -0.1671 -0.9796 0.1117
vn -0.8315 -0.0000 0.5556
vn -0.1671 0.9796 0.1117
vn -0.8157 -0.1939 0.5450
vn -0.3225 0.9217 0.2155
vn -0.7689 -0.3805 0.5138
vn -0.4654 0.8286 0.3110
vn -0.6929 -0.5528 0.4630
vn -0.5905 0.7041 0.3945
vn -0.5905 -0.7041 0.3945
vn -0.6929 0.5528 0.4630
vn -0.4654 -0.8286 0.3110
vn -0.3584 0.9217 0.1484
vn -0.5172 0.8286 0.2142
vn -0.7699 -0.5528 0.3189
vn -0.6561 0.7041 0.2718
vn -0.6561 -0.7041 0.2718
vn -0.7699 0.5528 0.3189
vn -0.5172 -0.8286 0.2142
vn -0.8544 0.3805 0.3539
vn -0.3584 -0.9217 0.1484
vn -0.9063 0.1939 0.3754
vn -0.1857 -0.9796 0.0769
vn -0.9239 -0.0000 0.3827
vn -0.1857 0.9796 0.0769
vn -0.9063 -0.1939 0.3754
vn -0.8544 -0.3805 0.3539
vn -0.9070 0.3805 0.1804
vn -0.9622 0.1939 0.1914
vn -0.1971 -0.9796 0.0392
vn -0.9808 -0.0000 0.1951
vn -0.1971 0.9796 0.0392
vn -0.9622 -0.1939 0.1914
vn -0.3804 0.9217 0.0757
vn -0.9070 -0.3805 0.1804
vn -0.5490 0.8286 0.1092
vn -0.8173 -0.5528 0.1626
vn -0.6965 0.7041 0.1385
vn -0.6965 -0.7041 0.1385
vn -0.8173 0.5528 0.1626
vn -0.5490 -0.8286 0.1092
vn -0.3804 -0.9217 0.0757
vn -0.9248 -0.3805 -0.0000
vn -0.8333 -0.5528 -0.0000
vn -0.7101 0.7041 -0.0000
vn -0.7101 -0.7041 -0.0000
vn -0.8333 0.5528 -0.0000
vn -0.5598 -0.8286 -0.0000
vn -0.9248 0.3805 -0.0000
vn -0.3879 -0.9217 -0.0000
vn -0.9810 0.1939 -0.0000
vn -0.2010 -0.9796 -0.0000
vn -1.0000 -0.0000 -0.0000
vn -0.2010 0.9796 -0.0000
vn -0.9810 -0.1939 -0.0000
vn -0.3879 0.9217 -0.0000
vn -0.5598 0.8286 -0.0000
vn -0.1971 -0.9796 -0.0392
vn -0.9622 0.1939 -0.1914
vn -0.9808 -0.0000 -0.1951
vn -0.1971 0.9796 -0.0392
vn -0.9622 -0.1939 -0.1914
vn -0.3804 0.9217 -0.0757
vn -0.9070 -0.3805 -0.1804
vn -0.5490 0.8286 -0.1092
vn -0.8173 -0.5528 -0.1626
vn -0.6965 0.7041 -0.1385
vn -0.6965 -0.7041 -0.1385
vn -0.8173 0.5528 -0.1626
vn -0.5490 -0.8286 -0.1092
vn -0.9070 0.3805 -0.1804
vn -0.3804 -0.9217 -0.0757
vn -0.6561 -0.7041 -0.2718
vn -0.6561 0.7041 -0.2718
vn -0.7699 0.5528 -0.3189
vn -0.5172 -0.8286 -0.2142
vn -0.8544 0.3805 -0.3539
vn -0.3584 -0.9217 -0.1484
vn -0.9063 0.1939 -0.3754
vn -0.1857 -0.9796 -0.0769
vn -0.9239 -0.0000 -0.3827
vn -0.1857 0.9796 -0.0769
vn -0.9063 -0.1939 -0.3754
vn -0.3584 0.9217 -0.1484
vn -0.8544 -0.3805 -0.3539
vn -0.5172 0.8286 -0.2142
vn -0.7699 -0.5528 -0.3189
vn -0.1671 0.9796 -0.1116
vn -0.1671 -0.9796 -0.1117
vn -0.8157 -0.1939 -0.5450
vn -0.3225 0.9217 -0.2155
vn -0.7689 -0.3805 -0.5138
vn -0.4654 0.8286 -0.3110
vn -0.6929 -0.5528 -0.4630
vn -0.5905 0.7041 -0.3945
vn -0.5905 -0.7041 -0.3945
vn -0.6929 0.5528 -0.4630
vn -0.4654 -0.8286 -0.3110
vn -0.7689 0.3805 -0.5138
vn -0.3225 -0.9217 -0.2155
vn -0.8157 0.1939 -0.5450
vn -0.8315 -0.0000 -0.5556
vn -0.5893 0.5528 -0.5893
vn -0.5021 -0.7041 -0.5021
vn -0.3958 -0.8286 -0.3958
vn -0.6539 0.3805 -0.6539
vn -0.2743 -0.9217 -0.2743
vn -0.6937 0.1939 -0.6937
vn -0.1421 -0.9796 -0.1421
vn -0.7071 -0.0000 -0.7071
vn -0.1421 0.9796 -0.1421
vn -0.6937 -0.1939 -0.6937
vn -0.2743 0.9217 -0.2743
vn -0.6539 -0.3805 -0.6539
vn -0.3958 0.8286 -0.3958
vn -0.5893 -0.5528 -0.5893
vn -0.5021 0.7041 -0.5021
vn -0.5450 -0.1939 -0.8157
vn -0.1117 0.9796 -0.1671
vn -0.2155 0.9217 -0.3225
vn -0.5138 -0.3805 -0.7689
vn -0.3110 0.8286 -0.4654
vn -0.4630 -0.5528 -0.6929
vn -0.3945 0.7041 -0.5905
vn -0.3945 -0.7041 -0.5905
vn -0.4630 0.5528 -0.6929
vn -0.3110 -0.8286 -0.4654
vn -0.5138 0.3805 -0.7689
vn -0.2155 -0.9217 -0.3225
vn -0.5450 0.1939 -0.8157
vn -0.1117 -0.9796 -0.1671
vn -0.5556 -0.0000 -0.8315
vn -0.2142 -0.8286 -0.5172
vn -0.3539 0.3805 -0.8544
vn -0.1484 -0.9217 -0.3584
vn -0.3754 0.1939 -0.9063
vn -0.0769 -0.9796 -0.1857
vn -0.3827 -0.0000 -0.9239
vn -0.0769 0.9796 -0.1857
vn -0.3754 -0.1939 -0.9063
vn -0.1484 0.9217 -0.3584
vn -0.3539 -0.3805 -0.8544
vn -0.2142 0.8286 -0.5172
vn -0.3189 -0.5528 -0.7699
vn -0.2718 0.7041 -0.6561
vn -0.2718 -0.7041 -0.6561
vn -0.3189 0.5528 -0.7699
vn -0.0392 0.9796 -0.1971
vn -0.0757 0.9217 -0.3804
vn -0.1914 -0.1939 -0.9622
vn -0.1804 -0.3805 -0.9070
vn -0.1092 0.8286 -0.5490
vn -0.1626 -0.5528 -0.8173
vn -0.1385 0.7041 -0.6965
vn -0.1385 -0.7041 -0.6965
vn -0.1626 0.5528 -0.8173
vn -0.1092 -0.8286 -0.5490
vn -0.1804 0.3805 -0.9070
vn -0.0757 -0.9217 -0.3804
vn -0.1914 0.1939 -0.9622
vn -0.0392 -0.9796 -0.1971
vn -0.1951 -0.0000 -0.9808
vt 0.750000 0.250000
vt 0.718750 0.187500
vt 0.750000 0.187500
vt 0.750000 0.625000
vt 0.718750 0.687500
vt 0.718750 0.625000
vt 0.718750 0.125000
vt 0.750000 0.125000
vt 0.718750 0.562500
vt 0.750000 0.562500
vt 0.718750 0.062500
vt 0.750000 0.062500
vt 0.750000 0.500000
vt 0.718750 0.500000
vt 0.750000 0.937500
vt 0.734375 1.000000
vt 0.718750 0.937500
vt 0.734375 0.000000
vt 0.718750 0.437500
vt 0.750000 0.437500
vt 0.750000 0.875000
vt 0.718750 0.875000
vt 0.750000 0.375000
vt 0.718750 0.375000
vt 0.750000 0.812500
vt 0.718750 0.812500
vt 0.718750 0.312500
vt 0.750000 0.312500
vt 0.718750 0.750000
vt 0.750000 0.750000
vt 0.718750 0.250000
vt 0.750000 0.687500
vt 0.687500 0.250000
vt 0.687500 0.750000
vt 0.687500 0.687500
vt 0.687500 0.187500
vt 0.687500 0.625000
vt 0.687500 0.125000
vt 0.687500 0.562500
vt 0.687500 0.062500
vt 0.687500 0.500000
vt 0.703125 1.000000
vt 0.687500 0.937500
vt 0.703125 0.000000
vt 0.687500 0.437500
vt 0.687500 0.875000
vt 0.687500 0.375000
vt 0.687500 0.812500
vt 0.687500 0.312500
vt 0.671875 1.000000
vt 0.656250 0.937500
vt 0.671875 0.000000
vt 0.656250 0.062500
vt 0.656250 0.437500
vt 0.656250 0.875000
vt 0.656250 0.375000
vt 0.656250 0.812500
vt 0.656250 0.312500
vt 0.656250 0.750000
vt 0.656250 0.250000
vt 0.656250 0.687500
vt 0.656250 0.187500
vt 0.656250 0.625000
vt 0.656250 0.125000
vt 0.656250 0.562500
vt 0.656250 0.500000
vt 0.625000 0.750000
vt 0.625000 0.687500
vt 0.625000 0.187500
vt 0.625000 0.625000
vt 0.625000 0.125000
vt 0.625000 0.562500
vt 0.625000 0.062500
vt 0.625000 0.500000
vt 0.640625 1.000000
vt 0.625000 0.937500
vt 0.640625 0.000000
vt 0.625000 0.437500
vt 0.625000 0.875000
vt 0.625000 0.375000
vt 0.625000 0.812500
vt 0.625000 0.312500
vt 0.625000 0.250000
vt 0.593750 0.437500
vt 0.593750 0.937500
vt 0.593750 0.875000
vt 0.593750 0.375000
vt 0.593750 0.812500
vt 0.593750 0.312500
vt 0.593750 0.750000
vt 0.593750 0.250000
vt 0.593750 0.687500
vt 0.593750 0.187500
vt 0.593750 0.625000
vt 0.593750 0.125000
vt 0.593750 0.562500
vt 0.593750 0.062500
vt 0.593750 0.500000
vt 0.609375 1.000000
vt 0.609375 0.000000
vt 0.562500 0.250000
vt 0.562500 0.187500
vt 0.562500 0.687500
vt 0.562500 0.625000
vt 0.562500 0.125000
vt 0.562500 0.562500
vt 0.562500 0.062500
vt 0.562500 0.500000
vt 0.578125 1.000000
vt 0.562500 0.937500
vt 0.578125 0.000000
vt 0.562500 0.437500
vt 0.562500 0.875000
vt 0.562500 0.375000
vt 0.562500 0.812500
vt 0.562500 0.312500
vt 0.562500 0.750000
vt 0.531250 0.375000
vt 0.531250 0.812500
vt 0.531250 0.312500
vt 0.531250 0.750000
vt 0.531250 0.250000
vt 0.531250 0.687500
vt 0.531250 0.187500
vt 0.531250 0.625000
vt 0.531250 0.125000
vt 0.531250 0.562500
vt 0.531250 0.062500
vt 0.531250 0.500000
vt 0.546875 1.000000
vt 0.531250 0.937500
vt 0.546875 0.000000
vt 0.531250 0.437500
vt 0.531250 0.875000
vt 0.500000 0.125000
vt 0.500000 0.625000
vt 0.500000 0.562500
vt 0.500000 0.062500
vt 0.500000 0.500000
vt 0.515625 1.000000
vt 0.500000 0.937500
vt 0.515625 0.000000
vt 0.500000 0.437500
vt 0.500000 0.875000
vt 0.500000 0.375000
vt 0.500000 0.812500
vt 0.500000 0.312500
vt 0.500000 0.750000
vt 0.500000 0.250000
vt 0.500000 0.687500
vt 0.500000 0.187500
vt 0.468750 0.812500
vt 0.468750 0.312500
vt 0.468750 0.750000
vt 0.468750 0.250000
vt 0.468750 0.687500
vt 0.468750 0.187500
vt 0.468750 0.625000
vt 0.468750 0.125000
vt 0.468750 0.562500
vt 0.468750 0.062500
vt 0.468750 0.500000
vt 0.484375 1.000000
vt 0.468750 0.937500
vt 0.484375 0.000000
vt 0.468750 0.437500
vt 0.468750 0.875000
vt 0.468750 0.375000
vt 0.437500 0.625000
vt 0.437500 0.562500
vt 0.437500 0.125000
vt 0.437500 0.062500
vt 0.437500 0.500000
vt 0.453125 1.000000
vt 0.437500 0.937500
vt 0.453125 0.000000
vt 0.437500 0.437500
vt 0.437500 0.875000
vt 0.437500 0.375000
vt 0.437500 0.812500
vt 0.437500 0.312500
vt 0.437500 0.750000
vt 0.437500 0.250000
vt 0.437500 0.687500
vt 0.437500 0.187500
vt 0.406250 0.375000
vt 0.406250 0.312500
vt 0.406250 0.812500
vt 0.406250 0.750000
vt 0.406250 0.250000
vt 0.406250 0.687500
vt 0.406250 0.187500
vt 0.406250 0.625000
vt 0.406250 0.125000
vt 0.406250 0.562500
vt 0.406250 0.062500
vt 0.406250 0.500000
vt 0.421875 1.000000
vt 0.406250 0.937500
vt 0.421875 0.000000
vt 0.406250 0.437500
vt 0.406250 0.875000
vt 0.375000 0.062500
vt 0.375000 0.562500
vt 0.375000 0.500000
vt 0.390625 1.000000
vt 0.375000 0.937500
vt 0.390625 0.000000
vt 0.375000 0.437500
vt 0.375000 0.875000
vt 0.375000 0.375000
vt 0.375000 0.812500
vt 0.375000 0.312500
vt 0.375000 0.750000
vt 0.375000 0.250000
vt 0.375000 0.687500
vt 0.375000 0.187500
vt 0.375000 0.625000
vt 0.375000 0.125000
vt 0.343750 0.750000
vt 0.343750 0.250000
vt 0.343750 0.687500
vt 0.343750 0.187500
vt 0.343750 0.625000
vt 0.343750 0.125000
vt 0.343750 0.562500
vt 0.343750 0.062500
vt 0.343750 0.500000
vt 0.359375 1.000000
vt 0.343750 0.937500
vt 0.359375 0.000000
vt 0.343750 0.437500
vt 0.343750 0.875000
vt 0.343750 0.375000
vt 0.343750 0.812500
vt 0.343750 0.312500
vt 0.312500 0.562500
vt 0.312500 0.500000
vt 0.328125 1.000000
vt 0.312500 0.937500
vt 0.328125 0.000000
vt 0.312500 0.062500
vt 0.312500 0.437500
vt 0.312500 0.875000
vt 0.312500 0.375000
vt 0.312500 0.812500
vt 0.312500 0.312500
vt 0.312500 0.750000
vt 0.312500 0.250000
vt 0.312500 0.687500
vt 0.312500 0.187500
vt 0.312500 0.625000
vt 0.312500 0.125000
vt 0.281250 0.312500
vt 0.281250 0.250000
vt 0.281250 0.687500
vt 0.281250 0.187500
vt 0.281250 0.625000
vt 0.281250 0.125000
vt 0.281250 0.562500
vt 0.281250 0.062500
vt 0.281250 0.500000
vt 0.296875 1.000000
vt 0.281250 0.937500
vt 0.296875 0.000000
vt 0.281250 0.437500
vt 0.281250 0.875000
vt 0.281250 0.375000
vt 0.281250 0.812500
vt 0.281250 0.750000
vt 0.265625 0.000000
vt 0.250000 0.062500
vt 0.250000 0.437500
vt 0.250000 0.937500
vt 0.250000 0.875000
vt 0.250000 0.375000
vt 0.250000 0.812500
vt 0.250000 0.312500
vt 0.250000 0.750000
vt 0.250000 0.250000
vt 0.250000 0.687500
vt 0.250000 0.187500
vt 0.250000 0.625000
vt 0.250000 0.125000
vt 0.250000 0.562500
vt 0.250000 0.500000
vt 0.265625 1.000000
vt 0.218750 0.187500
vt 0.218750 0.625000
vt 0.218750 0.125000
vt 0.218750 0.562500
vt 0.218750 0.062500
vt 0.218750 0.500000
vt 0.234375 1.000000
vt 0.218750 0.937500
vt 0.234375 0.000000
vt 0.218750 0.437500
vt 0.218750 0.875000
vt 0.218750 0.375000
vt 0.218750 0.812500
vt 0.218750 0.312500
vt 0.218750 0.750000
vt 0.218750 0.250000
vt 0.218750 0.687500
vt 0.187500 0.875000
vt 0.187500 0.375000
vt 0.187500 0.812500
vt 0.187500 0.312500
vt 0.187500 0.750000
vt 0.187500 0.250000
vt 0.187500 0.687500
vt 0.187500 0.187500
vt 0.187500 0.625000
vt 0.187500 0.125000
vt 0.187500 0.562500
vt 0.187500 0.062500
vt 0.187500 0.500000
vt 0.203125 1.000000
vt 0.187500 0.937500
vt 0.203125 0.000000
vt 0.187500 0.437500
vt 0.156250 0.625000
vt 0.156250 0.125000
vt 0.156250 0.562500
vt 0.156250 0.062500
vt 0.156250 0.500000
vt 0.171875 1.000000
vt 0.156250 0.937500
vt 0.171875 0.000000
vt 0.156250 0.437500
vt 0.156250 0.875000
vt 0.156250 0.375000
vt 0.156250 0.812500
vt 0.156250 0.312500
vt 0.156250 0.750000
vt 0.156250 0.250000
vt 0.156250 0.687500
vt 0.156250 0.187500
vt 0.125000 0.375000
vt 0.125000 0.812500
vt 0.125000 0.312500
vt 0.125000 0.750000
vt 0.125000 0.250000
vt 0.125000 0.687500
vt 0.125000 0.187500
vt 0.125000 0.625000
vt 0.125000 0.125000
vt 0.125000 0.562500
vt 0.125000 0.062500
vt 0.125000 0.500000
vt 0.140625 1.000000
vt 0.125000 0.937500
vt 0.140625 0.000000
vt 0.125000 0.437500
vt 0.125000 0.875000
vt 0.093750 0.125000
vt 0.093750 0.625000
vt 0.093750 0.562500
vt 0.093750 0.062500
vt 0.093750 0.500000
vt 0.109375 1.000000
vt 0.093750 0.937500
vt 0.109375 0.000000
vt 0.093750 0.437500
vt 0.093750 0.875000
vt 0.093750 0.375000
vt 0.093750 0.812500
vt 0.093750 0.312500
vt 0.093750 0.750000
vt 0.093750 0.250000
vt 0.093750 0.687500
vt 0.093750 0.187500
vt 0.062500 0.875000
vt 0.062500 0.812500
vt 0.062500 0.312500
vt 0.062500 0.750000
vt 0.062500 0.250000
vt 0.062500 0.687500
vt 0.062500 0.187500
vt 0.062500 0.625000
vt 0.062500 0.125000
vt 0.062500 0.562500
vt 0.062500 0.062500
vt 0.062500 0.500000
vt 0.078125 1.000000
vt 0.062500 0.937500
vt 0.078125 0.000000
vt 0.062500 0.437500
vt 0.062500 0.375000
vt 0.031250 0.625000
vt 0.031250 0.562500
vt 0.031250 0.062500
vt 0.031250 0.500000
vt 0.046875 1.000000
vt 0.031250 0.937500
vt 0.046875 0.000000
vt 0.031250 0.437500
vt 0.031250 0.875000
vt 0.031250 0.375000
vt 0.031250 0.812500
vt 0.031250 0.312500
vt 0.031250 0.750000
vt 0.031250 0.250000
vt 0.031250 0.687500
vt 0.031250 0.187500
vt 0.031250 0.125000
vt 0.000000 0.375000
vt 0.000000 0.312500
vt 0.000000 0.750000
vt 0.000000 0.250000
vt 0.000000 0.687500
vt 0.000000 0.187500
vt 0.000000 0.625000
vt 0.000000 0.125000
vt 0.000000 0.562500
vt 0.000000 0.062500
vt 0.000000 0.500000
vt 0.015625 1.000000
vt 0.000000 0.937500
vt 0.015625 0.000000
vt 0.000000 0.437500
vt 0.000000 0.875000
vt 0.000000 0.812500
vt 1.000000 0.125000
vt 0.968750 0.062500
vt 1.000000 0.062500
vt 1.000000 0.500000
vt 0.968750 0.562500
vt 0.968750 0.500000
vt 1.000000 0.937500
vt 0.984375 1.000000
vt 0.968750 0.937500
vt 0.984375 0.000000
vt 0.968750 0.437500
vt 1.000000 0.437500
vt 0.968750 0.875000
vt 1.000000 0.875000
vt 1.000000 0.375000
vt 0.968750 0.375000
vt 1.000000 0.812500
vt 0.968750 0.812500
vt 0.968750 0.312500
vt 1.000000 0.312500
vt 1.000000 0.750000
vt 0.968750 0.750000
vt 1.000000 0.250000
vt 0.968750 0.250000
vt 0.968750 0.687500
vt 1.000000 0.687500
vt 0.968750 0.187500
vt 1.000000 0.187500
vt 0.968750 0.625000
vt 1.000000 0.625000
vt 0.968750 0.125000
vt 1.000000 0.562500
vt 0.937500 0.250000
vt 0.937500 0.750000
vt 0.937500 0.687500
vt 0.937500 0.187500
vt 0.937500 0.625000
vt 0.937500 0.125000
vt 0.937500 0.562500
vt 0.937500 0.062500
vt 0.937500 0.500000
vt 0.953125 1.000000
vt 0.937500 0.937500
vt 0.953125 0.000000
vt 0.937500 0.437500
vt 0.937500 0.875000
vt 0.937500 0.375000
vt 0.937500 0.812500
vt 0.937500 0.312500
vt 0.921875 1.000000
vt 0.906250 0.937500
vt 0.921875 0.000000
vt 0.906250 0.062500
vt 0.906250 0.437500
vt 0.906250 0.875000
vt 0.906250 0.375000
vt 0.906250 0.812500
vt 0.906250 0.312500
vt 0.906250 0.750000
vt 0.906250 0.250000
vt 0.906250 0.687500
vt 0.906250 0.187500
vt 0.906250 0.625000
vt 0.906250 0.125000
vt 0.906250 0.562500
vt 0.906250 0.500000
vt 0.875000 0.687500
vt 0.875000 0.250000
vt 0.875000 0.187500
vt 0.875000 0.625000
vt 0.875000 0.125000
vt 0.875000 0.562500
vt 0.875000 0.062500
vt 0.875000 0.500000
vt 0.890625 1.000000
vt 0.875000 0.937500
vt 0.890625 0.000000
vt 0.875000 0.437500
vt 0.875000 0.875000
vt 0.875000 0.375000
vt 0.875000 0.812500
vt 0.875000 0.312500
vt 0.875000 0.750000
vt 0.843750 0.437500
vt 0.843750 0.937500
vt 0.843750 0.875000
vt 0.843750 0.375000
vt 0.843750 0.812500
vt 0.843750 0.312500
vt 0.843750 0.750000
vt 0.843750 0.250000
vt 0.843750 0.687500
vt 0.843750 0.187500
vt 0.843750 0.625000
vt 0.843750 0.125000
vt 0.843750 0.562500
vt 0.843750 0.062500
vt 0.843750 0.500000
vt 0.859375 1.000000
vt 0.859375 0.000000
vt 0.812500 0.187500
vt 0.812500 0.625000
vt 0.812500 0.125000
vt 0.812500 0.562500
vt 0.812500 0.062500
vt 0.812500 0.500000
vt 0.828125 1.000000
vt 0.812500 0.937500
vt 0.828125 0.000000
vt 0.812500 0.437500
vt 0.812500 0.875000
vt 0.812500 0.375000
vt 0.812500 0.812500
vt 0.812500 0.312500
vt 0.812500 0.750000
vt 0.812500 0.250000
vt 0.812500 0.687500
vt 0.781250 0.937500
vt 0.781250 0.875000
vt 0.781250 0.437500
vt 0.781250 0.375000
vt 0.781250 0.812500
vt 0.781250 0.312500
vt 0.781250 0.750000
vt 0.781250 0.250000
vt 0.781250 0.687500
vt 0.781250 0.187500
vt 0.781250 0.625000
vt 0.781250 0.125000
vt 0.781250 0.562500
vt 0.781250 0.062500
vt 0.781250 0.500000
vt 0.796875 1.000000
vt 0.796875 0.000000
vt 0.765625 1.000000
vt 0.765625 0.000000
s 1
f 479/1/1 19/2/2 480/3/3
f 477/4/4 11/5/5 12/6/6
f 480/3/3 20/7/7 481/8/8
f 477/4/4 13/9/9 3/10/10
f 481/8/8 21/11/11 482/12/12
f 4/13/13 13/9/9 14/14/14
f 474/15/15 82/16/16 7/17/17
f 308/18/18 482/12/12 21/11/11
f 4/13/13 15/19/19 5/20/20
f 475/21/21 7/17/17 8/22/22
f 478/23/23 15/19/19 16/24/24
f 1/25/25 8/22/22 9/26/26
f 478/23/23 17/27/27 6/28/28
f 1/25/25 10/29/29 476/30/30
f 479/1/1 17/27/27 18/31/31
f 476/30/30 11/5/5 2/32/32
f 17/27/27 33/33/33 18/31/31
f 11/5/5 25/34/34 26/35/35
f 18/31/31 34/36/36 19/2/2
f 11/5/5 27/37/37 12/6/6
f 19/2/2 35/38/38 20/7/7
f 13/9/9 27/37/37 28/39/39
f 20/7/7 36/40/40 21/11/11
f 14/14/14 28/39/39 29/41/41
f 7/17/17 82/42/16 22/43/42
f 308/44/18 21/11/11 36/40/40
f 14/14/14 30/45/43 15/19/19
f 8/22/22 22/43/42 23/46/44
f 15/19/19 31/47/45 16/24/24
f 9/26/26 23/46/44 24/48/46
f 17/27/27 31/47/45 32/49/47
f 10/29/29 24/48/46 25/34/34
f 22/43/42 82/50/16 37/51/48
f 308/52/18 36/40/40 51/53/49
f 29/41/41 45/54/50 30/45/43
f 22/43/42 38/55/51 23/46/44
f 31/47/45 45/54/50 46/56/52
f 23/46/44 39/57/53 24/48/46
f 31/47/45 47/58/54 32/49/47
f 24/48/46 40/59/55 25/34/34
f 33/33/33 47/58/54 48/60/56
f 25/34/34 41/61/57 26/35/35
f 34/36/36 48/60/56 49/62/58
f 26/35/35 42/63/59 27/37/37
f 34/36/36 50/64/60 35/38/38
f 27/37/37 43/65/61 28/39/39
f 36/40/40 50/64/60 51/53/49
f 29/41/41 43/65/61 44/66/62
f 41/61/57 55/67/63 56/68/64
f 48/60/56 64/69/65 49/62/58
f 42/63/59 56/68/64 57/70/66
f 49/62/58 65/71/67 50/64/60
f 43/65/61 57/70/66 58/72/68
f 51/53/49 65/71/67 66/73/69
f 44/66/62 58/72/68 59/74/70
f 37/51/48 82/75/16 52/76/71
f 308/77/18 51/53/49 66/73/69
f 44/66/62 60/78/72 45/54/50
f 38/55/51 52/76/71 53/79/73
f 45/54/50 61/80/74 46/56/52
f 39/57/53 53/79/73 54/81/75
f 46/56/52 62/82/76 47/58/54
f 40/59/55 54/81/75 55/67/63
f 47/58/54 63/83/77 48/60/56
f 59/74/70 75/84/78 60/78/72
f 53/79/73 67/85/79 68/86/80
f 60/78/72 76/87/81 61/80/74
f 53/79/73 69/88/82 54/81/75
f 61/80/74 77/89/83 62/82/76
f 54/81/75 70/90/84 55/67/63
f 62/82/76 78/91/85 63/83/77
f 56/68/64 70/90/84 71/92/86
f 64/69/65 78/91/85 79/93/87
f 56/68/64 72/94/88 57/70/66
f 65/71/67 79/93/87 80/95/89
f 58/72/68 72/94/88 73/96/90
f 66/73/69 80/95/89 81/97/91
f 58/72/68 74/98/92 59/74/70
f 52/76/71 82/99/16 67/85/79
f 308/100/18 66/73/69 81/97/91
f 79/93/87 94/101/93 95/102/94
f 72/94/88 87/103/95 88/104/96
f 80/95/89 95/102/94 96/105/97
f 72/94/88 89/106/98 73/96/90
f 81/97/91 96/105/97 97/107/99
f 74/98/92 89/106/98 90/108/100
f 67/85/79 82/109/16 83/110/101
f 308/111/18 81/97/91 97/107/99
f 74/98/92 91/112/102 75/84/78
f 67/85/79 84/113/103 68/86/80
f 75/84/78 92/114/104 76/87/81
f 68/86/80 85/115/105 69/88/82
f 77/89/83 92/114/104 93/116/106
f 69/88/82 86/117/107 70/90/84
f 77/89/83 94/101/93 78/91/85
f 71/92/86 86/117/107 87/103/95
f 91/112/102 107/118/108 92/114/104
f 84/113/103 100/119/109 85/115/105
f 93/116/106 107/118/108 108/120/110
f 86/117/107 100/119/109 101/121/111
f 94/101/93 108/120/110 109/122/112
f 86/117/107 102/123/113 87/103/95
f 94/101/93 110/124/114 95/102/94
f 87/103/95 103/125/115 88/104/96
f 96/105/97 110/124/114 111/126/116
f 89/106/98 103/125/115 104/127/117
f 97/107/99 111/126/116 112/128/118
f 89/106/98 105/129/119 90/108/100
f 83/110/101 82/130/16 98/131/120
f 308/132/18 97/107/99 112/128/118
f 91/112/102 105/129/119 106/133/121
f 84/113/103 98/131/120 99/134/122
f 110/124/114 126/135/123 111/126/116
f 104/127/117 118/136/124 119/137/125
f 111/126/116 127/138/126 112/128/118
f 105/129/119 119/137/125 120/139/127
f 98/131/120 82/140/16 113/141/128
f 308/142/18 112/128/118 127/138/126
f 105/129/119 121/143/129 106/133/121
f 99/134/122 113/141/128 114/144/130
f 106/133/121 122/145/131 107/118/108
f 100/119/109 114/144/130 115/146/132
f 108/120/110 122/145/131 123/147/133
f 101/121/111 115/146/132 116/148/134
f 108/120/110 124/149/135 109/122/112
f 102/123/113 116/148/134 117/150/136
f 109/122/112 125/151/137 110/124/114
f 102/123/113 118/136/124 103/125/115
f 114/144/130 130/152/138 115/146/132
f 122/145/131 138/153/139 123/147/133
f 115/146/132 131/154/140 116/148/134
f 124/149/135 138/153/139 139/155/141
f 116/148/134 132/156/142 117/150/136
f 124/149/135 140/157/143 125/151/137
f 117/150/136 133/158/144 118/136/124
f 126/135/123 140/157/143 141/159/145
f 119/137/125 133/158/144 134/160/146
f 127/138/126 141/159/145 142/161/147
f 120/139/127 134/160/146 135/162/148
f 113/141/128 82/163/16 128/164/149
f 308/165/18 127/138/126 142/161/147
f 120/139/127 136/166/150 121/143/129
f 113/141/128 129/167/151 114/144/130
f 121/143/129 137/168/152 122/145/131
f 134/160/146 148/169/153 149/170/154
f 142/161/147 156/171/155 157/172/156
f 135/162/148 149/170/154 150/173/157
f 128/164/149 82/174/16 143/175/158
f 308/176/18 142/161/147 157/172/156
f 135/162/148 151/177/159 136/166/150
f 128/164/149 144/178/160 129/167/151
f 136/166/150 152/179/161 137/168/152
f 130/152/138 144/178/160 145/180/162
f 138/153/139 152/179/161 153/181/163
f 130/152/138 146/182/164 131/154/140
f 138/153/139 154/183/165 139/155/141
f 132/156/142 146/182/164 147/184/166
f 140/157/143 154/183/165 155/185/167
f 132/156/142 148/169/153 133/158/144
f 140/157/143 156/171/155 141/159/145
f 153/181/163 167/186/168 168/187/169
f 146/182/164 160/188/170 161/189/171
f 153/181/163 169/190/172 154/183/165
f 147/184/166 161/189/171 162/191/173
f 155/185/167 169/190/172 170/192/174
f 147/184/166 163/193/175 148/169/153
f 156/171/155 170/192/174 171/194/176
f 149/170/154 163/193/175 164/195/177
f 156/171/155 172/196/178 157/172/156
f 150/173/157 164/195/177 165/197/179
f 143/175/158 82/198/16 158/199/180
f 308/200/18 157/172/156 172/196/178
f 150/173/157 166/201/181 151/177/159
f 144/178/160 158/199/180 159/202/182
f 151/177/159 167/186/168 152/179/161
f 144/178/160 160/188/170 145/180/162
f 171/194/176 187/203/183 172/196/178
f 165/197/179 179/204/184 180/205/185
f 158/199/180 82/206/16 173/207/186
f 308/208/18 172/196/178 187/203/183
f 165/197/179 181/209/187 166/201/181
f 158/199/180 174/210/188 159/202/182
f 167/186/168 181/209/187 182/211/189
f 159/202/182 175/212/190 160/188/170
f 167/186/168 183/213/191 168/187/169
f 160/188/170 176/214/192 161/189/171
f 168/187/169 184/215/193 169/190/172
f 162/191/173 176/214/192 177/216/194
f 170/192/174 184/215/193 185/217/195
f 163/193/175 177/216/194 178/218/196
f 171/194/176 185/217/195 186/219/197
f 164/195/177 178/218/196 179/204/184
f 175/212/190 191/220/198 176/214/192
f 183/213/191 199/221/199 184/215/193
f 177/216/194 191/220/198 192/222/200
f 185/217/195 199/221/199 200/223/201
f 177/216/194 193/224/202 178/218/196
f 185/217/195 201/225/203 186/219/197
f 178/218/196 194/226/204 179/204/184
f 186/219/197 202/227/205 187/203/183
f 180/205/185 194/226/204 195/228/206
f 173/207/186 82/229/16 188/230/207
f 308/231/18 187/203/183 202/227/205
f 180/205/185 196/232/208 181/209/187
f 174/210/188 188/230/207 189/233/209
f 182/211/189 196/232/208 197/234/210
f 175/212/190 189/233/209 190/235/211
f 182/211/189 198/236/212 183/213/191
f 195/228/206 209/237/213 210/238/214
f 188/230/207 82/239/16 203/240/215
f 308/241/18 202/227/205 217/242/216
f 195/228/206 211/243/217 196/232/208
f 188/230/207 204/244/218 189/233/209
f 196/232/208 212/245/219 197/234/210
f 189/233/209 205/246/220 190/235/211
f 198/236/212 212/245/219 213/247/221
f 190/235/211 206/248/222 191/220/198
f 198/236/212 214/249/223 199/221/199
f 192/222/200 206/248/222 207/250/224
f 199/221/199 215/251/225 200/223/201
f 192/222/200 208/252/226 193/224/202
f 201/225/203 215/251/225 216/253/227
f 194/226/204 208/252/226 209/237/213
f 202/227/205 216/253/227 217/242/216
f 214/249/223 228/254/228 229/255/229
f 206/248/222 222/256/230 207/250/224
f 215/251/225 229/255/229 230/257/231
f 207/250/224 223/258/232 208/252/226
f 215/251/225 231/259/233 216/253/227
f 209/237/213 223/258/232 224/260/234
f 216/253/227 232/261/235 217/242/216
f 210/238/214 224/260/234 225/262/236
f 203/240/215 82/263/16 218/264/237
f 308/265/18 217/242/216 232/261/235
f 210/238/214 226/266/238 211/243/217
f 204/244/218 218/264/237 219/267/239
f 211/243/217 227/268/240 212/245/219
f 205/246/220 219/267/239 220/269/241
f 213/247/221 227/268/240 228/254/228
f 205/246/220 221/270/242 206/248/222
f 308/271/18 232/261/235 247/272/243
f 225/262/236 241/273/244 226/266/238
f 219/267/239 233/274/245 234/275/246
f 227/268/240 241/273/244 242/276/247
f 219/267/239 235/277/248 220/269/241
f 227/268/240 243/278/249 228/254/228
f 220/269/241 236/279/250 221/270/242
f 228/254/228 244/280/251 229/255/229
f 222/256/230 236/279/250 237/281/252
f 230/257/231 244/280/251 245/282/253
f 223/258/232 237/281/252 238/283/254
f 231/259/233 245/282/253 246/284/255
f 224/260/234 238/283/254 239/285/256
f 231/259/233 247/272/243 232/261/235
f 225/262/236 239/285/256 240/286/257
f 218/264/237 82/287/16 233/274/245
f 244/280/251 260/288/258 245/282/253
f 237/281/252 253/289/259 238/283/254
f 245/282/253 261/290/260 246/284/255
f 239/285/256 253/289/259 254/291/261
f 247/272/243 261/290/260 262/292/262
f 240/286/257 254/291/261 255/293/263
f 233/274/245 82/294/16 248/295/264
f 308/296/18 247/272/243 262/292/262
f 240/286/257 256/297/265 241/273/244
f 233/274/245 249/298/266 234/275/246
f 241/273/244 257/299/267 242/276/247
f 235/277/248 249/298/266 250/300/268
f 243/278/249 257/299/267 258/301/269
f 236/279/250 250/300/268 251/302/270
f 244/280/251 258/301/269 259/303/271
f 236/279/250 252/304/272 237/281/252
f 248/295/264 264/305/273 249/298/266
f 256/297/265 272/306/274 257/299/267
f 249/298/266 265/307/275 250/300/268
f 258/301/269 272/306/274 273/308/276
f 250/300/268 266/309/277 251/302/270
f 258/301/269 274/310/278 259/303/271
f 252/304/272 266/309/277 267/311/279
f 260/288/258 274/310/278 275/312/280
f 252/304/272 268/313/281 253/289/259
f 261/290/260 275/312/280 276/314/282
f 254/291/261 268/313/281 269/315/283
f 262/292/262 276/314/282 277/316/284
f 255/293/263 269/315/283 270/317/285
f 248/295/264 82/318/16 263/319/286
f 308/320/18 262/292/262 277/316/284
f 255/293/263 271/321/287 256/297/265
f 267/311/279 283/322/288 268/313/281
f 275/312/280 291/323/289 276/314/282
f 269/315/283 283/322/288 284/324/290
f 276/314/282 292/325/291 277/316/284
f 270/317/285 284/324/290 285/326/292
f 263/319/286 82/327/16 278/328/293
f 308/329/18 277/316/284 292/325/291
f 270/317/285 286/330/294 271/321/287
f 264/305/273 278/328/293 279/331/295
f 271/321/287 287/332/296 272/306/274
f 265/307/275 279/331/295 280/333/297
f 273/308/276 287/332/296 288/334/298
f 265/307/275 281/335/299 266/309/277
f 273/308/276 289/336/300 274/310/278
f 267/311/279 281/335/299 282/337/301
f 275/312/280 289/336/300 290/338/302
f 286/330/294 302/339/303 287/332/296
f 279/331/295 295/340/304 280/333/297
f 288/334/298 302/339/303 303/341/305
f 280/333/297 296/342/306 281/335/299
f 289/336/300 303/341/305 304/343/307
f 281/335/299 297/344/308 282/337/301
f 290/338/302 304/343/307 305/345/309
f 282/337/301 298/346/310 283/322/288
f 291/323/289 305/345/309 306/347/311
f 284/324/290 298/346/310 299/348/312
f 292/325/291 306/347/311 307/349/313
f 285/326/292 299/348/312 300/350/314
f 278/328/293 82/351/16 293/352/315
f 308/353/18 292/325/291 307/349/313
f 285/326/292 301/354/316 286/330/294
f 278/328/293 294/355/317 279/331/295
f 305/345/309 322/356/318 306/347/311
f 299/348/312 314/357/319 315/358/320
f 306/347/311 323/359/321 307/349/313
f 300/350/314 315/358/320 316/360/322
f 293/352/315 82/361/16 309/362/323
f 308/363/18 307/349/313 323/359/321
f 300/350/314 317/364/324 301/354/316
f 294/355/317 309/362/323 310/365/325
f 301/354/316 318/366/326 302/339/303
f 295/340/304 310/365/325 311/367/327
f 303/341/305 318/366/326 319/368/328
f 295/340/304 312/369/329 296/342/306
f 303/341/305 320/370/330 304/343/307
f 297/344/308 312/369/329 313/371/331
f 305/345/309 320/370/330 321/372/332
f 297/344/308 314/357/319 298/346/310
f 311/367/327 325/373/333 326/374/334
f 318/366/326 334/375/335 319/368/328
f 311/367/327 327/376/336 312/369/329
f 320/370/330 334/375/335 335/377/337
f 312/369/329 328/378/338 313/371/331
f 321/372/332 335/377/337 336/379/339
f 314/357/319 328/378/338 329/380/340
f 321/372/332 337/381/341 322/356/318
f 315/358/320 329/380/340 330/382/342
f 323/359/321 337/381/341 338/383/343
f 316/360/322 330/382/342 331/384/344
f 309/362/323 82/385/16 324/386/345
f 308/387/18 323/359/321 338/383/343
f 316/360/322 332/388/346 317/364/324
f 309/362/323 325/373/333 310/365/325
f 317/364/324 333/389/347 318/366/326
f 330/382/342 344/390/348 345/391/349
f 337/381/341 353/392/350 338/383/343
f 330/382/342 346/393/351 331/384/344
f 324/386/345 82/394/16 339/395/352
f 308/396/18 338/383/343 353/392/350
f 332/388/346 346/393/351 347/397/353
f 325/373/333 339/395/352 340/398/354
f 332/388/346 348/399/355 333/389/347
f 326/374/334 340/398/354 341/400/356
f 333/389/347 349/401/357 334/375/335
f 326/374/334 342/402/358 327/376/336
f 335/377/337 349/401/357 350/403/359
f 327/376/336 343/404/360 328/378/338
f 336/379/339 350/403/359 351/405/361
f 329/380/340 343/404/360 344/390/348
f 336/379/339 352/406/362 337/381/341
f 349/401/357 363/407/363 364/408/364
f 341/400/356 357/409/365 342/402/358
f 350/403/359 364/408/364 365/410/366
f 342/402/358 358/411/367 343/404/360
f 351/405/361 365/410/366 366/412/368
f 344/390/348 358/411/367 359/413/369
f 352/406/362 366/412/368 367/414/370
f 345/391/349 359/413/369 360/415/371
f 353/392/350 367/414/370 368/416/372
f 346/393/351 360/415/371 361/417/373
f 339/395/352 82/418/16 354/419/374
f 308/420/18 353/392/350 368/416/372
f 346/393/351 362/421/375 347/397/353
f 339/395/352 355/422/376 340/398/354
f 347/397/353 363/407/363 348/399/355
f 340/398/354 356/423/377 341/400/356
f 367/424/370 383/425/378 368/426/372
f 361/427/373 375/428/379 376/429/380
f 354/430/374 82/431/16 369/432/381
f 308/433/18 368/426/372 383/425/378
f 361/427/373 377/434/382 362/435/375
f 354/430/374 370/436/383 355/437/376
f 363/438/363 377/434/382 378/439/384
f 356/440/377 370/436/383 371/441/385
f 363/438/363 379/442/386 364/443/364
f 357/444/365 371/441/385 372/445/387
f 365/446/366 379/442/386 380/447/388
f 357/444/365 373/448/389 358/449/367
f 365/446/366 381/450/390 366/451/368
f 358/449/367 374/452/391 359/453/369
f 366/451/368 382/454/392 367/424/370
f 359/453/369 375/428/379 360/455/371
f 379/442/386 395/456/393 380/447/388
f 373/448/389 387/457/394 388/458/395
f 381/450/390 395/456/393 396/459/396
f 373/448/389 389/460/397 374/452/391
f 382/454/392 396/459/396 397/461/398
f 375/428/379 389/460/397 390/462/399
f 383/425/378 397/461/398 398/463/400
f 376/429/380 390/462/399 391/464/401
f 369/432/381 82/465/16 384/466/402
f 308/467/18 383/425/378 398/463/400
f 376/429/380 392/468/403 377/434/382
f 369/432/381 385/469/404 370/436/383
f 377/434/382 393/470/405 378/439/384
f 370/436/383 386/471/406 371/441/385
f 379/442/386 393/470/405 394/472/407
f 371/441/385 387/457/394 372/445/387
f 384/466/402 82/473/16 399/474/408
f 308/475/18 398/463/400 413/476/409
f 391/464/401 407/477/410 392/468/403
f 385/469/404 399/474/408 400/478/411
f 392/468/403 408/479/412 393/470/405
f 386/471/406 400/478/411 401/480/413
f 394/472/407 408/479/412 409/481/414
f 386/471/406 402/482/415 387/457/394
f 394/472/407 410/483/416 395/456/393
f 388/458/395 402/482/415 403/484/417
f 396/459/396 410/483/416 411/485/418
f 388/458/395 404/486/419 389/460/397
f 396/459/396 412/487/420 397/461/398
f 390/462/399 404/486/419 405/488/421
f 397/461/398 413/476/409 398/463/400
f 391/464/401 405/488/421 406/489/422
f 402/482/415 418/490/423 403/484/417
f 411/485/418 425/491/424 426/492/425
f 403/484/417 419/493/426 404/486/419
f 412/487/420 426/492/425 427/494/427
f 405/488/421 419/493/426 420/495/428
f 413/476/409 427/494/427 428/496/429
f 406/489/422 420/495/428 421/497/430
f 399/474/408 82/498/16 414/499/431
f 308/500/18 413/476/409 428/496/429
f 406/489/422 422/501/432 407/477/410
f 399/474/408 415/502/433 400/478/411
f 407/477/410 423/503/434 408/479/412
f 400/478/411 416/504/435 401/480/413
f 409/481/414 423/503/434 424/505/436
f 401/480/413 417/506/437 402/482/415
f 409/481/414 425/491/424 410/483/416
f 421/497/430 437/507/438 422/501/432
f 415/502/433 429/508/439 430/509/440
f 422/501/432 438/510/441 423/503/434
f 416/504/435 430/509/440 431/511/442
f 423/503/434 439/512/443 424/505/436
f 417/506/437 431/511/442 432/513/444
f 424/505/436 440/514/445 425/491/424
f 418/490/423 432/513/444 433/515/446
f 426/492/425 440/514/445 441/516/447
f 419/493/426 433/515/446 434/517/448
f 426/492/425 442/518/449 427/494/427
f 420/495/428 434/517/448 435/519/450
f 427/494/427 443/520/451 428/496/429
f 421/497/430 435/519/450 436/521/452
f 414/499/431 82/522/16 429/508/439
f 308/523/18 428/496/429 443/520/451
f 440/514/445 456/524/453 441/516/447
f 433/515/446 449/525/454 434/517/448
f 441/516/447 457/526/455 442/518/449
f 435/519/450 449/525/454 450/527/456
f 443/520/451 457/526/455 458/528/457
f 436/521/452 450/527/456 451/529/458
f 429/508/439 82/530/16 444/531/459
f 308/532/18 443/520/451 458/528/457
f 436/521/452 452/533/460 437/507/438
f 429/508/439 445/534/461 430/509/440
f 437/507/438 453/535/462 438/510/441
f 430/509/440 446/536/463 431/511/442
f 439/512/443 453/535/462 454/537/464
f 432/513/444 446/536/463 447/538/465
f 440/514/445 454/537/464 455/539/466
f 432/513/444 448/540/467 433/515/446
f 445/534/461 459/541/468 460/542/469
f 453/535/462 467/543/470 468/544/471
f 446/536/463 460/542/469 461/545/472
f 453/535/462 469/546/473 454/537/464
f 446/536/463 462/547/474 447/538/465
f 454/537/464 470/548/475 455/539/466
f 448/540/467 462/547/474 463/549/476
f 456/524/453 470/548/475 471/550/477
f 449/525/454 463/549/476 464/551/478
f 456/524/453 472/552/479 457/526/455
f 449/525/454 465/553/480 450/527/456
f 457/526/455 473/554/481 458/528/457
f 451/529/458 465/553/480 466/555/482
f 444/531/459 82/556/16 459/541/468
f 308/557/18 458/528/457 473/554/481
f 451/529/458 467/543/470 452/533/460
f 464/551/478 2/32/32 477/4/4
f 472/552/479 480/3/3 481/8/8
f 464/551/478 3/10/10 465/553/480
f 472/552/479 482/12/12 473/554/481
f 466/555/482 3/10/10 4/13/13
f 459/541/468 82/558/16 474/15/15
f 308/559/18 473/554/481 482/12/12
f 466/555/482 5/20/20 467/543/470
f 460/542/469 474/15/15 475/21/21
f 468/544/471 5/20/20 478/23/23
f 460/542/469 1/25/25 461/545/472
f 468/544/471 6/28/28 469/546/473
f 462/547/474 1/25/25 476/30/30
f 469/546/473 479/1/1 470/548/475
f 463/549/476 476/30/30 2/32/32
f 470/548/475 480/3/3 471/550/477
f 479/1/1 18/31/31 19/2/2
f 477/4/4 2/32/32 11/5/5
f 480/3/3 19/2/2 20/7/7
f 477/4/4 12/6/6 13/9/9
f 481/8/8 20/7/7 21/11/11
f 4/13/13 3/10/10 13/9/9
f 4/13/13 14/14/14 15/19/19
f 475/21/21 474/15/15 7/17/17
f 478/23/23 5/20/20 15/19/19
f 1/25/25 475/21/21 8/22/22
f 478/23/23 16/24/24 17/27/27
f 1/25/25 9/26/26 10/29/29
f 479/1/1 6/28/28 17/27/27
f 476/30/30 10/29/29 11/5/5
f 17/27/27 32/49/47 33/33/33
f 11/5/5 10/29/29 25/34/34
f 18/31/31 33/33/33 34/36/36
f 11/5/5 26/35/35 27/37/37
f 19/2/2 34/36/36 35/38/38
f 13/9/9 12/6/6 27/37/37
f 20/7/7 35/38/38 36/40/40
f 14/14/14 13/9/9 28/39/39
f 14/14/14 29/41/41 30/45/43
f 8/22/22 7/17/17 22/43/42
f 15/19/19 30/45/43 31/47/45
f 9/26/26 8/22/22 23/46/44
f 17/27/27 16/24/24 31/47/45
f 10/29/29 9/26/26 24/48/46
f 29/41/41 44/66/62 45/54/50
f 22/43/42 37/51/48 38/55/51
f 31/47/45 30/45/43 45/54/50
f 23/46/44 38/55/51 39/57/53
f 31/47/45 46/56/52 47/58/54
f 24/48/46 39/57/53 40/59/55
f 33/33/33 32/49/47 47/58/54
f 25/34/34 40/59/55 41/61/57
f 34/36/36 33/33/33 48/60/56
f 26/35/35 41/61/57 42/63/59
f 34/36/36 49/62/58 50/64/60
f 27/37/37 42/63/59 43/65/61
f 36/40/40 35/38/38 50/64/60
f 29/41/41 28/39/39 43/65/61
f 41/61/57 40/59/55 55/67/63
f 48/60/56 63/83/77 64/69/65
f 42/63/59 41/61/57 56/68/64
f 49/62/58 64/69/65 65/71/67
f 43/65/61 42/63/59 57/70/66
f 51/53/49 50/64/60 65/71/67
f 44/66/62 43/65/61 58/72/68
f 44/66/62 59/74/70 60/78/72
f 38/55/51 37/51/48 52/76/71
f 45/54/50 60/78/72 61/80/74
f 39/57/53 38/55/51 53/79/73
f 46/56/52 61/80/74 62/82/76
f 40/59/55 39/57/53 54/81/75
f 47/58/54 62/82/76 63/83/77
f 59/74/70 74/98/92 75/84/78
f 53/79/73 52/76/71 67/85/79
f 60/78/72 75/84/78 76/87/81
f 53/79/73 68/86/80 69/88/82
f 61/80/74 76/87/81 77/89/83
f 54/81/75 69/88/82 70/90/84
f 62/82/76 77/89/83 78/91/85
f 56/68/64 55/67/63 70/90/84
f 64/69/65 63/83/77 78/91/85
f 56/68/64 71/92/86 72/94/88
f 65/71/67 64/69/65 79/93/87
f 58/72/68 57/70/66 72/94/88
f 66/73/69 65/71/67 80/95/89
f 58/72/68 73/96/90 74/98/92
f 79/93/87 78/91/85 94/101/93
f 72/94/88 71/92/86 87/103/95
f 80/95/89 79/93/87 95/102/94
f 72/94/88 88/104/96 89/106/98
f 81/97/91 80/95/89 96/105/97
f 74/98/92 73/96/90 89/106/98
f 74/98/92 90/108/100 91/112/102
f 67/85/79 83/110/101 84/113/103
f 75/84/78 91/112/102 92/114/104
f 68/86/80 84/113/103 85/115/105
f 77/89/83 76/87/81 92/114/104
f 69/88/82 85/115/105 86/117/107
f 77/89/83 93/116/106 94/101/93
f 71/92/86 70/90/84 86/117/107
f 91/112/102 106/133/121 107/118/108
f 84/113/103 99/134/122 100/119/109
f 93/116/106 92/114/104 107/118/108
f 86/117/107 85/115/105 100/119/109
f 94/101/93 93/116/106 108/120/110
f 86/117/107 101/121/111 102/123/113
f 94/101/93 109/122/112 110/124/114
f 87/103/95 102/123/113 103/125/115
f 96/105/97 95/102/94 110/124/114
f 89/106/98 88/104/96 103/125/115
f 97/107/99 96/105/97 111/126/116
f 89/106/98 104/127/117 105/129/119
f 91/112/102 90/108/100 105/129/119
f 84/113/103 83/110/101 98/131/120
f 110/124/114 125/151/137 126/135/123
f 104/127/117 103/125/115 118/136/124
f 111/126/116 126/135/123 127/138/126
f 105/129/119 104/127/117 119/137/125
f 105/129/119 120/139/127 121/143/129
f 99/134/122 98/131/120 113/141/128
f 106/133/121 121/143/129 122/145/131
f 100/119/109 99/134/122 114/144/130
f 108/120/110 107/118/108 122/145/131
f 101/121/111 100/119/109 115/146/132
f 108/120/110 123/147/133 124/149/135
f 102/123/113 101/121/111 116/148/134
f 109/122/112 124/149/135 125/151/137
f 102/123/113 117/150/136 118/136/124
f 114/144/130 129/167/151 130/152/138
f 122/145/131 137/168/152 138/153/139
f 115/146/132 130/152/138 131/154/140
f 124/149/135 123/147/133 138/153/139
f 116/148/134 131/154/140 132/156/142
f 124/149/135 139/155/141 140/157/143
f 117/150/136 132/156/142 133/158/144
f 126/135/123 125/151/137 140/157/143
f 119/137/125 118/136/124 133/158/144
f 127/138/126 126/135/123 141/159/145
f 120/139/127 119/137/125 134/160/146
f 120/139/127 135/162/148 136/166/150
f 113/141/128 128/164/149 129/167/151
f 121/143/129 136/166/150 137/168/152
f 134/160/146 133/158/144 148/169/153
f 142/161/147 141/159/145 156/171/155
f 135/162/148 134/160/146 149/170/154
f 135/162/148 150/173/157 151/177/159
f 128/164/149 143/175/158 144/178/160
f 136/166/150 151/177/159 152/179/161
f 130/152/138 129/167/151 144/178/160
f 138/153/139 137/168/152 152/179/161
f 130/152/138 145/180/162 146/182/164
f 138/153/139 153/181/163 154/183/165
f 132/156/142 131/154/140 146/182/164
f 140/157/143 139/155/141 154/183/165
f 132/156/142 147/184/166 148/169/153
f 140/157/143 155/185/167 156/171/155
f 153/181/163 152/179/161 167/186/168
f 146/182/164 145/180/162 160/188/170
f 153/181/163 168/187/169 169/190/172
f 147/184/166 146/182/164 161/189/171
f 155/185/167 154/183/165 169/190/172
f 147/184/166 162/191/173 163/193/175
f 156/171/155 155/185/167 170/192/174
f 149/170/154 148/169/153 163/193/175
f 156/171/155 171/194/176 172/196/178
f 150/173/157 149/170/154 164/195/177
f 150/173/157 165/197/179 166/201/181
f 144/178/160 143/175/158 158/199/180
f 151/177/159 166/201/181 167/186/168
f 144/178/160 159/202/182 160/188/170
f 171/194/176 186/219/197 187/203/183
f 165/197/179 164/195/177 179/204/184
f 165/197/179 180/205/185 181/209/187
f 158/199/180 173/207/186 174/210/188
f 167/186/168 166/201/181 181/209/187
f 159/202/182 174/210/188 175/212/190
f 167/186/168 182/211/189 183/213/191
f 160/188/170 175/212/190 176/214/192
f 168/187/169 183/213/191 184/215/193
f 162/191/173 161/189/171 176/214/192
f 170/192/174 169/190/172 184/215/193
f 163/193/175 162/191/173 177/216/194
f 171/194/176 170/192/174 185/217/195
f 164/195/177 163/193/175 178/218/196
f 175/212/190 190/235/211 191/220/198
f 183/213/191 198/236/212 199/221/199
f 177/216/194 176/214/192 191/220/198
f 185/217/195 184/215/193 199/221/199
f 177/216/194 192/222/200 193/224/202
f 185/217/195 200/223/201 201/225/203
f 178/218/196 193/224/202 194/226/204
f 186/219/197 201/225/203 202/227/205
f 180/205/185 179/204/184 194/226/204
f 180/205/185 195/228/206 196/232/208
f 174/210/188 173/207/186 188/230/207
f 182/211/189 181/209/187 196/232/208
f 175/212/190 174/210/188 189/233/209
f 182/211/189 197/234/210 198/236/212
f 195/228/206 194/226/204 209/237/213
f 195/228/206 210/238/214 211/243/217
f 188/230/207 203/240/215 204/244/218
f 196/232/208 211/243/217 212/245/219
f 189/233/209 204/244/218 205/246/220
f 198/236/212 197/234/210 212/245/219
f 190/235/211 205/246/220 206/248/222
f 198/236/212 213/247/221 214/249/223
f 192/222/200 191/220/198 206/248/222
f 199/221/199 214/249/223 215/251/225
f 192/222/200 207/250/224 208/252/226
f 201/225/203 200/223/201 215/251/225
f 194/226/204 193/224/202 208/252/226
f 202/227/205 201/225/203 216/253/227
f 214/249/223 213/247/221 228/254/228
f 206/248/222 221/270/242 222/256/230
f 215/251/225 214/249/223 229/255/229
f 207/250/224 222/256/230 223/258/232
f 215/251/225 230/257/231 231/259/233
f 209/237/213 208/252/226 223/258/232
f 216/253/227 231/259/233 232/261/235
f 210/238/214 209/237/213 224/260/234
f 210/238/214 225/262/236 226/266/238
f 204/244/218 203/240/215 218/264/237
f 211/243/217 226/266/238 227/268/240
f 205/246/220 204/244/218 219/267/239
f 213/247/221 212/245/219 227/268/240
f 205/246/220 220/269/241 221/270/242
f 225/262/236 240/286/257 241/273/244
f 219/267/239 218/264/237 233/274/245
f 227/268/240 226/266/238 241/273/244
f 219/267/239 234/275/246 235/277/248
f 227/268/240 242/276/247 243/278/249
f 220/269/241 235/277/248 236/279/250
f 228/254/228 243/278/249 244/280/251
f 222/256/230 221/270/242 236/279/250
f 230/257/231 229/255/229 244/280/251
f 223/258/232 222/256/230 237/281/252
f 231/259/233 230/257/231 245/282/253
f 224/260/234 223/258/232 238/283/254
f 231/259/233 246/284/255 247/272/243
f 225/262/236 224/260/234 239/285/256
f 244/280/251 259/303/271 260/288/258
f 237/281/252 252/304/272 253/289/259
f 245/282/253 260/288/258 261/290/260
f 239/285/256 238/283/254 253/289/259
f 247/272/243 246/284/255 261/290/260
f 240/286/257 239/285/256 254/291/261
f 240/286/257 255/293/263 256/297/265
f 233/274/245 248/295/264 249/298/266
f 241/273/244 256/297/265 257/299/267
f 235/277/248 234/275/246 249/298/266
f 243/278/249 242/276/247 257/299/267
f 236/279/250 235/277/248 250/300/268
f 244/280/251 243/278/249 258/301/269
f 236/279/250 251/302/270 252/304/272
f 248/295/264 263/319/286 264/305/273
f 256/297/265 271/321/287 272/306/274
f 249/298/266 264/305/273 265/307/275
f 258/301/269 257/299/267 272/306/274
f 250/300/268 265/307/275 266/309/277
f 258/301/269 273/308/276 274/310/278
f 252/304/272 251/302/270 266/309/277
f 260/288/258 259/303/271 274/310/278
f 252/304/272 267/311/279 268/313/281
f 261/290/260 260/288/258 275/312/280
f 254/291/261 253/289/259 268/313/281
f 262/292/262 261/290/260 276/314/282
f 255/293/263 254/291/261 269/315/283
f 255/293/263 270/317/285 271/321/287
f 267/311/279 282/337/301 283/322/288
f 275/312/280 290/338/302 291/323/289
f 269/315/283 268/313/281 283/322/288
f 276/314/282 291/323/289 292/325/291
f 270/317/285 269/315/283 284/324/290
f 270/317/285 285/326/292 286/330/294
f 264/305/273 263/319/286 278/328/293
f 271/321/287 286/330/294 287/332/296
f 265/307/275 264/305/273 279/331/295
f 273/308/276 272/306/274 287/332/296
f 265/307/275 280/333/297 281/335/299
f 273/308/276 288/334/298 289/336/300
f 267/311/279 266/309/277 281/335/299
f 275/312/280 274/310/278 289/336/300
f 286/330/294 301/354/316 302/339/303
f 279/331/295 294/355/317 295/340/304
f 288/334/298 287/332/296 302/339/303
f 280/333/297 295/340/304 296/342/306
f 289/336/300 288/334/298 303/341/305
f 281/335/299 296/342/306 297/344/308
f 290/338/302 289/336/300 304/343/307
f 282/337/301 297/344/308 298/346/310
f 291/323/289 290/338/302 305/345/309
f 284/324/290 283/322/288 298/346/310
f 292/325/291 291/323/289 306/347/311
f 285/326/292 284/324/290 299/348/312
f 285/326/292 300/350/314 301/354/316
f 278/328/293 293/352/315 294/355/317
f 305/345/309 321/372/332 322/356/318
f 299/348/312 298/346/310 314/357/319
f 306/347/311 322/356/318 323/359/321
f 300/350/314 299/348/312 315/358/320
f 300/350/314 316/360/322 317/364/324
f 294/355/317 293/352/315 309/362/323
f 301/354/316 317/364/324 318/366/326
f 295/340/304 294/355/317 310/365/325
f 303/341/305 302/339/303 318/366/326
f 295/340/304 311/367/327 312/369/329
f 303/341/305 319/368/328 320/370/330
f 297/344/308 296/342/306 312/369/329
f 305/345/309 304/343/307 320/370/330
f 297/344/308 313/371/331 314/357/319
f 311/367/327 310/365/325 325/373/333
f 318/366/326 333/389/347 334/375/335
f 311/367/327 326/374/334 327/376/336
f 320/370/330 319/368/328 334/375/335
f 312/369/329 327/376/336 328/378/338
f 321/372/332 320/370/330 335/377/337
f 314/357/319 313/371/331 328/378/338
f 321/372/332 336/379/339 337/381/341
f 315/358/320 314/357/319 329/380/340
f 323/359/321 322/356/318 337/381/341
f 316/360/322 315/358/320 330/382/342
f 316/360/322 331/384/344 332/388/346
f 309/362/323 324/386/345 325/373/333
f 317/364/324 332/388/346 333/389/347
f 330/382/342 329/380/340 344/390/348
f 337/381/341 352/406/362 353/392/350
f 330/382/342 345/391/349 346/393/351
f 332/388/346 331/384/344 346/393/351
f 325/373/333 324/386/345 339/395/352
f 332/388/346 347/397/353 348/399/355
f 326/374/334 325/373/333 340/398/354
f 333/389/347 348/399/355 349/401/357
f 326/374/334 341/400/356 342/402/358
f 335/377/337 334/375/335 349/401/357
f 327/376/336 342/402/358 343/404/360
f 336/379/339 335/377/337 350/403/359
f 329/380/340 328/378/338 343/404/360
f 336/379/339 351/405/361 352/406/362
f 349/401/357 348/399/355 363/407/363
f 341/400/356 356/423/377 357/409/365
f 350/403/359 349/401/357 364/408/364
f 342/402/358 357/409/365 358/411/367
f 351/405/361 350/403/359 365/410/366
f 344/390/348 343/404/360 358/411/367
f 352/406/362 351/405/361 366/412/368
f 345/391/349 344/390/348 359/413/369
f 353/392/350 352/406/362 367/414/370
f 346/393/351 345/391/349 360/415/371
f 346/393/351 361/417/373 362/421/375
f 339/395/352 354/419/374 355/422/376
f 347/397/353 362/421/375 363/407/363
f 340/398/354 355/422/376 356/423/377
f 367/424/370 382/454/392 383/425/378
f 361/427/373 360/455/371 375/428/379
f 361/427/373 376/429/380 377/434/382
f 354/430/374 369/432/381 370/436/383
f 363/438/363 362/435/375 377/434/382
f 356/440/377 355/437/376 370/436/383
f 363/438/363 378/439/384 379/442/386
f 357/444/365 356/440/377 371/441/385
f 365/446/366 364/443/364 379/442/386
f 357/444/365 372/445/387 373/448/389
f 365/446/366 380/447/388 381/450/390
f 358/449/367 373/448/389 374/452/391
f 366/451/368 381/450/390 382/454/392
f 359/453/369 374/452/391 375/428/379
f 379/442/386 394/472/407 395/456/393
f 373/448/389 372/445/387 387/457/394
f 381/450/390 380/447/388 395/456/393
f 373/448/389 388/458/395 389/460/397
f 382/454/392 381/450/390 396/459/396
f 375/428/379 374/452/391 389/460/397
f 383/425/378 382/454/392 397/461/398
f 376/429/380 375/428/379 390/462/399
f 376/429/380 391/464/401 392/468/403
f 369/432/381 384/466/402 385/469/404
f 377/434/382 392/468/403 393/470/405
f 370/436/383 385/469/404 386/471/406
f 379/442/386 378/439/384 393/470/405
f 371/441/385 386/471/406 387/457/394
f 391/464/401 406/489/422 407/477/410
f 385/469/404 384/466/402 399/474/408
f 392/468/403 407/477/410 408/479/412
f 386/471/406 385/469/404 400/478/411
f 394/472/407 393/470/405 408/479/412
f 386/471/406 401/480/413 402/482/415
f 394/472/407 409/481/414 410/483/416
f 388/458/395 387/457/394 402/482/415
f 396/459/396 395/456/393 410/483/416
f 388/458/395 403/484/417 404/486/419
f 396/459/396 411/485/418 412/487/420
f 390/462/399 389/460/397 404/486/419
f 397/461/398 412/487/420 413/476/409
f 391/464/401 390/462/399 405/488/421
f 402/482/415 417/506/437 418/490/423
f 411/485/418 410/483/416 425/491/424
f 403/484/417 418/490/423 419/493/426
f 412/487/420 411/485/418 426/492/425
f 405/488/421 404/486/419 419/493/426
f 413/476/409 412/487/420 427/494/427
f 406/489/422 405/488/421 420/495/428
f 406/489/422 421/497/430 422/501/432
f 399/474/408 414/499/431 415/502/433
f 407/477/410 422/501/432 423/503/434
f 400/478/411 415/502/433 416/504/435
f 409/481/414 408/479/412 423/503/434
f 401/480/413 416/504/435 417/506/437
f 409/481/414 424/505/436 425/491/424
f 421/497/430 436/521/452 437/507/438
f 415/502/433 414/499/431 429/508/439
f 422/501/432 437/507/438 438/510/441
f 416/504/435 415/502/433 430/509/440
f 423/503/434 438/510/441 439/512/443
f 417/506/437 416/504/435 431/511/442
f 424/505/436 439/512/443 440/514/445
f 418/490/423 417/506/437 432/513/444
f 426/492/425 425/491/424 440/514/445
f 419/493/426 418/490/423 433/515/446
f 426/492/425 441/516/447 442/518/449
f 420/495/428 419/493/426 434/517/448
f 427/494/427 442/518/449 443/520/451
f 421/497/430 420/495/428 435/519/450
f 440/514/445 455/539/466 456/524/453
f 433/515/446 448/540/467 449/525/454
f 441/516/447 456/524/453 457/526/455
f 435/519/450 434/517/448 449/525/454
f 443/520/451 442/518/449 457/526/455
f 436/521/452 435/519/450 450/527/456
f 436/521/452 451/529/458 452/533/460
f 429/508/439 444/531/459 445/534/461
f 437/507/438 452/533/460 453/535/462
f 430/509/440 445/534/461 446/536/463
f 439/512/443 438/510/441 453/535/462
f 432/513/444 431/511/442 446/536/463
f 440/514/445 439/512/443 454/537/464
f 432/513/444 447/538/465 448/540/467
f 445/534/461 444/531/459 459/541/468
f 453/535/462 452/533/460 467/543/470
f 446/536/463 445/534/461 460/542/469
f 453/535/462 468/544/471 469/546/473
f 446/536/463 461/545/472 462/547/474
f 454/537/464 469/546/473 470/548/475
f 448/540/467 447/538/465 462/547/474
f 456/524/453 455/539/466 470/548/475
f 449/525/454 448/540/467 463/549/476
f 456/524/453 471/550/477 472/552/479
f 449/525/454 464/551/478 465/553/480
f 457/526/455 472/552/479 473/554/481
f 451/529/458 450/527/456 465/553/480
f 451/529/458 466/555/482 467/543/470
f 464/551/478 463/549/476 2/32/32
f 472/552/479 471/550/477 480/3/3
f 464/551/478 477/4/4 3/10/10
f 472/552/479 481/8/8 482/12/12
f 466/555/482 465/553/480 3/10/10
f 466/555/482 4/13/13 5/20/20
f 460/542/469 459/541/468 474/15/15
f 468/544/471 467/543/470 5/20/20
f 460/542/469 475/21/21 1/25/25
f 468/544/471 478/23/23 6/28/28
f 462/547/474 461/545/472 1/25/25
f 469/546/473 6/28/28 479/1/1
f 463/549/476 462/547/474 476/30/30
f 470/548/475 479/1/1 480/3/3
