# Blender 4.3.2
# www.blender.org
o Plane
v -3.718001 0.000000 0.000000
v 3.718001 0.000000 0.000000
v -3.718001 -0.000004 -8.000000
v 3.718001 -0.000004 -8.000000
v -3.718001 9.000000 -0.000004
v 3.718001 9.000000 -0.000004
v -3.718001 8.999996 -8.000004
v 3.718001 8.999996 -8.000004
v -1.239333 0.000000 0.000000
v 1.239334 0.000000 0.000000
v 1.239333 -0.000004 -8.000000
v -1.239334 -0.000004 -8.000000
v -1.239333 8.999996 -8.000004
v 1.239334 8.999996 -8.000004
v -1.239333 9.000000 -0.000004
v 1.239334 9.000000 -0.000004
v -3.718001 9.000000 -5.333333
v -3.718001 9.000000 -2.666671
v 3.718001 9.000000 -2.666671
v 3.718001 9.000000 -5.333333
v -1.239333 9.000000 -5.333333
v -1.239333 9.000000 -2.666671
v 1.239334 9.000000 -5.333333
v 1.239334 9.000000 -2.666671
vn -0.0000 1.0000 -0.0000
vn -0.0000 -1.0000 -0.0000
vn -0.0000 -0.0000 1.0000
vn -0.0000 -0.0000 -1.0000
vt 0.437412 0.529412
vt 0.291608 1.000000
vt 0.291608 0.529412
vt 0.437412 0.686275
vt 0.583216 0.529412
vt 0.583216 0.686275
vt 0.145804 0.529412
vt 0.000000 -0.000000
vt 0.145804 -0.000000
vt 0.291608 -0.000000
vt 0.437412 -0.000000
vt 0.729020 0.686275
vt 0.874824 0.529412
vt 0.874824 0.686275
vt 0.729020 0.529412
vt 0.000000 1.000000
vt 0.000000 0.529412
vt 0.145804 1.000000
vt 0.583216 1.000000
vt 0.729020 0.843137
vt 0.729020 1.000000
vt 0.874824 0.843137
vt 0.874824 1.000000
vt 0.437412 1.000000
vt 0.583216 0.843137
vt 0.437412 0.843137
vt 0.437412 1.000000
vt 0.437412 0.529412
vt 0.437412 0.000000
vt 0.583216 0.000000
vt 0.874824 0.000000
vt 0.729020 0.000000
s 1
f 2/1/1 11/2/1 10/3/1
f 19/4/2 16/5/2 24/6/2
f 13/7/3 3/8/3 12/9/3
f 8/1/3 11/10/3 4/11/3
f 14/3/3 12/9/3 11/10/3
f 22/12/2 5/13/2 18/14/2
f 24/6/2 15/15/2 22/12/2
f 9/7/1 3/16/1 1/17/1
f 9/7/1 11/2/1 12/18/1
f 14/19/2 21/20/2 13/21/2
f 13/21/2 17/22/2 7/23/2
f 21/20/2 18/14/2 17/22/2
f 8/24/2 23/25/2 14/19/2
f 20/26/2 24/6/2 23/25/2
f 2/1/1 4/27/1 11/2/1
f 19/4/2 6/28/2 16/5/2
f 13/7/3 7/17/3 3/8/3
f 8/1/3 14/3/3 11/10/3
f 14/3/3 13/7/3 12/9/3
f 22/12/2 15/15/2 5/13/2
f 24/6/2 16/5/2 15/15/2
f 9/7/1 12/18/1 3/16/1
f 9/7/1 10/3/1 11/2/1
f 14/19/2 23/25/2 21/20/2
f 13/21/2 21/20/2 17/22/2
f 21/20/2 22/12/2 18/14/2
f 8/24/2 20/26/2 23/25/2
f 20/26/2 19/4/2 24/6/2
f 16/5/4 2/29/4 10/30/4
f 10/30/4 15/15/4 16/5/4
f 1/31/4 15/15/4 9/32/4
f 16/5/4 6/28/4 2/29/4
f 10/30/4 9/32/4 15/15/4
f 1/31/4 5/13/4 15/15/4
