# Blender 4.3.2
# www.blender.org
o Cylinder.001
v 0.000000 -0.023228 0.000000
v 0.000000 -0.023229 -1.400000
v 0.016425 -0.016425 0.000000
v 0.016425 -0.016425 -1.400000
v 0.023228 -0.000000 0.000000
v 0.023228 -0.000000 -1.400000
v 0.016425 0.016425 -0.000000
v 0.016425 0.016425 -1.400000
v 0.000000 0.023228 -0.000000
v 0.000000 0.023228 -1.400000
v -0.016425 0.016425 -0.000000
v -0.016425 0.016425 -1.400000
v -0.023228 -0.000000 0.000000
v -0.023228 -0.000000 -1.400000
v -0.016425 -0.016425 0.000000
v -0.016425 -0.016425 -1.400000
v 0.000000 -0.140181 -1.384834
v 0.070091 -0.121400 -1.384834
v 0.121400 -0.070091 -1.384834
v 0.140181 -0.000000 -1.384834
v 0.121400 0.070091 -1.384834
v 0.070091 0.121400 -1.384834
v 0.000000 0.140181 -1.384834
v -0.070091 0.121400 -1.384834
v -0.121400 0.070091 -1.384834
v -0.140181 -0.000000 -1.384834
v -0.121400 -0.070091 -1.384834
v -0.070091 -0.121400 -1.384834
v 0.000000 -0.000000 -1.823828
vn 0.3827 -0.9239 -0.0000
vn 0.9239 -0.3827 -0.0000
vn 0.9239 0.3827 -0.0000
vn 0.3827 0.9239 -0.0000
vn -0.3827 0.9239 -0.0000
vn -0.9239 0.3827 -0.0000
vn -0.0000 -0.0000 -1.0000
vn -0.9239 -0.3827 -0.0000
vn -0.3827 -0.9239 -0.0000
vn -0.0000 -0.0000 1.0000
vn 0.2473 -0.9230 -0.2947
vn 0.6757 -0.6757 -0.2947
vn 0.9230 -0.2473 -0.2947
vn 0.9230 0.2473 -0.2947
vn 0.6757 0.6757 -0.2947
vn 0.2473 0.9230 -0.2947
vn -0.2473 0.9230 -0.2947
vn -0.6757 0.6757 -0.2947
vn -0.9230 0.2473 -0.2947
vn -0.9230 -0.2473 -0.2947
vn -0.6757 -0.6757 -0.2947
vn -0.2473 -0.9230 -0.2947
vt 1.000000 1.000000
vt 0.875000 0.500000
vt 1.000000 0.500000
vt 0.875000 1.000000
vt 0.750000 0.500000
vt 0.750000 1.000000
vt 0.625000 0.500000
vt 0.625000 1.000000
vt 0.500000 0.500000
vt 0.500000 1.000000
vt 0.375000 0.500000
vt 0.375000 1.000000
vt 0.250000 0.500000
vt 0.250000 0.010000
vt 0.419706 0.080294
vt 0.250000 0.490000
vt 0.250000 1.000000
vt 0.125000 0.500000
vt 0.125000 1.000000
vt 0.000000 0.500000
vt 0.580294 0.080294
vt 0.510000 0.250000
vt 0.580294 0.419706
vt 0.250000 0.250000
vt 0.370000 0.457846
vt 0.457846 0.370000
vt 0.490000 0.250000
vt 0.457846 0.130000
vt 0.370000 0.042154
vt 0.130000 0.042154
vt 0.042154 0.130000
vt 0.010000 0.250000
vt 0.042154 0.370000
vt 0.630000 0.457846
vt 0.542154 0.130000
vt 0.542154 0.370000
vt 0.130000 0.457846
vt 0.419706 0.419706
vt 0.080294 0.419706
vt 0.080294 0.080294
vt 0.000000 1.000000
vt 0.750000 0.490000
vt 0.750000 0.010000
vt 0.919706 0.419706
vt 0.919706 0.080294
vt 0.990000 0.250000
vt 0.630000 0.042154
vt 0.870000 0.457846
vt 0.957846 0.370000
vt 0.870000 0.042154
vt 0.957846 0.130000
s 1
f 2/1/1 3/2/1 1/3/1
f 4/4/2 5/5/2 3/2/2
f 6/6/3 7/7/3 5/5/3
f 8/8/4 9/9/4 7/7/4
f 10/10/5 11/11/5 9/9/5
f 12/12/6 13/13/6 11/11/6
f 10/14/7 8/15/7 2/16/7
f 14/17/8 15/18/8 13/13/8
f 16/19/9 1/20/9 15/18/9
f 11/21/10 13/22/10 15/23/10
f 17/16/11 29/24/11 18/25/11
f 18/25/12 29/24/12 19/26/12
f 19/26/13 29/24/13 20/27/13
f 20/27/14 29/24/14 21/28/14
f 21/28/15 29/24/15 22/29/15
f 22/29/16 29/24/16 23/14/16
f 23/14/17 29/24/17 24/30/17
f 24/30/18 29/24/18 25/31/18
f 25/31/19 29/24/19 26/32/19
f 26/32/20 29/24/20 27/33/20
f 28/34/10 25/35/10 27/36/10
f 27/33/21 29/24/21 28/37/21
f 28/37/22 29/24/22 17/16/22
f 2/1/1 4/4/1 3/2/1
f 4/4/2 6/6/2 5/5/2
f 6/6/3 8/8/3 7/7/3
f 8/8/4 10/10/4 9/9/4
f 10/10/5 12/12/5 11/11/5
f 12/12/6 14/17/6 13/13/6
f 6/27/7 4/38/7 8/15/7
f 4/38/7 2/16/7 8/15/7
f 2/16/7 16/39/7 12/40/7
f 16/39/7 14/32/7 12/40/7
f 12/40/7 10/14/7 2/16/7
f 14/17/8 16/19/8 15/18/8
f 16/19/9 2/41/9 1/20/9
f 15/23/10 1/42/10 9/43/10
f 1/42/10 3/44/10 7/45/10
f 3/44/10 5/46/10 7/45/10
f 7/45/10 9/43/10 1/42/10
f 9/43/10 11/21/10 15/23/10
f 28/34/10 17/42/10 24/47/10
f 17/42/10 18/48/10 23/43/10
f 24/47/10 17/42/10 23/43/10
f 18/48/10 19/49/10 22/50/10
f 19/49/10 20/46/10 21/51/10
f 22/50/10 19/49/10 21/51/10
f 22/50/10 23/43/10 18/48/10
f 24/47/10 25/35/10 28/34/10
f 25/35/10 26/22/10 27/36/10
