# Blender 4.3.2
# www.blender.org
o Plane.004
v 4.000000 8.000000 6.000000
v 4.000000 8.000000 -8.000000
v -4.000000 8.000000 6.000000
v -4.000000 8.000000 -8.000000
v -1.333333 8.000000 -8.000000
v 1.333333 8.000000 -8.000000
v 1.333333 8.000000 6.000000
v -1.333333 8.000000 6.000000
v 4.000000 8.000000 1.333333
v 4.000000 8.000000 -3.333333
v -4.000000 8.000000 1.333333
v -4.000000 8.000000 -3.333333
v 1.333333 8.000000 1.333333
v 1.333333 8.000000 -3.333333
v -1.333333 8.000000 1.333333
v -1.333333 8.000000 -3.333333
vn -0.0000 -1.0000 -0.0000
vt 0.000000 1.000000
s 0
f 8/1/1 11/1/1 15/1/1
f 1/1/1 13/1/1 9/1/1
f 7/1/1 15/1/1 13/1/1
f 14/1/1 5/1/1 6/1/1
f 10/1/1 6/1/1 2/1/1
f 9/1/1 14/1/1 10/1/1
f 16/1/1 4/1/1 5/1/1
f 15/1/1 12/1/1 16/1/1
f 8/1/1 3/1/1 11/1/1
f 1/1/1 7/1/1 13/1/1
f 7/1/1 8/1/1 15/1/1
f 14/1/1 16/1/1 5/1/1
f 10/1/1 14/1/1 6/1/1
f 9/1/1 13/1/1 14/1/1
f 16/1/1 12/1/1 4/1/1
f 15/1/1 11/1/1 12/1/1
