# Blender 4.3.2
# www.blender.org
o Plane.011
v -2.000000 0.000000 7.000000
v 6.000000 0.000000 7.000000
v -2.000000 0.000000 -1.000000
v 6.000000 0.000000 -1.000000
v -6.000000 0.000000 7.000000
v -6.000000 0.000000 -1.000000
v -1.220640 0.000000 7.000000
v -1.220640 0.000000 -1.000000
v -1.610320 0.000000 -1.000000
v -1.610320 0.000000 7.000000
v 11.000000 0.000000 7.000000
v 11.000000 0.000000 -1.000000
v 6.000000 0.000000 10.000000
v 11.000000 0.000000 10.000000
vn -0.0000 1.0000 -0.0000
vt -0.209234 -0.245908
vt 1.495700 1.292931
vt -0.209234 1.292931
vt 1.495700 1.459025
vt -0.209234 2.311492
vt -0.209234 1.459025
vt 1.495700 1.375978
vt -0.209234 1.375978
vt -0.848584 -1.311492
vt -0.209234 -1.311492
vt 1.495700 -1.311492
vt 1.495700 -0.245909
vt 1.495700 2.311492
vt -0.848584 -0.245908
s 0
f 2/1/1 8/2/1 7/3/1
f 3/4/1 5/5/1 1/6/1
f 7/3/1 9/7/1 10/8/1
f 10/8/1 3/4/1 1/6/1
f 2/1/1 14/9/1 11/10/1
f 2/1/1 12/11/1 4/12/1
f 2/1/1 4/12/1 8/2/1
f 3/4/1 6/13/1 5/5/1
f 7/3/1 8/2/1 9/7/1
f 10/8/1 9/7/1 3/4/1
f 2/1/1 13/14/1 14/9/1
f 2/1/1 11/10/1 12/11/1
