# Blender 4.3.2
# www.blender.org
o Plane.012
v -2.000000 0.000000 7.000000
v 6.000000 0.000000 7.000000
v -2.000000 0.000000 -1.000000
v 6.000000 0.000000 -1.000000
v -6.000000 0.000000 7.000000
v -6.000000 0.000000 -1.000000
v -2.000000 4.000000 -1.000000
v 6.000000 4.000000 -1.000000
v -6.000000 4.000000 7.000000
v -6.000000 4.000000 -1.000000
v -2.000000 0.000000 -5.000000
v -6.000000 0.000000 -5.000000
v -2.000000 4.000000 -5.000000
v -6.000000 4.000000 -5.000000
v 6.000000 6.000000 -1.000000
v -6.000000 6.000000 -1.000000
v -6.000000 6.000000 -5.000000
v -2.000000 4.000000 7.000000
v -1.220640 0.000000 7.000000
v -1.220640 0.000000 -1.000000
v -1.220640 4.000000 -1.000000
v -1.220640 6.000000 -1.000000
v -1.220640 6.000000 7.000000
v -1.610320 0.000000 -1.000000
v -1.610320 4.000000 -1.000000
v -1.610320 0.000000 7.000000
v -1.610320 4.000000 7.000000
v -1.220640 3.833061 -1.000000
v -1.220640 3.833061 7.000000
v -1.610320 3.833061 -1.000000
v -1.610320 3.833061 7.000000
v 6.000000 3.833061 7.000000
v 6.000000 6.000000 7.000000
v 11.000000 0.000000 7.000000
v 11.000000 0.000000 -1.000000
v 11.000000 4.000000 -1.000000
v 11.000000 6.000000 -1.000000
v 11.000000 3.833061 7.000000
v 11.000000 6.000000 7.000000
v 6.000000 0.000000 10.000000
v 6.000000 3.833061 10.000000
v 6.000000 6.000000 10.000000
v 11.000000 0.000000 10.000000
v 11.000000 3.833061 10.000000
v 11.000000 6.000000 10.000000
vn 1.0000 -0.0000 -0.0000
vn -0.0000 -0.0000 1.0000
vn -1.0000 -0.0000 -0.0000
vn -0.0000 -0.0000 -1.0000
vt 7.121457 0.163379
vt 5.109134 1.169540
vt 5.109134 0.163378
vt -3.946320 0.163378
vt -5.762603 1.169539
vt -5.762603 1.127547
vt -5.958642 1.169538
vt -6.964804 0.163377
vt -5.958642 0.163378
vt 8.127617 1.169540
vt 7.121456 1.169540
vt 7.121456 1.672621
vt -3.946320 1.169539
vt -5.762603 1.672619
vt -5.860623 0.163378
vt -5.860623 1.127546
vt 4.004952 1.127548
vt 3.906932 0.163378
vt 4.004952 0.163378
vt -5.762603 0.163378
vt 4.102973 0.163378
vt 4.102971 1.169539
vt 3.906931 1.127548
vt 2.090649 0.163378
vt 2.090649 1.672620
vt 2.090649 1.127548
vt -2.688619 1.672620
vt -3.946320 1.672620
vt -2.688618 1.169538
vt -0.676296 1.127547
vt -2.688618 0.163378
vt -0.676296 0.163378
vt -0.676296 1.672620
vt 1.336028 1.672621
vt 0.078326 1.127547
vt 1.336028 1.127548
vt 0.078327 0.163378
vt 1.336028 0.163378
vt 0.078326 1.672620
vt -6.964804 1.169538
vt 8.127619 0.163379
vt 8.127617 1.672621
vt -5.860623 1.169539
vt 4.004952 1.169539
vt 3.906931 1.672621
s 0
f 6/1/1 9/2/1 5/3/1
f 4/4/2 21/5/2 28/6/2
f 7/7/3 11/8/3 3/9/3
f 6/1/1 14/10/1 10/11/1
f 14/10/1 16/12/1 10/11/1
f 8/13/2 22/14/2 21/5/2
f 24/15/2 30/16/2 7/7/2
f 31/17/4 19/18/4 26/19/4
f 20/20/2 30/16/2 24/15/2
f 9/2/4 1/21/4 5/3/4
f 31/17/4 1/21/4 18/22/4
f 29/23/4 2/24/4 19/18/4
f 29/23/4 33/25/4 32/26/4
f 8/13/2 37/27/2 15/28/2
f 4/4/2 36/29/2 8/13/2
f 38/30/3 35/31/3 34/32/3
f 36/29/3 39/33/3 37/27/3
f 42/34/4 44/35/4 41/36/4
f 41/36/4 43/37/4 40/38/4
f 33/25/1 41/36/1 32/26/1
f 34/32/3 44/35/3 38/30/3
f 32/26/1 40/38/1 2/24/1
f 38/30/3 45/39/3 39/33/3
f 6/1/1 10/11/1 9/2/1
f 28/6/2 20/20/2 4/4/2
f 4/4/2 8/13/2 21/5/2
f 7/7/3 13/40/3 11/8/3
f 6/1/1 12/41/1 14/10/1
f 14/10/1 17/42/1 16/12/1
f 8/13/2 15/28/2 22/14/2
f 7/7/2 3/9/2 24/15/2
f 30/16/2 25/43/2 7/7/2
f 31/17/4 29/23/4 19/18/4
f 20/20/2 28/6/2 30/16/2
f 9/2/4 18/22/4 1/21/4
f 18/22/4 27/44/4 31/17/4
f 31/17/4 26/19/4 1/21/4
f 29/23/4 32/26/4 2/24/4
f 29/23/4 23/45/4 33/25/4
f 8/13/2 36/29/2 37/27/2
f 4/4/2 35/31/2 36/29/2
f 38/30/3 36/29/3 35/31/3
f 36/29/3 38/30/3 39/33/3
f 42/34/4 45/39/4 44/35/4
f 41/36/4 44/35/4 43/37/4
f 33/25/1 42/34/1 41/36/1
f 34/32/3 43/37/3 44/35/3
f 32/26/1 41/36/1 40/38/1
f 38/30/3 44/35/3 45/39/3
