# Blender 4.3.2
# www.blender.org
o Plane.003
v -4.000000 -2.500000 5.000000
v -4.000000 -2.500000 6.000000
v -4.000000 0.000000 1.000000
v -4.000000 0.000000 0.000000
v -4.000000 -0.500000 1.000000
v -4.000000 8.000000 1.000000
v -4.000000 8.000000 0.000000
v -4.000000 0.000000 5.000000
v -4.000000 8.000000 5.000000
v -4.000000 0.000000 6.000000
v -4.000000 8.000000 6.000000
v -4.000000 0.000000 -8.000000
v -4.000000 8.000000 -8.000000
vn 1.0000 -0.0000 -0.0000
vt 2.285000 2.286211
vt 2.570000 0.006211
vt 2.570000 2.286211
vt 3.710000 2.286211
vt 3.710000 2.998711
vt 3.995000 2.286211
vt 3.995000 2.998711
vt 3.995000 0.006211
vt 2.570000 2.428711
vt 0.005000 0.006211
vt 2.285000 0.006211
vt 3.710000 0.006211
vt 0.005000 2.286211
s 0
f 4/1/1 6/2/1 3/3/1
f 6/2/1 8/4/1 3/3/1
f 1/5/1 10/6/1 2/7/1
f 8/4/1 11/8/1 10/6/1
f 8/4/1 5/9/1 3/3/1
f 4/1/1 13/10/1 7/11/1
f 4/1/1 7/11/1 6/2/1
f 6/2/1 9/12/1 8/4/1
f 1/5/1 8/4/1 10/6/1
f 8/4/1 9/12/1 11/8/1
f 8/4/1 1/5/1 5/9/1
f 4/1/1 12/13/1 13/10/1
