# Blender 4.3.2
# www.blender.org
o Plane.002
v 4.000000 -2.500000 5.000000
v 4.000000 -2.500000 6.000000
v 4.000000 0.000000 1.000000
v 4.000000 0.000000 0.000000
v 4.000000 -0.500000 1.000000
v 4.000000 8.000000 1.000000
v 4.000000 8.000000 0.000000
v 4.000000 0.000000 5.000000
v 4.000000 8.000000 5.000000
v 4.000000 0.000000 6.000000
v 4.000000 8.000000 6.000000
v 4.000000 0.000000 -8.000000
v 4.000000 8.000000 -8.000000
vn -1.0000 -0.0000 -0.0000
vt 2.569788 0.006517
vt 2.284839 2.286109
vt 2.569788 2.286109
vt 3.709584 2.286109
vt 3.994534 2.286109
vt 3.709584 2.998481
vt 3.994534 2.998481
vt 3.994534 0.006517
vt 2.569788 2.428584
vt 2.284839 0.006517
vt 0.005247 2.286109
vt 3.709584 0.006517
vt 0.005247 0.006517
s 0
f 6/1/1 4/2/1 3/3/1
f 8/4/1 6/1/1 3/3/1
f 10/5/1 1/6/1 2/7/1
f 11/8/1 8/4/1 10/5/1
f 5/9/1 8/4/1 3/3/1
f 7/10/1 12/11/1 4/2/1
f 6/1/1 7/10/1 4/2/1
f 8/4/1 9/12/1 6/1/1
f 10/5/1 8/4/1 1/6/1
f 11/8/1 9/12/1 8/4/1
f 5/9/1 1/6/1 8/4/1
f 7/10/1 13/13/1 12/11/1
