# Blender 4.3.2
# www.blender.org
o Plane.001
v -4.000000 -1.500000 4.000000
v 4.000000 -1.500000 4.000000
v -4.000000 -1.500000 3.000000
v 4.000000 -1.500000 3.000000
v -4.000000 -2.000000 4.000000
v 4.000000 -2.000000 4.000000
v -4.000000 -2.000000 5.000000
v 4.000000 -2.000000 5.000000
v -4.000000 -2.500000 5.000000
v 4.000000 -2.500000 5.000000
v -4.000000 -2.500000 6.000000
v 4.000000 -2.500000 6.000000
v -4.000000 -3.000000 6.000000
v 4.000000 -3.000000 6.000000
v -4.000000 0.000000 1.000000
v 4.000000 0.000000 1.000000
v -4.000000 0.000000 0.000000
v 4.000000 0.000000 0.000000
v -4.000000 -0.500000 1.000000
v 4.000000 -0.500000 1.000000
v -4.000000 -0.500000 2.000000
v 4.000000 -0.500000 2.000000
v -4.000000 -1.000000 2.000000
v 4.000000 -1.000000 2.000000
v -4.000000 -1.000000 3.000000
v 4.000000 -1.000000 3.000000
v -4.000000 0.000000 -8.000000
v 4.000000 0.000000 -8.000000
vn -0.0000 1.0000 -0.0000
vn -0.0000 -0.0000 1.0000
vt 1.000000 0.000000
vt 0.000000 1.000000
vt 0.000000 0.000000
vt 1.000000 1.000000
s 0
f 2/1/1 3/2/1 1/3/1
f 1/3/2 6/1/2 2/1/2
f 5/3/1 8/1/1 6/1/1
f 7/3/2 10/1/2 8/1/2
f 9/3/1 12/1/1 10/1/1
f 11/3/2 14/1/2 12/1/2
f 16/1/1 17/2/1 15/3/1
f 15/3/2 20/1/2 16/1/2
f 19/3/1 22/1/1 20/1/1
f 21/3/2 24/1/2 22/1/2
f 23/3/1 26/1/1 24/1/1
f 25/3/2 4/1/2 26/1/2
f 18/4/1 27/2/1 17/2/1
f 2/1/1 4/4/1 3/2/1
f 1/3/2 5/3/2 6/1/2
f 5/3/1 7/3/1 8/1/1
f 7/3/2 9/3/2 10/1/2
f 9/3/1 11/3/1 12/1/1
f 11/3/2 13/3/2 14/1/2
f 16/1/1 18/4/1 17/2/1
f 15/3/2 19/3/2 20/1/2
f 19/3/1 21/3/1 22/1/1
f 21/3/2 23/3/2 24/1/2
f 23/3/1 25/3/1 26/1/1
f 25/3/2 3/3/2 4/1/2
f 18/4/1 28/4/1 27/2/1
